<svg xmlns="http://www.w3.org/2000/svg" width="18" height="19" viewBox="0 0 18 19" fill="none">
  <path d="M17 8.81778C17.003 9.99099 16.7289 11.1483 16.2 12.1955C15.5728 13.4504 14.6086 14.5059 13.4155 15.2438C12.2223 15.9817 10.8473 16.3728 9.44443 16.3733C8.27122 16.3764 7.11387 16.1023 6.06666 15.5733L1 17.2622L2.68889 12.1955C2.15994 11.1483 1.88583 9.99099 1.88889 8.81778C1.88943 7.4149 2.28054 6.03987 3.01841 4.84672C3.75629 3.65356 4.81178 2.6894 6.06666 2.06223C7.11387 1.53328 8.27122 1.25917 9.44443 1.26223H9.88887C11.7416 1.36445 13.4916 2.14646 14.8037 3.45855C16.1157 4.77063 16.8978 6.52058 17 8.37333V8.81778Z" stroke="#8B5FD9" stroke-width="2" stroke-linecap="round" stroke-linejoin="round"/>
</svg>