<svg xmlns="http://www.w3.org/2000/svg" width="23" height="26" viewBox="0 0 23 26" fill="none">
<path d="M18.5 8.55933C18.5 6.70281 17.7625 4.92233 16.4497 3.60958C15.137 2.29682 13.3565 1.55933 11.5 1.55933C9.64348 1.55933 7.86301 2.29682 6.55025 3.60958C5.2375 4.92233 4.5 6.70281 4.5 8.55933C4.5 16.726 1 19.0593 1 19.0593H22C22 19.0593 18.5 16.726 18.5 8.55933Z" stroke="#2E3E4B" stroke-width="2" stroke-linecap="round" stroke-linejoin="round"/>
<path d="M13.5184 23.7261C13.3132 24.0797 13.0188 24.3732 12.6646 24.5772C12.3104 24.7812 11.9088 24.8886 11.5 24.8886C11.0912 24.8886 10.6896 24.7812 10.3354 24.5772C9.98121 24.3732 9.6868 24.0797 9.48169 23.7261" stroke="#2E3E4B" stroke-width="2" stroke-linecap="round" stroke-linejoin="round"/>
</svg>