<svg xmlns="http://www.w3.org/2000/svg"  width="25" height="20" viewBox="0 0 25 20" fill="none" >
<path   d="M23.5 17C23.5 17.5304 23.2893 18.0391 22.9142 18.4142C22.5391 18.7893 22.0304 19 21.5 19H3.5C2.96957 19 2.46086 18.7893 2.08579 18.4142C1.71071 18.0391 1.5 17.5304 1.5 17V6C1.5 5.46957 1.71071 4.96086 2.08579 4.58579C2.46086 4.21071 2.96957 4 3.5 4H7.5L9.5 1H15.5L17.5 4H21.5C22.0304 4 22.5391 4.21071 22.9142 4.58579C23.2893 4.96086 23.5 5.46957 23.5 6V17Z" stroke="white"  stroke-width="2" stroke-linecap="round" stroke-linejoin="round"/>
<path d="M12.5 15C14.7091 15 16.5 13.2091 16.5 11C16.5 8.79086 14.7091 7 12.5 7C10.2909 7 8.5 8.79086 8.5 11C8.5 13.2091 10.2909 15 12.5 15Z" stroke="white"  stroke-width="2" stroke-linecap="round" stroke-linejoin="round"/>
</svg>