<svg width="312" height="293" viewBox="0 0 312 293" fill="none" xmlns="http://www.w3.org/2000/svg">
<path d="M271.098 73.5059C269.278 72.2972 267.476 71.0648 265.691 69.8088C246.432 56.2594 156.341 -5.28075 118.357 0.364837C75.7089 6.73306 -14.7754 146.744 8.27798 188.244C31.3313 229.744 146.592 301.801 177.136 290.251C207.68 278.702 289.519 151.938 294.706 120.819C299.132 94.2429 277.511 77.7578 271.098 73.5059Z" fill="#8B5FD9"/>
<path opacity="0.8" d="M271.098 73.5059C269.278 72.2972 267.476 71.0648 265.691 69.8088C246.432 56.2594 156.341 -5.28075 118.357 0.364837C75.7089 6.73306 -14.7754 146.744 8.27798 188.244C31.3313 229.744 146.592 301.801 177.136 290.251C207.68 278.702 289.519 151.938 294.706 120.819C299.132 94.2429 277.511 77.7578 271.098 73.5059Z" fill="white"/>
<path d="M310.966 247.242H1" stroke="#263238" stroke-linecap="round" stroke-linejoin="round"/>
<g opacity="0.3">
<path d="M294.893 32.2705H243.431V100.508H294.893V32.2705Z" fill="white" stroke="black" stroke-linecap="round" stroke-linejoin="round"/>
<path d="M291.938 36.1934H246.393V96.5915H291.938V36.1934Z" fill="white" stroke="black" stroke-linecap="round" stroke-linejoin="round"/>
<path d="M279.395 52.814H258.923V79.9644H279.395V52.814Z" fill="white" stroke="black" stroke-linecap="round" stroke-linejoin="round"/>
</g>
<g opacity="0.3">
<path d="M36.093 36.5483H14.5559V65.1054H36.093V36.5483Z" fill="white" stroke="black" stroke-linecap="round" stroke-linejoin="round"/>
<path d="M34.8542 38.187H15.7947V63.4599H34.8542V38.187Z" fill="white" stroke="black" stroke-linecap="round" stroke-linejoin="round"/>
<path d="M29.6087 45.1489H21.0403V56.5111H29.6087V45.1489Z" fill="white" stroke="black" stroke-linecap="round" stroke-linejoin="round"/>
<path d="M68.4439 69.8733H46.9068V98.4303H68.4439V69.8733Z" fill="white" stroke="black" stroke-linecap="round" stroke-linejoin="round"/>
<path d="M67.1986 71.5186H48.1391V96.7914H67.1986V71.5186Z" fill="white" stroke="black" stroke-linecap="round" stroke-linejoin="round"/>
<path d="M61.9531 78.4741H53.3847V89.8363H61.9531V78.4741Z" fill="white" stroke="black" stroke-linecap="round" stroke-linejoin="round"/>
<path d="M14.001 73.3833L14.001 94.9204H42.558V73.3833H14.001Z" fill="white" stroke="black" stroke-linecap="round" stroke-linejoin="round"/>
<path d="M15.6464 74.6221L15.6464 93.6816H40.9193V74.6221H15.6464Z" fill="white" stroke="black" stroke-linecap="round" stroke-linejoin="round"/>
<path d="M22.6016 79.8676V88.436H33.9638V79.8676H22.6016Z" fill="white" stroke="black" stroke-linecap="round" stroke-linejoin="round"/>
<path d="M69.9214 24.8506H38.5706V66.4279H69.9214V24.8506Z" fill="white" stroke="black" stroke-linecap="round" stroke-linejoin="round"/>
<path d="M68.1278 27.2444H40.3773V64.0407H68.1278V27.2444Z" fill="white" stroke="black" stroke-linecap="round" stroke-linejoin="round"/>
<path d="M60.482 37.3677H48.0101V53.9109H60.482V37.3677Z" fill="white" stroke="black" stroke-linecap="round" stroke-linejoin="round"/>
</g>
<path d="M87.6906 145.279H84.8065V152.615H87.6906V145.279Z" fill="#6E6E6E" stroke="#263238" stroke-linecap="round" stroke-linejoin="round"/>
<path d="M225.52 145.279H222.636V152.615H225.52V145.279Z" fill="#6E6E6E" stroke="#263238" stroke-linecap="round" stroke-linejoin="round"/>
<path d="M229.482 38.6387H81.3739V146.053H229.482V38.6387Z" fill="#6E6E6E" stroke="#263238" stroke-linecap="round" stroke-linejoin="round"/>
<path d="M225.52 41.5164H85.3355V143.182H225.52V41.5164Z" fill="#263238" stroke="#263238" stroke-linecap="round" stroke-linejoin="round"/>
<path d="M196.028 127.278L204.841 137.853L204.977 136.091L206.738 135.685L206.874 134.601L208.635 134.052L200.635 123.071L196.028 127.278Z" fill="#E0E0E0" stroke="#263238" stroke-linecap="round" stroke-linejoin="round"/>
<path d="M200.635 123.071L196.028 127.278L200.622 132.794L201.312 128.362C201.987 127.815 202.633 127.234 203.248 126.619L200.635 123.071Z" fill="#263238" stroke="#263238" stroke-linecap="round" stroke-linejoin="round"/>
<path d="M207.145 114.122L216.636 127.026L215.01 128.245C215.01 128.245 213.106 129.465 212.565 129.736C211.945 129.987 211.312 130.202 210.668 130.381L209.99 131.904H207.687L200.228 120.226C200.228 120.226 200.228 119.006 201.719 117.38C203.209 115.754 207.145 114.122 207.145 114.122Z" fill="#E0E0E0" stroke="#263238" stroke-linecap="round" stroke-linejoin="round"/>
<path d="M207.145 114.122C207.145 114.122 203.209 115.754 201.719 117.38C200.228 119.006 200.228 120.226 200.228 120.226L203.874 125.923C204.256 125.495 204.609 125.042 204.932 124.568C206.222 122.632 208.358 123.923 208.358 123.923L209.209 120.497C209.331 120.145 209.532 119.827 209.797 119.568C210.063 119.308 210.385 119.113 210.739 119L207.145 114.122Z" fill="#263238" stroke="#263238" stroke-linecap="round" stroke-linejoin="round"/>
<path d="M196.705 88.5005C196.705 88.5005 200.77 93.6622 202.396 97.1786C204.022 100.695 210.261 107.754 211.752 108.973C213.155 109.979 214.655 110.843 216.229 111.554C216.229 111.554 210.803 108.973 209.042 111.96C207.28 114.948 207.009 119.283 207.009 119.283C207.009 119.283 203.751 117.929 203.073 120.232C202.396 122.535 201.312 128.368 201.312 128.368C201.312 128.368 197.247 126.607 196.028 127.284C194.808 127.962 191.55 129.865 191.55 129.865L190.331 131.491C190.331 131.491 189.924 125.936 190.331 122.948C190.737 119.961 191.279 113.728 192.769 107.089C194.26 100.45 196.705 88.5005 196.705 88.5005Z" fill="#8B5FD9" stroke="#263238" stroke-linecap="round" stroke-linejoin="round"/>
<path d="M197.383 105.45L205.77 114.941C205.77 114.941 200.886 104.908 200.48 102.734C200.073 100.56 199.396 99.7531 200.209 97.8561C200.597 97.0616 201.039 96.2942 201.531 95.5592C200.119 93.1698 198.558 90.8705 196.86 88.6748L196.621 88.8813C196.189 90.9911 194.105 101.14 192.75 107.057C191.68 112.243 190.875 117.48 190.337 122.748C190.982 121.264 191.905 119.167 192.479 118.174C193.428 116.548 197.905 121.697 197.905 121.697C197.905 121.697 194.382 115.057 194.679 113.019C194.976 110.98 197.383 105.45 197.383 105.45Z" fill="#263238" stroke="#263238" stroke-linecap="round" stroke-linejoin="round"/>
<path d="M151.689 76.0286C151.689 76.0286 140.72 75.6221 135.017 73.1768C129.313 70.7314 117.39 63.1502 110.066 69.6539C102.743 76.1576 93.3942 118.045 94.3427 124.155C95.2911 130.265 101.937 132.833 107.247 134.323C112.557 135.814 109.828 134.865 109.828 134.865L109.118 142.872H190.873L191.55 129.858C191.55 129.858 192.228 117.929 193.589 113.857C194.95 109.786 198.196 99.3529 198.06 93.5202C197.925 87.6875 198.06 79.8289 193.311 77.119C188.563 74.4091 185.317 74.0026 180.975 74.4091C176.633 74.8156 162.399 74.2736 160.367 74.4091C158.335 74.5446 151.689 76.0286 151.689 76.0286Z" fill="#8B5FD9" stroke="#263238" stroke-linecap="round" stroke-linejoin="round"/>
<path d="M198.06 93.5138C198.028 92.0686 198.009 90.4878 197.931 88.8941L197.247 87.1456C197.247 87.1456 194.537 95.0107 194.021 95.5333C193.505 96.056 193.318 87.9586 193.318 87.9586L191.286 91.3459C191.286 91.3459 191.692 85.3842 191.557 83.4808C191.421 81.5774 188.169 79.5515 187.627 79.2805C187.085 79.0095 165.606 76.0544 161.728 79.958C157.851 83.8615 152.379 85.6552 151.018 85.7649C149.643 85.9896 148.285 86.3065 146.953 86.7133C146.805 88.3348 146.76 89.9639 146.818 91.5911C146.953 93.488 146.953 99.1852 146.953 99.1852C146 97.8717 145.182 96.4643 144.514 94.9849C142.888 91.7589 140.307 87.1198 140.307 86.7133C139.819 89.721 139.502 92.7541 139.359 95.7979C139.412 97.1203 139.275 98.4436 138.953 99.7272C138.953 99.7272 135.43 94.7139 134.075 91.7266C132.72 88.7393 130.681 84.4099 130.681 84.4099L130.41 96.4753L126.616 86.152C126.616 86.152 128.378 98.7594 127.836 100.792C127.294 102.824 126.887 103.908 126.481 104.05C126.074 104.192 124.584 98.7594 122.009 95.101C119.435 91.4427 117.396 90.4878 117.396 90.4878C117.396 90.4878 120.919 97.1335 121.325 100.385C121.732 103.637 120.68 104.592 119.835 104.728C118.99 104.863 112.654 104.321 108.312 104.863C105.431 105.281 102.614 106.055 99.9238 107.166C99.9238 107.166 111.318 105.947 113.351 107.166L115.054 108.186C114.731 108.218 114.118 108.605 112.944 110.122C110.77 112.967 108.195 117.309 108.737 119.613C109.279 121.916 109.821 123.542 109.383 123.813C108.944 124.084 105.569 129.323 105.569 129.323L112.351 128.917L109.634 130.678L113.434 130C113.434 130 113.028 130.407 113.976 131.491C114.925 132.575 118.177 134.607 118.177 134.607L119.938 135.427L113.705 135.698C113.705 135.698 115.196 136.917 118.448 137.324C121.7 137.73 122.113 138.001 122.519 138.001C122.803 138.001 122.687 141.046 122.596 142.879H190.873L191.55 129.865C191.55 129.865 192.228 117.935 193.589 113.864C194.95 109.792 198.196 99.3465 198.06 93.5138Z" fill="#263238" stroke="#263238" stroke-linecap="round" stroke-linejoin="round"/>
<path d="M135.946 99.5787L140.856 105.192C140.856 105.192 145.598 107.128 147.347 107.128C149.095 107.128 151.218 108.005 151.386 110.463C151.553 112.922 151.031 116.27 151.386 118.206C151.741 120.142 153.489 123.645 152.96 124.697C152.597 125.412 151.995 125.979 151.259 126.3C150.523 126.62 149.699 126.674 148.927 126.452C146.824 125.923 145.598 126.8 144.895 122.942C144.192 119.083 143.843 117.857 143.843 117.857C143.843 117.857 141.037 120.838 139.63 121.542C138.223 122.245 136.475 121.187 134.017 122.593C131.639 124.064 129.507 125.899 127.7 128.032C125.764 130.136 122.79 131.013 121.738 131.904C120.638 133.042 119.641 134.275 118.757 135.588C118.757 135.588 113.847 133.652 115.073 131.549C116.299 129.445 115.073 129.613 115.951 128.394C116.828 127.174 114.015 119.445 114.725 119.27C115.435 119.096 118.228 119.096 118.228 116.29C118.228 113.483 116.293 109.799 116.293 109.096C116.293 108.392 119.977 101.353 121.029 104.185C122.08 107.018 124.9 109.276 126.468 108.921C128.036 108.566 128.403 104.715 128.223 101.908C128.042 99.1012 131.204 98.0366 132.255 97.6947C133.307 97.3527 135.946 99.5787 135.946 99.5787Z" fill="#CFCFCF" stroke="#263238" stroke-linecap="round" stroke-linejoin="round"/>
<path d="M123.055 121.58C123.055 121.58 125.519 123.464 127.119 119.838C128.719 116.212 130.894 113.883 134.088 112.87C136.584 111.976 139.01 110.898 141.346 109.644C140.534 111.139 139.508 112.509 138.301 113.709C136.559 115.303 134.378 116.903 134.236 117.774C134.094 118.645 134.236 118.206 137.72 117.774L141.204 117.335C141.204 117.335 140.043 119.367 138.882 119.658C137.72 119.948 133.217 120.677 131.326 122.129C129.436 123.581 128.352 125.284 126.539 127.065C124.726 128.846 118.409 131.71 118.409 127.355C118.409 123 119.28 121.716 123.055 121.58Z" fill="#263238" stroke="#263238" stroke-linecap="round" stroke-linejoin="round"/>
<path d="M143.843 117.825C143.843 117.825 141.908 112.018 144.895 110.283" stroke="#263238" stroke-linecap="round" stroke-linejoin="round"/>
<path d="M151.734 120.103C151.734 120.103 150.334 120.103 150.508 121.155C150.682 122.206 151.56 124.839 151.56 124.839" stroke="#263238" stroke-linecap="round" stroke-linejoin="round"/>
<path d="M133.668 92.0364C133.668 92.0364 127.352 91.5137 126.3 93.6171C125.248 95.7205 125.952 98.353 127.003 100.108C128.055 101.863 128.229 104.14 128.758 106.599C129.287 109.057 129.455 111.683 130.332 111.857C131.779 112.24 133.308 112.179 134.72 111.683C136.997 110.98 137.527 109.747 137.527 108.18C137.527 106.612 136.998 103.437 136.998 102.211C136.998 100.985 136.301 98.0045 136.12 95.5463C136.037 94.803 135.769 94.0924 135.341 93.4793C134.913 92.8662 134.338 92.3701 133.668 92.0364Z" fill="#CFCFCF" stroke="#263238" stroke-linecap="round" stroke-linejoin="round"/>
<path d="M136.12 104.495C134.981 103.923 133.67 103.797 132.442 104.14C130.158 104.67 130.158 105.895 130.158 107.65V109.405" stroke="#263238" stroke-linecap="round" stroke-linejoin="round"/>
<path d="M134.72 111.683L134.017 108.702" stroke="#263238" stroke-linecap="round" stroke-linejoin="round"/>
<path d="M131.913 111.335L131.739 110.109" stroke="#263238" stroke-linecap="round" stroke-linejoin="round"/>
<path d="M122.093 106.947C122.093 106.947 122.267 106.599 121.035 104.14C120.767 103.561 120.354 103.06 119.836 102.687C119.318 102.314 118.713 102.08 118.078 102.01C117.444 101.939 116.802 102.033 116.214 102.283C115.627 102.533 115.114 102.931 114.725 103.437C112.789 105.721 112.441 106.424 113.673 107.999C114.906 109.573 117.002 110.805 117.351 112.038C117.699 113.27 119.287 116.593 121.035 117.651C122.784 118.709 124.197 118.529 125.422 116.948C126.648 115.367 126.126 113.786 125.422 111.141C124.719 108.496 122.093 106.947 122.093 106.947Z" fill="#CFCFCF" stroke="#263238" stroke-linecap="round" stroke-linejoin="round"/>
<path d="M121.39 116.245C121.39 116.245 119.983 114.49 120.338 113.438C120.693 112.386 122.964 110.98 123.842 111.683" stroke="#263238" stroke-linecap="round" stroke-linejoin="round"/>
<path d="M113.312 118.174C113.312 118.174 109.982 117.296 109.441 121.329C108.899 125.361 109.97 126.942 111.195 127.471C112.421 128 114.88 127.471 115.931 128.349C116.983 129.226 118.738 129.929 121.738 130.452C124.738 130.975 124.545 129.226 125.248 126.581C125.951 123.935 123.842 123.774 122.79 123.252C121.746 122.861 120.791 122.264 119.983 121.497C118.932 120.458 115.602 117.999 113.312 118.174Z" fill="#CFCFCF" stroke="#263238" stroke-linecap="round" stroke-linejoin="round"/>
<path d="M120.338 128.523C119.949 127.703 119.842 126.777 120.032 125.89C120.222 125.002 120.699 124.202 121.39 123.613" stroke="#263238" stroke-linecap="round" stroke-linejoin="round"/>
<path d="M124.719 128.878L122.267 129.052" stroke="#263238" stroke-linecap="round" stroke-linejoin="round"/>
<path d="M113.492 129.575C113.492 129.575 111.389 129.93 111.744 132.381C112.099 134.833 113.68 136.066 114.37 137.117C115.06 138.169 118.241 140.627 119.635 140.988C121.028 141.35 122.442 140.814 122.267 138.362C122.093 135.911 120.332 134.678 119.809 133.627C119.286 132.575 118.409 131.872 117.706 130.82C117.002 129.768 115.602 128.175 113.492 129.575Z" fill="#CFCFCF" stroke="#263238" stroke-linecap="round" stroke-linejoin="round"/>
<path d="M121.39 136.594C121.134 136.148 120.734 135.802 120.257 135.611C119.779 135.42 119.25 135.396 118.757 135.543C117.002 136.065 115.951 137.291 116.48 138.349C117.009 139.408 119.635 140.975 119.635 140.975" stroke="#263238" stroke-linecap="round" stroke-linejoin="round"/>
<path d="M120.235 72.3638C121.976 73.5533 123.445 75.0991 124.544 76.8988C125.643 78.6985 126.347 80.711 126.61 82.8033C126.61 82.8033 127.016 73.1896 120.235 72.3638Z" fill="#263238" stroke="#263238" stroke-linecap="round" stroke-linejoin="round"/>
<path d="M120.37 78.061C120.37 78.061 122.951 80.7709 123.629 82.1259C124.306 83.4808 123.493 78.7385 120.37 78.061Z" fill="#263238" stroke="#263238" stroke-linecap="round" stroke-linejoin="round"/>
<path d="M149.818 78.6222C149.818 78.6222 149.469 74.751 147.024 77.3963C144.579 80.0417 145.282 85.255 145.805 87.8745C146.327 90.4941 148.947 92.933 148.947 92.933C148.947 92.933 149.644 98.1721 150.166 100.785C150.689 103.398 154.483 111.063 155.702 113.16C156.922 115.257 161.025 120.335 163.967 120.851C167.877 121.542 171.639 119.464 172.858 118.07C174.078 116.677 177.375 111.618 180.014 108.644C182.653 105.669 185.253 99.2174 185.253 99.2174C185.253 99.2174 189.963 89.7908 189.769 87.3455C189.757 86.6879 189.612 86.0395 189.343 85.4396C189.073 84.8396 188.685 84.3005 188.201 83.8549C188.201 83.8549 190.473 76.1769 190.473 70.5894C190.473 65.0018 185.408 57.8465 180.872 55.7495C176.336 53.6526 166.555 51.7299 160.444 55.9237C154.334 60.1176 151.547 65.8729 151.018 68.8279C150.489 71.783 149.818 78.6222 149.818 78.6222Z" fill="#CFCFCF" stroke="#263238" stroke-linecap="round" stroke-linejoin="round"/>
<path d="M188.047 85.4487C188.236 86.911 188.117 88.3967 187.698 89.8103C186.995 92.2557 185.253 93.3009 185.253 96.2625C185.253 99.224 183.317 103.418 183.317 103.418" stroke="#263238" stroke-linecap="round" stroke-linejoin="round"/>
<path d="M174.078 88.5716L184.73 88.2231C184.953 89.2414 184.89 90.3015 184.549 91.2863C184.207 92.2711 183.6 93.1425 182.795 93.8042C180.014 96.0754 173.729 93.4558 174.078 88.5716Z" fill="#263238" stroke="#263238" stroke-linecap="round" stroke-linejoin="round"/>
<path d="M169.994 88.094L157.831 83.855C157.831 83.855 156.696 89.4877 160.219 91.5975C165.387 94.7397 169.645 88.9651 169.994 88.094Z" fill="#263238" stroke="#263238" stroke-linecap="round" stroke-linejoin="round"/>
<path d="M169.445 94.8753C169.445 94.8753 165.787 98.3981 167.277 98.9401C167.761 99.0778 168.27 99.1005 168.764 99.0064C169.258 98.9123 169.723 98.704 170.123 98.3981C170.123 98.3981 171.613 101.108 172.832 100.295C174.052 99.4821 173.381 95.8237 172.561 94.7398C172.377 94.4941 172.135 94.2971 171.858 94.1658C171.58 94.0345 171.275 93.9728 170.968 93.9862C170.661 93.9995 170.362 94.0874 170.096 94.2424C169.831 94.3973 169.608 94.6145 169.445 94.8753Z" fill="#263238" stroke="#263238" stroke-linecap="round" stroke-linejoin="round"/>
<path d="M174.2 111.683C173.44 112.93 172.419 113.997 171.207 114.812C170.444 115.367 169.639 115.861 168.8 116.29C167.174 117.109 162.561 115.077 161.612 114.122C160.975 113.235 160.515 112.234 160.257 111.173C159.741 109.47 159.419 107.463 159.715 106.257C159.931 105.592 160.276 104.976 160.732 104.446C161.187 103.915 161.743 103.48 162.367 103.166C163.449 102.532 164.73 102.329 165.955 102.598L172.581 104.257C173.046 104.375 173.467 104.627 173.792 104.981C174.116 105.335 174.33 105.776 174.407 106.25C174.407 106.366 174.445 106.495 174.465 106.631C174.678 108.257 174.839 110.489 174.2 111.683Z" fill="#263238" stroke="#263238" stroke-linecap="round" stroke-linejoin="round"/>
<path d="M168.8 116.29C169.648 115.862 170.462 115.368 171.232 114.812C172.158 114.164 172.986 113.386 173.691 112.502C173.658 110.902 172.916 110.483 172.052 111.954C171.103 113.58 170.155 113.851 168.664 113.851C167.174 113.851 163.922 113.173 162.974 111.683C162.025 110.192 162.703 108.837 161.477 108.16C160.251 107.483 160.122 109.244 160.122 109.244C160.122 109.244 160.064 109.599 159.98 110.141C160.064 110.489 160.154 110.838 160.257 111.173C160.515 112.234 160.975 113.235 161.612 114.122C162.535 115.077 167.148 117.109 168.8 116.29Z" fill="white" stroke="#263238" stroke-linecap="round" stroke-linejoin="round"/>
<path d="M174.529 107.315C174.497 107.076 174.471 106.85 174.439 106.631C174.407 106.412 174.4 106.366 174.381 106.25C174.304 105.776 174.09 105.335 173.766 104.981C173.441 104.627 173.021 104.375 172.555 104.257L165.929 102.598C164.704 102.329 163.423 102.532 162.341 103.166C161.984 103.36 161.646 103.589 161.335 103.85C161.98 104.45 163.812 105.837 167.555 106.67C169.839 107.203 172.186 107.42 174.529 107.315Z" fill="white" stroke="#263238" stroke-linecap="round" stroke-linejoin="round"/>
<path d="M167.826 91.9009C167.826 91.9009 166.471 93.5268 162.948 94.6172C159.425 95.7076 156.98 94.3462 156.573 92.7138" stroke="#263238" stroke-linecap="round" stroke-linejoin="round"/>
<path d="M174.607 93.2429C174.607 93.2429 175.897 96.7464 180.569 96.469" stroke="#263238" stroke-linecap="round" stroke-linejoin="round"/>
<path d="M171.381 87.4165C171.787 87.281 171.787 87.1455 171.787 85.655C171.787 84.1646 169.348 82.8032 168.264 81.9902" stroke="#263238" stroke-linecap="round" stroke-linejoin="round"/>
<path d="M172.839 87.1455C172.907 86.4832 173.196 85.863 173.658 85.3841C174.471 84.4357 179.62 83.4485 180.027 83.4485" stroke="#263238" stroke-linecap="round" stroke-linejoin="round"/>
<path d="M165.522 96.0947C164.26 96.9047 162.945 97.629 161.586 98.2626C159.283 99.3466 156.709 98.9078 156.709 103.953" stroke="#263238" stroke-linecap="round" stroke-linejoin="round"/>
<path d="M174.607 98.3979C175.157 99.7957 175.886 101.116 176.775 102.327C177.994 103.818 177.588 106.263 176.775 108.973" stroke="#263238" stroke-linecap="round" stroke-linejoin="round"/>
<path d="M184.369 97.7078C184.369 97.7078 183.962 98.7917 181.788 99.1982C179.614 99.6047 177.588 99.4692 177.723 101.502" stroke="#263238" stroke-linecap="round" stroke-linejoin="round"/>
<path d="M153.457 91.3459C153.457 91.3459 153.728 93.9268 155.489 95.0107C157.251 96.0947 158.606 96.5012 157.793 97.8561" stroke="#263238" stroke-linecap="round" stroke-linejoin="round"/>
<path d="M154.812 82.2613C154.574 81.8989 154.448 81.4751 154.448 81.0418C154.448 80.6086 154.574 80.1848 154.812 79.8224C155.625 78.4675 156.302 76.0286 156.031 72.3638" stroke="#263238" stroke-linecap="round" stroke-linejoin="round"/>
<path d="M148.94 90.1521C148.94 90.1521 150.573 86.3519 149.753 84.0484C148.934 81.745 147.256 78.0996 147.256 78.0996C147.256 78.0996 146.372 80.7643 146.953 82.0483C147.534 83.3323 148.153 84.7388 148.153 84.7388C148.153 84.7388 145.927 85.0872 146.514 86.7261C147.102 88.3649 147.218 86.6099 147.805 86.4938C148.392 86.3777 148.94 90.1521 148.94 90.1521Z" fill="#263238" stroke="#263238" stroke-linecap="round" stroke-linejoin="round"/>
<path d="M156.709 61.6533C156.709 61.6533 159.69 64.7761 166.335 66.1311" stroke="#263238" stroke-linecap="round" stroke-linejoin="round"/>
<path d="M175.284 66.8086C179.516 67.8291 183.918 67.9216 188.189 67.0796" stroke="#263238" stroke-linecap="round" stroke-linejoin="round"/>
<path d="M159.554 61.3823L157.386 64.6406" stroke="#263238" stroke-linecap="round" stroke-linejoin="round"/>
<path d="M164.167 63.1501L162.812 66.5375" stroke="#263238" stroke-linecap="round" stroke-linejoin="round"/>
<path d="M176.775 65.0471L176.368 68.841" stroke="#263238" stroke-linecap="round" stroke-linejoin="round"/>
<path d="M183.007 65.3181L182.872 70.7379" stroke="#263238" stroke-linecap="round" stroke-linejoin="round"/>
<path d="M163.761 75.7705C163.761 75.7705 167.284 77.3964 169.858 78.4804C172.432 79.5643 177.317 79.2934 180.298 79.0224" stroke="#263238" stroke-linecap="round" stroke-linejoin="round"/>
<path d="M182.195 76.1641C182.195 76.1641 175.42 76.2996 173.807 76.1641" stroke="#263238" stroke-linecap="round" stroke-linejoin="round"/>
<path d="M163.49 71.8218L169.316 73.9961" stroke="#263238" stroke-linecap="round" stroke-linejoin="round"/>
<path d="M165.251 88.565C165.253 88.8741 165.162 89.1766 164.991 89.4342C164.82 89.6918 164.577 89.8929 164.292 90.0121C164.007 90.1313 163.692 90.1631 163.389 90.1036C163.086 90.0441 162.807 89.8959 162.588 89.6778C162.369 89.4597 162.22 89.1815 162.159 88.8784C162.098 88.5754 162.129 88.2611 162.247 87.9754C162.365 87.6897 162.565 87.4455 162.822 87.2736C163.079 87.1018 163.381 87.01 163.69 87.01C164.103 87.01 164.499 87.1736 164.792 87.4651C165.084 87.7565 165.25 88.152 165.251 88.565Z" fill="#8B5FD9" stroke="#263238" stroke-linecap="round" stroke-linejoin="round"/>
<path d="M179.078 92.2297C179.94 92.2297 180.64 91.5307 180.64 90.6683C180.64 89.806 179.94 89.1069 179.078 89.1069C178.216 89.1069 177.517 89.806 177.517 90.6683C177.517 91.5307 178.216 92.2297 179.078 92.2297Z" fill="#8B5FD9" stroke="#263238" stroke-linecap="round" stroke-linejoin="round"/>
<path d="M159.954 115.458C159.954 115.458 161.445 117.522 165.006 117.98C167.082 118.269 169.196 118.113 171.207 117.522C171.207 117.522 168.219 120.148 165.006 119.638C161.793 119.129 159.954 115.458 159.954 115.458Z" fill="#263238" stroke="#263238" stroke-linecap="round" stroke-linejoin="round"/>
<path d="M162.993 102.489C162.735 102.273 162.533 101.997 162.405 101.686C162.277 101.374 162.226 101.037 162.257 100.701" stroke="#263238" stroke-linecap="round" stroke-linejoin="round"/>
<path d="M169.116 103.231L169.219 101.65" stroke="#263238" stroke-linecap="round" stroke-linejoin="round"/>
<path d="M174.168 104.915C174.574 104.622 174.93 104.264 175.22 103.856" stroke="#263238" stroke-linecap="round" stroke-linejoin="round"/>
<path d="M160.231 111.173C160.231 111.173 159.012 112.07 159.012 112.702" stroke="#263238" stroke-linecap="round" stroke-linejoin="round"/>
<path d="M163.329 115.328L163.012 116.38" stroke="#263238" stroke-linecap="round" stroke-linejoin="round"/>
<path d="M171.207 114.812L171.116 116.696" stroke="#263238" stroke-linecap="round" stroke-linejoin="round"/>
<path d="M131.81 48.562H92.1554C91.8131 48.562 91.4849 48.4261 91.2429 48.1841C91.0009 47.9421 90.865 47.6139 90.865 47.2716C90.865 46.9294 91.0009 46.6012 91.2429 46.3592C91.4849 46.1172 91.8131 45.9812 92.1554 45.9812H131.81C132.152 45.9812 132.48 46.1172 132.722 46.3592C132.964 46.6012 133.1 46.9294 133.1 47.2716C133.1 47.4411 133.067 47.6089 133.002 47.7654C132.937 47.922 132.842 48.0643 132.722 48.1841C132.603 48.3039 132.46 48.399 132.304 48.4638C132.147 48.5287 131.979 48.562 131.81 48.562Z" fill="#6E6E6E" stroke="#263238" stroke-linecap="round" stroke-linejoin="round"/>
<path d="M104.84 45.936H92.1555C91.8072 45.936 91.4733 46.0744 91.227 46.3206C90.9808 46.5668 90.8425 46.9008 90.8425 47.249C90.8425 47.5973 90.9808 47.9312 91.227 48.1775C91.4733 48.4237 91.8072 48.562 92.1555 48.562H104.84V45.936Z" fill="#8B5FD9" stroke="#263238" stroke-linecap="round" stroke-linejoin="round"/>
<path d="M282.763 158.648H29.0989V259.539H282.763V158.648Z" fill="#CFCFCF" stroke="#263238" stroke-linecap="round" stroke-linejoin="round"/>
<path d="M282.763 158.648H29.0989V162.726H282.763V158.648Z" fill="#263238" stroke="#263238" stroke-linecap="round" stroke-linejoin="round"/>
<path d="M194.699 166.939H117.157V253.655H194.699V166.939Z" fill="#CFCFCF" stroke="#263238" stroke-linecap="round" stroke-linejoin="round"/>
<path d="M191.479 170.539H120.377V250.048H191.479V170.539Z" fill="#CFCFCF" stroke="#263238" stroke-linecap="round" stroke-linejoin="round"/>
<path d="M155.928 170.629V250.294" stroke="#263238" stroke-linecap="round" stroke-linejoin="round"/>
<path d="M112.312 220.362H33.1186V253.513H112.312V220.362Z" fill="#A1A1A1" stroke="#263238" stroke-linecap="round" stroke-linejoin="round"/>
<path d="M112.312 165.068H33.1186V198.219H112.312V165.068Z" fill="#A1A1A1" stroke="#263238" stroke-linecap="round" stroke-linejoin="round"/>
<path d="M279.544 165.068H200.351V207.278H279.544V165.068Z" fill="#A1A1A1" stroke="#263238" stroke-linecap="round" stroke-linejoin="round"/>
<path d="M279.544 211.297H200.351V253.507H279.544V211.297Z" fill="#CFCFCF" stroke="#263238" stroke-linecap="round" stroke-linejoin="round"/>
<path d="M251.419 229.995H228.475V234.815H251.419V229.995Z" fill="#263238" stroke="#263238" stroke-linecap="round" stroke-linejoin="round"/>
<path d="M83.587 206.877H60.6433V211.697H83.587V206.877Z" fill="#263238" stroke="#263238" stroke-linecap="round" stroke-linejoin="round"/>
<path d="M287.512 153.009H24.3502V159.667H287.512V153.009Z" fill="#CFCFCF" stroke="#263238" stroke-linecap="round" stroke-linejoin="round"/>
<path d="M270.969 194.373H206.829V207.284H270.969V194.373Z" fill="#263238" stroke="#263238" stroke-linecap="round" stroke-linejoin="round"/>
<path d="M267.949 202.948C267.949 202.484 254.716 202.109 238.399 202.109C222.081 202.109 208.848 202.484 208.848 202.948C208.848 203.413 222.081 203.793 238.399 203.793C254.716 203.793 267.949 203.413 267.949 202.948Z" fill="#CFCFCF" stroke="#263238" stroke-linecap="round" stroke-linejoin="round"/>
<path d="M40.4869 167.268H33.9832V198.006H40.4869V167.268Z" fill="#CFCFCF" stroke="#263238" stroke-linecap="round" stroke-linejoin="round"/>
<path d="M48.0035 167.268H41.4998V198.006H48.0035V167.268Z" fill="#CFCFCF" stroke="#263238" stroke-linecap="round" stroke-linejoin="round"/>
<path d="M111.75 167.268H105.247V198.006H111.75V167.268Z" fill="#CFCFCF" stroke="#263238" stroke-linecap="round" stroke-linejoin="round"/>
<path d="M104.885 167.268H98.3816V198.006H104.885V167.268Z" fill="#CFCFCF" stroke="#263238" stroke-linecap="round" stroke-linejoin="round"/>
<path d="M98.0203 167.268H91.5166V198.006H98.0203V167.268Z" fill="#CFCFCF" stroke="#263238" stroke-linecap="round" stroke-linejoin="round"/>
<path d="M91.1552 167.268H84.6515V198.006H91.1552V167.268Z" fill="#CFCFCF" stroke="#263238" stroke-linecap="round" stroke-linejoin="round"/>
<path d="M84.2903 167.268H77.7866V198.006H84.2903V167.268Z" fill="#CFCFCF" stroke="#263238" stroke-linecap="round" stroke-linejoin="round"/>
<path d="M54.834 166.97L48.5782 168.749L56.9836 198.315L63.2394 196.537L54.834 166.97Z" fill="#CFCFCF" stroke="#263238" stroke-linecap="round" stroke-linejoin="round"/>
<path d="M84.3676 284.683C84.3676 284.683 98.7494 262.637 101.382 253.778C104.014 244.919 101.943 232.318 101.143 224.337C100.343 216.356 104.279 196.173 104.279 196.173C104.279 196.173 100.691 182.211 102.685 181.011C104.679 179.811 111.718 179.34 114.57 178.379C117.422 177.417 119.119 177.662 121.667 178.94C122.969 179.548 124.2 180.297 125.338 181.172L123.583 183.882L116.88 185.321L121.19 207.819C121.19 207.819 134.275 211.175 134.913 212.291C135.552 213.407 134.991 218.098 133.623 222.021C132.255 225.943 132.907 228.647 130.513 229.44C128.119 230.234 126.681 230.731 126.442 230.002C126.203 229.273 123.171 241.732 121.016 245.642C119.532 248.506 118.305 251.496 117.351 254.578C117.351 254.578 113.654 291.142 114.209 292" fill="white"/>
<path d="M84.3676 284.683C84.3676 284.683 98.7494 262.637 101.382 253.778C104.014 244.919 101.943 232.318 101.143 224.337C100.343 216.356 104.279 196.173 104.279 196.173C104.279 196.173 100.691 182.211 102.685 181.011C104.679 179.811 111.718 179.34 114.57 178.379C117.422 177.417 119.119 177.662 121.667 178.94C122.969 179.548 124.2 180.297 125.338 181.172L123.584 183.882L116.88 185.321L121.19 207.819C121.19 207.819 134.275 211.175 134.913 212.291C135.552 213.407 134.991 218.098 133.623 222.021C132.255 225.943 132.907 228.647 130.513 229.44C128.119 230.234 126.681 230.731 126.442 230.002C126.203 229.273 123.171 241.732 121.016 245.642C119.532 248.506 118.305 251.496 117.351 254.578C117.351 254.578 113.654 291.142 114.209 292" stroke="#263238" stroke-linecap="round" stroke-linejoin="round"/>
<path d="M116.641 188.863C116.641 188.863 110.834 187.024 109.995 186.218C110.069 187.725 110.556 189.182 111.402 190.431C112.808 192.483 112.589 196.696 112.589 196.696L120.912 212.471L125.971 231.021C126.222 230.26 126.39 229.853 126.435 230.002C126.674 230.718 128.113 230.24 130.507 229.44C132.9 228.64 132.262 225.93 133.616 222.021C134.284 220.066 134.753 218.049 135.017 216.001V212.607C134.985 212.498 134.944 212.392 134.894 212.291C134.249 211.175 121.17 207.819 121.17 207.819L117.828 190.263L116.641 188.863Z" fill="#263238" stroke="#263238" stroke-linecap="round" stroke-linejoin="round"/>
<path d="M125.674 220.782L128.126 215.691" stroke="#263238" stroke-linecap="round" stroke-linejoin="round"/>
<path d="M107.834 184.856C109.588 186.324 111.584 187.476 113.731 188.263" stroke="#263238" stroke-linecap="round" stroke-linejoin="round"/>
<path d="M243.96 265.372C243.96 265.372 217.888 242.145 217.397 241.209C216.907 240.274 205.254 210.813 203.235 205.839C201.215 200.864 197.763 199.819 196.137 197.638C194.512 195.457 190.976 186.024 190.066 181.617C189.156 177.211 190.124 173.578 181.678 173.468C173.232 173.359 177.304 172.378 174.349 172.823C171.394 173.268 170.194 176.217 170.194 176.217L178.497 175.185L180.091 175.83C181.685 176.475 181.788 178.733 181.788 178.733C181.788 178.733 183.266 194.096 183.537 197.102C183.807 200.109 185.575 213.065 185.575 213.065C185.575 213.065 175.065 209.394 174.187 208.955C173.31 208.516 170.361 212.233 169.432 215.459C168.503 218.685 170.961 220.62 173.258 223.659C175.555 226.698 179.601 226.834 179.601 226.834L197.189 245.584L218.184 285.464" fill="white"/>
<path d="M243.96 265.372C243.96 265.372 217.888 242.145 217.397 241.209C216.907 240.274 205.254 210.813 203.235 205.839C201.215 200.864 197.763 199.819 196.137 197.638C194.512 195.457 190.976 186.024 190.066 181.617C189.156 177.211 190.124 173.578 181.678 173.468C173.232 173.359 177.304 172.378 174.349 172.823C171.394 173.268 170.194 176.217 170.194 176.217L178.497 175.185L180.091 175.83C181.685 176.475 181.788 178.733 181.788 178.733C181.788 178.733 183.266 194.096 183.537 197.102C183.807 200.109 185.575 213.065 185.575 213.065C185.575 213.065 175.065 209.394 174.187 208.955C173.31 208.516 170.361 212.233 169.432 215.459C168.503 218.685 170.961 220.62 173.258 223.659C175.555 226.698 179.601 226.834 179.601 226.834L197.189 245.584L218.184 285.464" stroke="#263238" stroke-linecap="round" stroke-linejoin="round"/>
<path d="M185.317 199.825C184.361 197.566 183.635 195.216 183.149 192.812C183.33 194.747 183.478 196.322 183.549 197.09C183.801 199.825 185.285 210.82 185.55 212.768C186.104 212.426 186.563 212.2 186.563 212.2C187.153 210.855 187.464 209.404 187.479 207.935C187.511 205.393 186.995 203.232 185.317 199.825Z" fill="#263238" stroke="#263238" stroke-linecap="round" stroke-linejoin="round"/>
<path d="M184.885 224.466C185.104 223.492 183.64 215.878 183.478 214.846C183.388 214.272 184.375 213.51 185.253 212.949C183.466 212.304 174.981 209.342 174.2 208.955C173.42 208.568 170.374 212.233 169.445 215.459C168.516 218.685 170.974 220.62 173.271 223.659C175.568 226.698 179.614 226.834 179.614 226.834L180.401 227.673C182.736 226.24 184.795 224.879 184.885 224.466Z" fill="#263238" stroke="#263238" stroke-linecap="round" stroke-linejoin="round"/>
<path d="M181.523 177.572L184.93 207.761C185.01 208.478 184.802 209.197 184.352 209.761C183.902 210.325 183.247 210.687 182.53 210.768L120.074 217.794C119.356 217.874 118.636 217.666 118.071 217.217C117.507 216.767 117.143 216.111 117.06 215.394L113.667 185.205C113.626 184.849 113.657 184.488 113.756 184.144C113.855 183.8 114.021 183.479 114.245 183.199C114.468 182.919 114.745 182.686 115.059 182.513C115.372 182.34 115.717 182.231 116.073 182.192L178.523 175.172C179.239 175.094 179.957 175.303 180.519 175.752C181.081 176.202 181.442 176.856 181.523 177.572Z" fill="#8B5FD9" stroke="#263238" stroke-linecap="round" stroke-linejoin="round"/>
<path d="M130.863 188.02L123.817 188.813L124.643 196.155L131.689 195.362L130.863 188.02Z" fill="#263238" stroke="#263238" stroke-linecap="round" stroke-linejoin="round"/>
<path d="M132.48 202.402L125.434 203.195L126.26 210.536L133.307 209.743L132.48 202.402Z" fill="#263238" stroke="#263238" stroke-linecap="round" stroke-linejoin="round"/>
<path d="M124.645 196.157L117.304 196.983L118.097 204.03L125.438 203.203L124.645 196.157Z" fill="#263238" stroke="#263238" stroke-linecap="round" stroke-linejoin="round"/>
<path d="M139.027 194.533L131.685 195.359L132.478 202.406L139.82 201.58L139.027 194.533Z" fill="#263238" stroke="#263238" stroke-linecap="round" stroke-linejoin="round"/>
<path d="M167.2 201.864C167.093 200.913 166.706 200.015 166.089 199.283C165.471 198.552 164.651 198.02 163.731 197.755C162.811 197.49 161.833 197.503 160.921 197.794C160.009 198.085 159.204 198.639 158.607 199.388C158.011 200.136 157.649 201.045 157.569 201.999C157.489 202.952 157.693 203.909 158.156 204.746C158.619 205.584 159.321 206.266 160.171 206.705C161.022 207.144 161.984 207.321 162.935 207.213C164.21 207.069 165.375 206.424 166.174 205.421C166.974 204.418 167.343 203.139 167.2 201.864Z" fill="#263238" stroke="#263238" stroke-linecap="round" stroke-linejoin="round"/>
<path d="M179.646 182.54C179.538 181.59 179.151 180.692 178.533 179.962C177.915 179.231 177.095 178.7 176.175 178.436C175.256 178.171 174.279 178.185 173.367 178.476C172.456 178.767 171.651 179.321 171.055 180.069C170.458 180.817 170.097 181.725 170.016 182.678C169.935 183.631 170.139 184.587 170.601 185.425C171.063 186.262 171.764 186.944 172.613 187.384C173.463 187.823 174.424 188.001 175.375 187.895C176.651 187.751 177.818 187.106 178.619 186.102C179.42 185.098 179.789 183.817 179.646 182.54Z" fill="#263238" stroke="#263238" stroke-linecap="round" stroke-linejoin="round"/>
<path d="M173.413 192.115C173.305 191.164 172.918 190.267 172.3 189.537C171.682 188.806 170.862 188.275 169.943 188.011C169.023 187.746 168.046 187.76 167.135 188.051C166.223 188.341 165.418 188.896 164.822 189.644C164.225 190.392 163.864 191.3 163.783 192.253C163.702 193.206 163.906 194.162 164.368 195C164.831 195.837 165.531 196.519 166.38 196.959C167.23 197.398 168.191 197.576 169.142 197.47C169.774 197.4 170.386 197.205 170.943 196.898C171.5 196.59 171.991 196.176 172.388 195.678C172.785 195.181 173.079 194.61 173.255 193.999C173.431 193.387 173.485 192.747 173.413 192.115Z" fill="#263238" stroke="#263238" stroke-linecap="round" stroke-linejoin="round"/>
<path d="M152.815 195.989L145.768 196.781L146.116 199.872L153.162 199.079L152.815 195.989Z" fill="#263238" stroke="#263238" stroke-linecap="round" stroke-linejoin="round"/>
<path d="M131.881 180.411C134.642 184.076 140.978 186.218 148.011 185.398C155.044 184.579 160.78 181.134 162.664 176.953L131.881 180.411ZM150.644 208.594C144.192 209.316 138.927 212.252 136.61 215.93L165.974 212.633C162.89 209.555 157.07 207.871 150.644 208.594Z" fill="white" stroke="#263238" stroke-linecap="round" stroke-linejoin="round"/>
<path d="M114.686 218.22C114.686 218.22 112.931 207.452 111.976 204.593C111.021 201.735 109.634 199.393 110.144 197.999C110.653 196.606 118.861 194.128 118.861 194.128C118.861 194.128 126.074 188.321 127.029 189.328C127.984 190.334 128.674 193.541 128.642 194.896C128.61 196.251 127.068 198.225 125.416 199.141C123.578 200.336 121.805 201.628 120.106 203.013C120.106 203.013 122.041 212.497 124.5 218.394C126.958 224.292 127.906 235.57 127.177 239.602C126.448 243.635 114.686 254.875 114.686 254.875" fill="white"/>
<path d="M114.686 218.22C114.686 218.22 112.931 207.452 111.976 204.593C111.021 201.735 109.634 199.393 110.144 197.999C110.653 196.606 118.861 194.128 118.861 194.128C118.861 194.128 126.074 188.321 127.029 189.328C127.984 190.334 128.674 193.541 128.642 194.896C128.61 196.251 127.068 198.225 125.416 199.141C123.578 200.336 121.805 201.628 120.106 203.013C120.106 203.013 122.041 212.497 124.5 218.394C126.958 224.292 127.906 235.57 127.177 239.602C126.448 243.635 114.686 254.875 114.686 254.875" stroke="#263238" stroke-linecap="round" stroke-linejoin="round"/>
<path d="M190.66 215.136C190.66 215.136 179.452 204.355 177.536 201.348C175.62 198.341 174.529 199.845 172.839 199.135C171.148 198.425 164.387 197.477 161.541 196.051C158.696 194.625 156.128 198.793 158.251 201.296C160.297 203.624 162.821 205.484 165.651 206.748C168.347 207.99 170.949 209.424 173.439 211.039C173.439 211.039 176.768 220.498 179.614 226.84C182.459 233.183 187.814 242.693 192.079 244.003C194.587 244.783 197.162 245.332 199.77 245.642" fill="white"/>
<path d="M190.66 215.136C190.66 215.136 179.452 204.355 177.536 201.348C175.62 198.341 174.529 199.845 172.839 199.135C171.148 198.425 164.387 197.477 161.541 196.051C158.696 194.625 156.128 198.793 158.251 201.296C160.297 203.624 162.821 205.484 165.651 206.748C168.347 207.99 170.949 209.424 173.439 211.039C173.439 211.039 176.768 220.498 179.614 226.84C182.459 233.183 187.814 242.693 192.079 244.003C194.587 244.783 197.162 245.332 199.77 245.642" stroke="#263238" stroke-linecap="round" stroke-linejoin="round"/>
<path d="M174.562 199.993C174.562 199.993 172.407 201.612 171.645 203.664" stroke="#263238" stroke-linecap="round" stroke-linejoin="round"/>
</svg>
