<svg width="401" height="309" viewBox="0 0 401 309" fill="none" xmlns="http://www.w3.org/2000/svg">
<path d="M401 262.575H0V262.775H401V262.575Z" fill="#EBEBEB"/>
<path d="M338.893 268.036H318.065V268.237H338.893V268.036Z" fill="#EBEBEB"/>
<path d="M253.159 269.48H246.19V269.68H253.159V269.48Z" fill="#EBEBEB"/>
<path d="M360.82 275.479H345.429V275.68H360.82V275.479Z" fill="#EBEBEB"/>
<path d="M55.1054 269.384H42.0729V269.584H55.1054V269.384Z" fill="#EBEBEB"/>
<path d="M88.9338 269.384H59.3961V269.584H88.9338V269.384Z" fill="#EBEBEB"/>
<path d="M236.863 272.768H161.731V272.969H236.863V272.768Z" fill="#EBEBEB"/>
<path d="M190.074 226.806H35.2159C34.0028 226.803 32.8401 226.32 31.983 225.462C31.1259 224.603 30.6445 223.439 30.6445 222.226V4.53932C30.6551 3.33313 31.1411 2.17982 31.9971 1.32989C32.853 0.479963 34.0097 0.00206626 35.2159 0H190.074C191.289 0 192.453 0.482473 193.312 1.34128C194.171 2.20009 194.654 3.36488 194.654 4.57942V222.226C194.654 223.441 194.171 224.606 193.312 225.464C192.453 226.323 191.289 226.806 190.074 226.806ZM35.2159 0.160401C34.056 0.162525 32.9442 0.62481 32.1248 1.44579C31.3053 2.26676 30.845 3.37935 30.845 4.53932V222.226C30.845 223.386 31.3053 224.499 32.1248 225.32C32.9442 226.141 34.056 226.603 35.2159 226.605H190.074C191.235 226.603 192.347 226.141 193.168 225.32C193.989 224.499 194.451 223.387 194.453 222.226V4.53932C194.451 3.37861 193.989 2.26605 193.168 1.4453C192.347 0.62455 191.235 0.162521 190.074 0.160401H35.2159Z" fill="#EBEBEB"/>
<path d="M363.555 226.806H208.688C207.474 226.803 206.311 226.32 205.453 225.462C204.594 224.604 204.111 223.44 204.109 222.226V4.53932C204.122 3.3324 204.609 2.1791 205.467 1.32939C206.324 0.479683 207.481 0.00204373 208.688 0H363.555C364.759 0.00417401 365.914 0.483004 366.768 1.33271C367.622 2.18241 368.107 3.33452 368.118 4.53932V222.226C368.118 223.438 367.638 224.6 366.782 225.459C365.927 226.317 364.766 226.801 363.555 226.806ZM208.688 0.160401C207.528 0.162521 206.415 0.62455 205.594 1.4453C204.774 2.26605 204.312 3.37861 204.309 4.53932V222.226C204.312 223.387 204.774 224.499 205.594 225.32C206.415 226.141 207.528 226.603 208.688 226.605H363.555C364.715 226.603 365.828 226.141 366.649 225.32C367.469 224.499 367.931 223.387 367.933 222.226V4.53932C367.931 3.37861 367.469 2.26605 366.649 1.4453C365.828 0.62455 364.715 0.162521 363.555 0.160401H208.688Z" fill="#EBEBEB"/>
<path d="M132.506 262.575H129.298L120.107 217.342L118.503 209.418L108.494 160.119H70.0867L49.2828 262.575H46.0748L67.2717 158.219C67.3492 157.866 67.5434 157.55 67.8229 157.322C68.1023 157.093 68.4506 156.965 68.8115 156.959H109.77C110.132 156.958 110.483 157.084 110.762 157.313C111.042 157.543 111.232 157.863 111.301 158.219L120.123 201.527L121.727 209.442L132.506 262.575Z" fill="#F0F0F0"/>
<path d="M194.14 262.575H190.932L170.08 160.111H131.728L121.711 209.434L120.107 217.334L110.925 262.575H107.717L118.503 209.41L120.107 201.519L128.929 158.211C129.007 157.858 129.201 157.542 129.481 157.313C129.76 157.085 130.108 156.957 130.469 156.951H171.427C171.79 156.956 172.14 157.082 172.421 157.311C172.702 157.54 172.897 157.857 172.975 158.211L194.14 262.575Z" fill="#F0F0F0"/>
<path d="M64.2723 145.018H175.935C178.487 145.018 180.935 146.032 182.74 147.836C184.545 149.641 185.559 152.089 185.559 154.642V154.978C185.557 155.912 185.185 156.806 184.525 157.466C183.865 158.126 182.971 158.497 182.038 158.499H58.137C57.2024 158.499 56.3061 158.129 55.6446 157.469C54.983 156.809 54.6103 155.913 54.6082 154.978V154.642C54.6081 153.374 54.8584 152.12 55.3446 150.949C55.8307 149.779 56.5432 148.716 57.4411 147.822C58.339 146.928 59.4047 146.22 60.577 145.739C61.7493 145.257 63.005 145.012 64.2723 145.018Z" fill="#F0F0F0"/>
<path d="M341.636 256.76H362.809V120.244H341.636V256.76Z" fill="#F0F0F0"/>
<path d="M203.355 262.575H358.743V256.76H203.355V262.575Z" fill="#F0F0F0"/>
<path d="M341.644 120.236H199.297V256.752H341.644V120.236Z" fill="#F5F5F5"/>
<path d="M333.319 131.536H207.622V142.467H333.319V131.536Z" fill="#F0F0F0"/>
<path d="M333.311 148.33H207.614V245.452H333.311V148.33Z" fill="#F0F0F0"/>
<path d="M235.275 137.751H305.658C305.857 137.751 306.047 137.673 306.188 137.533C306.33 137.394 306.41 137.204 306.412 137.006C306.401 136.809 306.318 136.624 306.179 136.485C306.04 136.346 305.854 136.263 305.658 136.252H235.275C235.076 136.254 234.886 136.334 234.747 136.475C234.607 136.616 234.529 136.807 234.529 137.006C234.529 137.104 234.548 137.201 234.586 137.291C234.623 137.382 234.678 137.464 234.747 137.533C234.817 137.602 234.899 137.657 234.989 137.695C235.08 137.732 235.177 137.751 235.275 137.751Z" fill="#F5F5F5"/>
<path d="M236.59 190.563H304.343C304.89 190.561 305.415 190.342 305.801 189.954C306.187 189.566 306.404 189.041 306.404 188.494C306.402 187.948 306.184 187.425 305.798 187.039C305.412 186.653 304.889 186.435 304.343 186.433H236.59C236.043 186.433 235.518 186.65 235.13 187.036C234.742 187.422 234.523 187.947 234.521 188.494C234.523 189.042 234.742 189.567 235.129 189.955C235.517 190.342 236.042 190.561 236.59 190.563Z" fill="#F5F5F5"/>
<path d="M332.197 71.9956L335.677 81.4913H332.197L310.895 71.9956H332.197Z" fill="#F5F5F5"/>
<path d="M335.677 71.9956V81.4913L314.376 71.9956H335.677Z" fill="#E6E6E6"/>
<path d="M248.66 71.9956L252.133 81.4913H248.66L227.359 71.9956H248.66Z" fill="#F5F5F5"/>
<path d="M252.133 71.9956V81.4913L230.832 71.9956H252.133Z" fill="#E6E6E6"/>
<path d="M351.316 65.2107H328.146V72.4367H351.316V65.2107Z" fill="#E6E6E6"/>
<path d="M212.955 72.4446L328.146 72.4446V65.2186L212.955 65.2186V72.4446Z" fill="#F5F5F5"/>
<path d="M306.982 41.6078C308.842 34.2615 294.446 24.2926 277.179 36.6113C295.505 41.1025 303.734 54.4077 306.982 41.6078Z" fill="#EBEBEB"/>
<path d="M299.9 42.089C295.569 31.4464 275.174 30.059 270.306 58.7866C289.65 50.2934 307.439 60.6392 299.9 42.089Z" fill="#E0E0E0"/>
<path d="M275.888 64.9621C272.087 61.1125 261.179 60.9521 236.782 65.1866C256.143 66.2292 282.521 71.6989 275.888 64.9621Z" fill="#E0E0E0"/>
<path d="M310.871 65.4672C308.393 63.8151 317.456 62.2993 329.935 65.1625C319.998 66.0447 315.186 68.3464 310.871 65.4672Z" fill="#E0E0E0"/>
<path d="M297.742 41.9286C302.137 33.8524 326.342 36.5632 322.34 60.174C307.719 51.6969 290.091 56.0036 297.742 41.9286Z" fill="#E0E0E0"/>
<path d="M289.362 65.2106H308.361L309.796 52.3545H287.934L289.362 65.2106Z" fill="#E6E6E6"/>
<path d="M287.717 54.6562H310.013C310.389 54.6562 310.751 54.5067 311.017 54.2404C311.283 53.9742 311.433 53.6132 311.433 53.2367C311.433 52.8602 311.283 52.4991 311.017 52.2329C310.751 51.9667 310.389 51.8171 310.013 51.8171H287.717C287.341 51.8171 286.98 51.9667 286.714 52.2329C286.447 52.4991 286.298 52.8602 286.298 53.2367C286.298 53.6132 286.447 53.9742 286.714 54.2404C286.98 54.5067 287.341 54.6562 287.717 54.6562Z" fill="#E6E6E6"/>
<path d="M43.9978 122.024L180.899 122.024V18.7188L43.9978 18.7188V122.024Z" fill="#E6E6E6"/>
<path d="M41.5837 122.024L178.485 122.024V18.7188L41.5837 18.7188V122.024Z" fill="#F5F5F5"/>
<path d="M174.138 118.335V22.408L45.9144 22.408V118.335L174.138 118.335Z" fill="#FAFAFA"/>
<path d="M133.974 118.335L152.123 22.408H86.0868L67.9375 118.335H133.974Z" fill="white"/>
<path d="M47.7432 118.335L47.7432 22.408H45.9146L45.9146 118.335H47.7432Z" fill="#E6E6E6"/>
<path d="M43.3721 101.132L176.689 101.132V96.176L43.3721 96.176V101.132Z" fill="#F5F5F5"/>
<g opacity="0.9">
<path d="M177.057 24.7817H39.9716V32.4007H177.057V24.7817Z" fill="#E0E0E0"/>
<path d="M177.057 33.5715H39.9714V41.1905H177.057V33.5715Z" fill="#E0E0E0"/>
<path d="M177.057 42.3616H39.9714V49.9806H177.057V42.3616Z" fill="#E0E0E0"/>
<path d="M177.057 51.1436H39.9714V58.7626H177.057V51.1436Z" fill="#E0E0E0"/>
<path d="M177.057 59.9333H39.9714V67.5523H177.057V59.9333Z" fill="#E0E0E0"/>
<path d="M177.057 68.7153H39.9714V76.3343H177.057V68.7153Z" fill="#E0E0E0"/>
<path d="M177.057 77.5051H39.9714V85.1241H177.057V77.5051Z" fill="#E0E0E0"/>
<path d="M177.057 86.2952H39.9714V93.9142H177.057V86.2952Z" fill="#E0E0E0"/>
</g>
<path d="M325.66 120.236H288.479L287.437 93.9221H324.625L325.66 120.236Z" fill="#E0E0E0"/>
<path d="M321.939 120.236H280.828L284.558 88.5889H325.66L321.939 120.236Z" fill="#EBEBEB"/>
<path d="M283.042 118.263L286.298 90.5618H323.455L320.19 118.263H283.042Z" fill="#FAFAFA"/>
<path opacity="0.6" d="M294.655 120.236H265.238L264.42 99.4238H293.829L294.655 120.236Z" fill="#E0E0E0"/>
<path d="M291.663 120.236H259.319L262.013 97.3467H294.358L291.663 120.236Z" fill="#E0E0E0"/>
<path d="M261.532 118.263L263.754 99.3276H292.145L289.923 118.263H261.532Z" fill="#F0F0F0"/>
<path d="M200.5 298.793C286.38 298.793 356 294.729 356 289.715C356 284.701 286.38 280.636 200.5 280.636C114.62 280.636 45.0002 284.701 45.0002 289.715C45.0002 294.729 114.62 298.793 200.5 298.793Z" fill="#F5F5F5"/>
<path d="M334.121 269.961H151.49L150.824 191.068C150.796 189.224 151.139 187.392 151.832 185.682C152.526 183.972 153.556 182.419 154.861 181.115C156.167 179.811 157.721 178.783 159.432 178.092C161.142 177.4 162.974 177.059 164.819 177.09H330.881C332.853 177.054 334.808 177.45 336.611 178.248C338.413 179.047 340.02 180.23 341.318 181.714C342.617 183.198 343.576 184.947 344.128 186.84C344.68 188.733 344.812 190.723 344.515 192.672L334.121 269.961Z" fill="#BBA6E0"/>
<path d="M342.847 180.402C341.347 178.714 339.503 177.366 337.439 176.449C335.375 175.532 333.139 175.067 330.881 175.085H319.998V174.283H330.881C333.255 174.267 335.605 174.76 337.773 175.728C339.941 176.696 341.876 178.118 343.449 179.897L342.847 180.402Z" fill="#BBA6E0"/>
<path d="M315.459 174.282H309.941V175.084H315.459V174.282Z" fill="#BBA6E0"/>
<path opacity="0.1" d="M334.121 269.961H151.49L150.824 191.068C150.796 189.224 151.139 187.392 151.832 185.682C152.526 183.972 153.556 182.419 154.861 181.115C156.167 179.811 157.721 178.783 159.432 178.092C161.142 177.4 162.974 177.059 164.819 177.09H330.881C332.853 177.054 334.808 177.45 336.611 178.248C338.413 179.047 340.02 180.23 341.318 181.714C342.617 183.198 343.576 184.947 344.128 186.84C344.68 188.733 344.812 190.723 344.515 192.672L334.121 269.961Z" fill="white"/>
<path d="M329.622 187.387L321.025 255.726L334.153 269.961L344.579 192.672C345.006 189.626 344.411 186.523 342.887 183.85C339.543 178.116 330.424 180.61 329.622 187.387Z" fill="#BBA6E0"/>
<path d="M178.285 275.575L164.996 220.71C164.414 218.443 163.096 216.434 161.247 214.998C159.399 213.562 157.126 212.782 154.786 212.779H136.589L141.16 275.575H178.285Z" fill="#BBA6E0"/>
<path opacity="0.2" d="M178.285 275.575L164.996 220.71C164.414 218.443 163.096 216.434 161.247 214.998C159.399 213.562 157.126 212.782 154.786 212.779H136.589L141.16 275.575H178.285Z" fill="black"/>
<path d="M163.464 275.575L149.685 220.71C149.082 218.445 147.75 216.441 145.894 215.008C144.039 213.574 141.764 212.791 139.42 212.778H127.069C126.326 212.756 125.586 212.892 124.899 213.176C124.212 213.461 123.593 213.888 123.083 214.429C122.573 214.97 122.184 215.613 121.94 216.315C121.697 217.018 121.605 217.764 121.671 218.505L126.339 275.575H163.464Z" fill="#BBA6E0"/>
<path d="M173.136 186.425C172.843 186.744 172.455 186.96 172.029 187.042C171.327 187.186 170.664 187.482 170.088 187.908C169.821 188.097 169.611 188.355 169.483 188.655C169.354 188.955 169.311 189.286 169.358 189.609C169.527 190.322 170.281 190.916 170.217 191.638C170.152 192.36 169.471 192.737 168.869 193.138C168.428 193.41 168.03 193.748 167.69 194.14C167.529 194.32 167.41 194.533 167.34 194.765C167.271 194.996 167.254 195.24 167.289 195.479C167.375 195.83 167.562 196.148 167.827 196.394C168.318 196.843 168.911 197.166 169.555 197.337C170.199 197.507 170.874 197.519 171.524 197.372C172.145 197.248 172.725 196.969 173.21 196.561C173.695 196.153 174.07 195.629 174.299 195.038C174.33 194.9 174.387 194.77 174.467 194.653C174.682 194.438 174.966 194.305 175.269 194.276C176.758 194.06 178.271 194.06 179.76 194.276C180.236 194.357 180.721 194.357 181.196 194.276C181.707 194.121 182.161 193.82 182.503 193.41C182.75 193.199 182.933 192.924 183.032 192.616C183.131 192.307 183.142 191.977 183.065 191.662C182.792 190.964 181.854 190.643 180.995 190.571C180.418 190.523 179.72 190.515 179.391 190.098C179.063 189.681 179.391 189.007 179.873 188.638C180.408 188.345 180.899 187.977 181.332 187.548C181.533 187.268 181.65 186.937 181.669 186.593C181.712 186.274 181.641 185.951 181.469 185.679C181.081 185.296 180.575 185.055 180.033 184.997C179.559 184.856 179.058 184.834 178.573 184.933C178.23 185.069 177.907 185.25 177.611 185.47C177.303 185.692 176.922 185.79 176.544 185.743C175.967 185.607 175.742 185.013 175.51 184.564C175.178 184.04 174.686 183.637 174.106 183.417C173.665 183.241 172.735 182.872 172.31 183.233C172.23 183.314 172.176 183.415 172.151 183.526C172.127 183.637 172.135 183.752 172.173 183.858C172.375 184.317 172.645 184.741 172.975 185.118C173.142 185.287 173.248 185.508 173.277 185.744C173.306 185.98 173.257 186.22 173.136 186.425Z" fill="#BBA6E0"/>
<path opacity="0.5" d="M176.552 199.906C176.632 199.875 176.704 199.827 176.765 199.766C176.826 199.705 176.873 199.633 176.905 199.554C176.914 199.476 176.907 199.398 176.885 199.324C176.863 199.249 176.826 199.18 176.777 199.12C176.585 198.893 176.351 198.705 176.087 198.567C175.623 198.264 175.078 198.108 174.523 198.118C174.291 198.132 174.065 198.203 173.867 198.324C173.668 198.446 173.502 198.615 173.384 198.816C173.088 199.385 173.481 199.674 173.922 199.971C174.328 200.189 174.784 200.299 175.246 200.287C175.707 200.276 176.157 200.145 176.552 199.906Z" fill="#BBA6E0"/>
<path opacity="0.5" d="M170.634 202.537C170.542 202.594 170.467 202.674 170.417 202.77C170.39 202.858 170.39 202.953 170.417 203.042C170.447 203.173 170.513 203.293 170.61 203.387C170.673 203.477 170.759 203.548 170.859 203.593C170.959 203.638 171.07 203.655 171.179 203.644C171.308 203.614 171.429 203.559 171.536 203.48C171.642 203.401 171.731 203.301 171.796 203.187C171.887 203.086 171.937 202.956 171.937 202.822C171.937 202.687 171.887 202.557 171.796 202.457C171.532 202.104 171.043 202.264 170.634 202.537Z" fill="#BBA6E0"/>
<path opacity="0.5" d="M315.186 193.418C315.543 193.386 315.889 193.278 316.201 193.103C316.514 192.927 316.785 192.688 316.999 192.4C317.135 192.107 317.206 191.788 317.206 191.465C317.206 191.142 317.135 190.823 316.999 190.531C316.511 189.378 315.79 188.337 314.881 187.475C313.362 185.725 311.354 184.468 309.115 183.866C308.159 183.645 307.163 183.665 306.217 183.924C305.27 184.183 304.403 184.673 303.693 185.35C301.849 187.291 303.116 188.919 304.495 190.627C306.941 193.603 311.521 194.164 315.186 193.418Z" fill="#BBA6E0"/>
<path opacity="0.5" d="M290.837 194.734C290.404 194.851 290.013 195.087 289.707 195.415C289.461 195.716 289.315 196.086 289.289 196.474C289.258 197.03 289.377 197.584 289.634 198.078C289.793 198.513 290.062 198.9 290.415 199.201C290.768 199.502 291.192 199.706 291.647 199.794C292.202 199.819 292.755 199.731 293.274 199.533C293.793 199.336 294.265 199.035 294.663 198.647C296.018 197.444 295.762 196.594 295.465 195.704C294.92 194.164 292.794 194.084 290.837 194.734Z" fill="#BBA6E0"/>
<path d="M314.119 275.575H126.339L123.749 243.952H316.173L314.119 275.575Z" fill="#BBA6E0"/>
<path d="M338.997 275.575H314.135L309.115 212.779H341.443C342.213 212.756 342.979 212.903 343.686 213.208C344.393 213.514 345.024 213.97 345.536 214.546C346.047 215.122 346.426 215.802 346.646 216.54C346.866 217.279 346.922 218.056 346.809 218.818L338.997 275.575Z" fill="#BBA6E0"/>
<path opacity="0.2" d="M338.997 275.575H314.135L309.115 212.779H341.443C342.213 212.756 342.979 212.903 343.686 213.208C344.393 213.514 345.024 213.97 345.536 214.546C346.047 215.122 346.426 215.802 346.646 216.54C346.866 217.279 346.922 218.056 346.809 218.818L338.997 275.575Z" fill="black"/>
<path d="M276.995 275.575L289.827 220.71C290.384 218.447 291.684 216.436 293.519 214.998C295.354 213.56 297.617 212.779 299.948 212.778H312.291C313.038 212.759 313.781 212.896 314.472 213.179C315.163 213.463 315.788 213.888 316.306 214.427C316.823 214.966 317.223 215.607 317.479 216.309C317.735 217.011 317.842 217.759 317.792 218.505L314.087 275.575H276.995Z" fill="#BBA6E0"/>
<path d="M282.136 253.624H267.419L268.189 232.5H287.084L282.136 253.624Z" fill="#BBA6E0"/>
<path opacity="0.2" d="M282.136 253.624H267.419L268.189 232.5H287.084L282.136 253.624Z" fill="black"/>
<path d="M267.427 253.624H149.172C147.905 253.631 146.681 253.166 145.738 252.319C144.795 251.473 144.201 250.306 144.071 249.045L143.269 237.175C143.229 236.565 143.316 235.952 143.527 235.377C143.737 234.802 144.065 234.277 144.491 233.837C144.916 233.397 145.429 233.05 145.996 232.82C146.563 232.59 147.173 232.48 147.784 232.5H268.189C268.806 232.484 269.42 232.595 269.994 232.824C270.567 233.054 271.088 233.398 271.524 233.836C271.96 234.273 272.302 234.795 272.53 235.369C272.758 235.943 272.866 236.558 272.848 237.175L272.383 249.045C272.297 250.297 271.736 251.468 270.815 252.319C269.893 253.171 268.681 253.638 267.427 253.624Z" fill="#BBA6E0"/>
<path opacity="0.2" d="M267.427 253.624H149.172C147.905 253.631 146.681 253.166 145.738 252.319C144.795 251.473 144.201 250.306 144.071 249.045L143.269 237.175C143.229 236.565 143.316 235.952 143.527 235.377C143.737 234.802 144.065 234.277 144.491 233.837C144.916 233.397 145.429 233.05 145.996 232.82C146.563 232.59 147.173 232.48 147.784 232.5H268.189C268.806 232.484 269.42 232.595 269.994 232.824C270.567 233.054 271.088 233.398 271.524 233.836C271.96 234.273 272.302 234.795 272.53 235.369C272.758 235.943 272.866 236.558 272.848 237.175L272.383 249.045C272.297 250.297 271.736 251.468 270.815 252.319C269.893 253.171 268.681 253.638 267.427 253.624Z" fill="white"/>
<path d="M307.254 287.373H310.639V275.575H304.928L307.254 287.373Z" fill="#263238"/>
<path d="M332.132 287.373H335.517V275.575H329.814L332.132 287.373Z" fill="#263238"/>
<path d="M158.082 287.373H154.698V275.575H160.4L158.082 287.373Z" fill="#263238"/>
<path d="M133.204 287.373H129.82V275.575H135.522L133.204 287.373Z" fill="#263238"/>
<path d="M260.771 156.214C259.672 158.9 258.493 161.603 257.33 164.29C256.167 166.976 254.972 169.655 253.769 172.31L250.224 180.298C249.077 182.944 247.874 185.591 246.848 188.125L246.383 189.28C245.925 190.407 245.12 191.359 244.085 191.996C243.049 192.634 241.836 192.924 240.624 192.825C239.7 192.734 238.77 192.693 237.841 192.705C236.944 192.72 236.049 192.8 235.163 192.945C234.264 193.085 233.38 193.311 232.524 193.619C232.084 193.772 231.653 193.948 231.233 194.148C231.016 194.244 230.808 194.341 230.607 194.445L230.311 194.581L230.182 194.629H230.126C230.126 194.629 230.086 194.629 230.126 194.557C229.627 195.414 228.815 196.043 227.86 196.312C226.906 196.582 225.885 196.47 225.011 196.001C224.138 195.532 223.481 194.742 223.178 193.798C222.875 192.854 222.951 191.83 223.389 190.94C223.434 190.846 223.475 190.75 223.51 190.651L223.582 190.451L223.718 190.09C223.814 189.866 223.903 189.641 223.999 189.432C224.199 189.007 224.408 188.63 224.632 188.213C225.082 187.455 225.594 186.736 226.164 186.064C227.323 184.691 228.673 183.491 230.174 182.503C231.651 181.529 233.243 180.743 234.914 180.161C236.536 179.585 238.213 179.179 239.919 178.95L233.647 183.658C234.545 180.602 235.499 177.747 236.518 174.892L238.058 170.65L239.662 166.463C240.729 163.672 241.875 160.921 243.022 158.178C244.169 155.436 245.372 152.717 246.663 149.998C247.514 148.167 249.047 146.743 250.936 146.03C252.825 145.317 254.917 145.372 256.765 146.185C258.613 146.997 260.069 148.501 260.821 150.374C261.573 152.248 261.56 154.341 260.787 156.206L260.771 156.214Z" fill="#FFC3BD"/>
<path d="M248.772 146.63C254.491 139.139 271.084 138.762 284.606 141.689C287.525 142.307 290.227 143.694 292.431 145.706C294.635 147.718 296.261 150.282 297.141 153.134C303.605 174.571 295.705 211.086 281.999 221.304C266.039 233.205 240.865 225.795 233.125 215.024C227.608 207.341 231.329 190.908 238.475 180.185C238.715 168.484 243.231 153.888 248.772 146.63Z" fill="#BBA6E0"/>
<path opacity="0.4" d="M248.772 146.63C254.491 139.139 271.084 138.762 284.606 141.689C287.525 142.307 290.227 143.694 292.431 145.706C294.635 147.718 296.261 150.282 297.141 153.134C303.605 174.571 295.705 211.086 281.999 221.304C266.039 233.205 240.865 225.795 233.125 215.024C227.608 207.341 231.329 190.908 238.475 180.185C238.715 168.484 243.231 153.888 248.772 146.63Z" fill="black"/>
<path d="M276.891 140.927C271.694 137.375 269.167 128.015 268.237 122.321L257.851 138.361C261.099 142.074 262.15 142.138 256.656 147.183C252.165 151.297 270.001 151.049 276.963 146.156C277.376 145.854 277.711 145.457 277.939 144.999C278.168 144.541 278.283 144.035 278.276 143.523C278.269 143.011 278.139 142.509 277.898 142.057C277.657 141.606 277.312 141.218 276.891 140.927Z" fill="#FFC3BD"/>
<path opacity="0.2" d="M265.382 133.469C265.47 131.818 264.983 130.188 264.002 128.857L257.851 138.353C258.729 139.243 259.534 140.204 260.257 141.224C262.663 140.847 265.053 137.318 265.382 133.469Z" fill="black"/>
<path d="M241.867 112.513C241.17 119.506 242.774 125.28 243.327 131.584C248.636 129.563 246.759 110.628 246.759 110.628L241.867 112.513Z" fill="#263238"/>
<path d="M267.539 115.809C268.341 124.583 269.312 129.675 265.63 134.824C260.089 142.571 248.74 140.286 245.3 131.937C242.196 124.43 241.354 111.35 249.31 106.554C251.059 105.491 253.051 104.893 255.097 104.815C257.142 104.738 259.174 105.183 260.999 106.11C262.824 107.037 264.383 108.414 265.527 110.111C266.672 111.808 267.364 113.769 267.539 115.809Z" fill="#FFC3BD"/>
<path d="M260.875 108.109C256.063 111.799 247.778 114.991 247.778 114.991C247.778 114.991 249.27 112.488 249.382 111.149C243.094 112.328 240.343 116.057 240.343 116.057C240.343 116.057 238.01 110.732 244.113 104.027C248.123 99.5842 261.524 95.6625 264.901 102.969C270.266 100.434 275.864 107.267 273.009 112.593C270.154 117.918 264.123 118.616 263.81 130.966C260.602 130.654 258.549 125.352 258.549 125.352C261.404 124.093 263.2 117.188 262.864 114.67C261.661 114.935 259.198 110.155 260.875 108.109Z" fill="#263238"/>
<path d="M262.759 103.193C264.419 100.988 264.123 98.6459 263.457 96.4404C267.868 99.2715 267.218 104.444 262.759 103.193Z" fill="#263238"/>
<path d="M273.049 106.441L268.341 119.161C267.724 119.578 273.755 123.644 275.792 114.598C272.062 114.574 275.415 109.786 273.049 106.441Z" fill="#263238"/>
<path d="M263.77 143.446C264.575 141.211 265.242 138.929 265.767 136.613C266.751 135.306 267.326 133.738 267.419 132.105C267.78 128.095 264.5 123.877 264.756 120.42L261.644 126.267C261.395 126.091 261.126 125.945 260.842 125.834C257.073 124.278 251.283 126.684 249.045 128.288C237.288 127.365 247.505 135.353 244.875 146.878C242.621 156.775 253.52 155.636 254.9 171.588C256.522 169.816 258.027 167.941 259.407 165.974C265.342 161.258 264.572 158.251 263.601 154.513C263.497 154.088 263.385 153.655 263.281 153.214C263.16 152.171 262.968 151.161 262.775 150.134C262.631 147.86 262.97 145.58 263.77 143.446ZM263.393 143.317C262.862 144.793 262.533 146.333 262.414 147.897C262.11 146.087 262.058 144.243 262.262 142.419C262.767 139.917 264.042 138.714 265.205 137.318C264.703 139.347 264.098 141.349 263.393 143.317ZM260.185 164.819C262.655 160.913 263.393 157.938 263.393 155.275C264.219 158.451 264.532 161.025 260.193 164.819H260.185Z" fill="#263238"/>
<path d="M253.705 119.169C253.248 119.241 252.959 119.875 253.071 120.581L254.747 120.316C254.635 119.61 254.17 119.097 253.705 119.169Z" fill="#263238"/>
<path d="M245.717 120.428C245.252 120.5 244.963 121.134 245.075 121.84L246.751 121.575C246.639 120.869 246.214 120.356 245.717 120.428Z" fill="#263238"/>
<path d="M249.35 121.527C249.35 121.527 248.387 125.866 246.944 128.112C248.379 129.082 250.416 128.216 250.416 128.216L249.35 121.527Z" fill="#ED847E"/>
<path d="M257.033 114.918C256.991 114.989 256.928 115.044 256.854 115.079C256.78 115.113 256.697 115.124 256.616 115.111C256.096 115.022 255.561 115.057 255.057 115.213C254.553 115.369 254.092 115.642 253.713 116.009C253.676 116.05 253.631 116.084 253.582 116.107C253.532 116.131 253.478 116.145 253.423 116.148C253.368 116.151 253.312 116.143 253.26 116.125C253.208 116.107 253.16 116.078 253.119 116.041C253.078 116.004 253.045 115.96 253.021 115.91C252.997 115.86 252.983 115.806 252.98 115.751C252.977 115.696 252.985 115.641 253.004 115.589C253.022 115.537 253.05 115.489 253.087 115.448C253.558 114.976 254.135 114.623 254.77 114.419C255.404 114.216 256.079 114.167 256.736 114.277C256.792 114.285 256.845 114.303 256.893 114.332C256.941 114.36 256.983 114.398 257.017 114.443C257.05 114.487 257.074 114.538 257.088 114.592C257.102 114.646 257.105 114.703 257.097 114.758C257.088 114.816 257.066 114.87 257.033 114.918Z" fill="#263238"/>
<path d="M242.076 117.26C241.985 117.222 241.914 117.15 241.875 117.06C241.853 117.01 241.84 116.956 241.838 116.901C241.836 116.846 241.845 116.791 241.865 116.74C241.884 116.688 241.913 116.641 241.951 116.601C241.989 116.561 242.034 116.529 242.084 116.507C242.683 116.212 243.344 116.067 244.011 116.082C244.679 116.097 245.333 116.273 245.917 116.595C245.965 116.624 246.005 116.661 246.038 116.706C246.07 116.751 246.094 116.801 246.106 116.855C246.119 116.909 246.121 116.964 246.112 117.019C246.103 117.073 246.083 117.125 246.054 117.172C245.993 117.266 245.898 117.333 245.789 117.359C245.679 117.384 245.565 117.366 245.468 117.309C245.002 117.058 244.482 116.924 243.953 116.917C243.424 116.91 242.901 117.031 242.429 117.268C242.373 117.295 242.313 117.308 242.251 117.306C242.19 117.305 242.13 117.289 242.076 117.26Z" fill="#263238"/>
<path d="M272.159 120.709C271.707 122.851 270.46 124.742 268.67 126.002C266.32 127.606 264.395 125.625 264.42 122.858C264.42 120.356 265.687 116.515 268.341 116.025C270.996 115.536 272.68 118.046 272.159 120.709Z" fill="#FFC3BD"/>
<path opacity="0.2" d="M247.144 121.439C246.952 122.022 246.616 122.549 246.168 122.969C245.72 123.389 245.173 123.69 244.578 123.845C248.227 124.663 247.144 121.439 247.144 121.439Z" fill="black"/>
<path opacity="0.2" d="M252.037 120.693C252.42 121.163 252.913 121.53 253.473 121.764C254.033 121.998 254.641 122.09 255.245 122.032C252.462 123.684 252.037 120.693 252.037 120.693Z" fill="black"/>
<path d="M231.417 197.38C236.47 195.64 244.249 195.495 258.26 197.316C264.756 198.158 263.265 207.894 262.575 211.279C260.762 220.101 254.467 225.771 241.226 227.984C224.897 230.719 213.597 231.192 202.176 233.013C198.527 247.778 182.776 266.761 176.962 268.541C171.147 270.322 163.857 266.296 167.097 256.808C170.337 247.321 174.556 224.784 181.1 219.21C192.52 209.474 219.267 201.558 231.417 197.38Z" fill="white"/>
<path opacity="0.2" d="M205.168 232.58C212.209 231.578 219.371 230.976 227.856 229.941C228.373 223.322 229.281 216.74 230.575 210.228C217.823 213.099 208.905 220.269 205.168 232.58Z" fill="black"/>
<path d="M167.249 289.265C167.915 287.324 166.014 284.453 168.292 280.539C170.569 276.626 179.52 266.825 178.429 263.762C177.338 260.698 171.083 257.843 169.053 259.607C167.024 261.372 164.61 271.116 161.266 276.409C157.922 281.702 150.84 281.959 143.903 280.948C142.924 280.812 143.101 283.627 145.298 284.389C150.68 286.298 155.628 286.418 158.523 287.846C161.001 289.065 161.122 290.131 163.937 291.174C165.677 291.816 166.583 291.222 167.249 289.265Z" fill="#FFC3BD"/>
<path d="M256.4 197.292C276.04 197.035 285.536 202.906 287.22 209.627C289.626 219.315 288.303 227.552 276.458 231.778C261.925 236.951 245.982 233.278 235.034 235.13C234.385 250.096 222.635 269.344 217.254 271.148C211.872 272.953 203.877 268.887 205.168 259.263C206.459 249.639 205.505 231.489 213.517 221.304C223.822 208.231 244.65 197.468 256.4 197.292Z" fill="white"/>
<path opacity="0.08" d="M276.69 218.794C276.169 218.942 275.623 218.98 275.086 218.906C274.236 218.766 273.369 218.766 272.52 218.906C271.479 219.082 270.488 219.481 269.616 220.077C268.726 220.734 268.421 221.512 267.355 222.098C266.402 222.558 265.37 222.83 264.315 222.9C263.565 222.975 262.822 223.112 262.094 223.309C261.319 223.512 260.584 223.846 259.92 224.295C259.551 224.551 259.239 224.882 259.006 225.266C258.364 226.332 258.862 227.207 260.177 227.439C261.968 227.591 263.768 227.261 265.39 226.485C265.603 226.384 265.823 226.298 266.047 226.228C266.407 226.133 266.786 226.133 267.146 226.228C268.308 226.496 269.384 227.054 270.274 227.848C270.555 228.119 270.914 228.296 271.301 228.353C272.018 228.395 272.737 228.31 273.426 228.105C274.453 227.887 275.424 227.455 276.273 226.838C277.075 226.148 276.866 225.53 276.369 225.162C276.032 224.913 275.567 224.648 275.936 224.175C276.607 223.58 277.449 223.213 278.342 223.124C279.198 223.056 280.047 222.927 280.884 222.739C281.443 222.569 281.981 222.338 282.488 222.05C282.916 221.836 283.304 221.551 283.635 221.208C283.775 221.059 283.853 220.862 283.853 220.658C283.853 220.454 283.775 220.258 283.635 220.109C283.542 219.942 283.409 219.801 283.248 219.698C283.087 219.594 282.904 219.532 282.713 219.515C282.238 219.509 281.763 219.544 281.293 219.62C280.804 219.668 280.315 219.66 280.179 219.451C280.042 219.243 280.668 218.561 281.125 218.08C281.337 217.899 281.505 217.672 281.616 217.416C281.727 217.16 281.779 216.883 281.767 216.604C281.711 216.291 281.582 215.642 280.772 215.802C280.419 215.888 280.09 216.052 279.81 216.283C279.352 216.684 278.945 217.139 278.599 217.639C278.094 218.208 277.429 218.611 276.69 218.794Z" fill="#263238"/>
<path d="M214.8 291.928C214.936 289.875 212.33 287.573 213.509 283.226C214.687 278.879 220.727 267.042 218.874 264.379C217.021 261.717 210.244 260.602 208.745 262.831C207.245 265.061 207.486 275.102 205.649 281.093C203.812 287.084 197.076 289.177 190.09 290.043C189.112 290.164 190.09 292.818 192.336 292.987C198.03 293.42 202.834 292.233 205.97 292.85C208.689 293.38 209.081 294.366 212.073 294.631C213.95 294.791 214.671 293.973 214.8 291.928Z" fill="#FFC3BD"/>
<path d="M254.274 195.062C252.357 190.17 247.056 189.841 243.888 187.74C243.343 187.387 241.939 188.406 242.372 189.496C242.693 190.323 243.18 191.076 243.804 191.706C244.427 192.337 245.174 192.832 245.998 193.162C245.949 194.766 246.607 199.634 251.243 199.818C253.087 198.27 254.274 195.062 254.274 195.062Z" fill="#FFC3BD"/>
<path d="M227.375 184.677L222.058 190.876L229.925 197.388C229.925 197.388 236.959 192.689 232.973 186.914L227.375 184.677Z" fill="#FFC3BD"/>
<path d="M233.679 189.272C230.944 184.781 225.707 185.366 222.186 183.858C221.585 183.602 220.382 184.845 220.999 185.847C221.455 186.608 222.064 187.266 222.788 187.78C223.511 188.293 224.333 188.651 225.202 188.831C225.434 190.435 226.918 195.094 231.521 194.485C233.069 192.632 233.679 189.272 233.679 189.272Z" fill="#FFC3BD"/>
<path d="M220.342 199.113L221.617 200.267C222.309 200.891 223.207 201.236 224.139 201.236C225.071 201.236 225.969 200.891 226.661 200.267L229.925 197.372L222.058 190.876L219.748 194.164C219.231 194.921 219.006 195.84 219.116 196.75C219.225 197.66 219.66 198.499 220.342 199.113Z" fill="#FFC3BD"/>
<path d="M248.331 198.8C247.555 195.647 246.256 192.646 244.49 189.922C242.886 187.459 240.752 186.714 235.868 186.425C235.317 186.365 234.759 186.427 234.234 186.605C233.709 186.784 233.229 187.076 232.829 187.459L228.434 187.179C226.95 186.12 224.889 185.711 221.496 185.486C216.444 185.158 216.636 192.079 216.636 192.079C216.636 192.079 214.551 193.739 221.208 194.172L224.769 194.405C226.661 196.177 229.958 199.169 230.76 199.217C231.906 199.289 234.272 199.441 233.968 197.853C233.754 196.861 233.461 195.888 233.093 194.942L235.171 195.078H235.588C237.745 195.223 237.793 194.028 237.793 194.028C237.793 194.028 243.993 200.051 245.139 200.131C246.286 200.211 248.62 200.388 248.331 198.8Z" fill="#263238"/>
<path d="M222.793 190.233L216.145 189.569C215.722 189.527 215.345 189.836 215.303 190.259L215.296 190.323C215.254 190.746 215.563 191.123 215.986 191.165L222.633 191.829C223.057 191.871 223.434 191.562 223.476 191.139L223.482 191.075C223.525 190.652 223.216 190.275 222.793 190.233Z" fill="#BBA6E0"/>
<path d="M239.378 191.425L232.73 190.761C232.307 190.719 231.93 191.028 231.888 191.451L231.881 191.515C231.839 191.938 232.148 192.315 232.571 192.357L239.219 193.021C239.642 193.063 240.019 192.754 240.061 192.331L240.067 192.267C240.11 191.844 239.801 191.467 239.378 191.425Z" fill="#BBA6E0"/>
<path d="M293.412 154.585C293.572 156.294 293.676 157.793 293.749 159.397C293.821 161.001 293.861 162.605 293.885 164.153C293.885 167.361 293.885 170.521 293.652 173.777C293.467 177.08 293.086 180.368 292.514 183.626C292.21 185.372 291.816 187.101 291.335 188.807C290.777 190.782 290.013 192.693 289.057 194.509L288.856 194.886C288.368 195.794 287.652 196.559 286.779 197.107C283.454 199.106 279.836 200.57 276.056 201.446C272.694 202.272 269.277 202.859 265.831 203.203C262.468 203.539 259.132 203.713 255.822 203.724C252.491 203.749 249.161 203.599 245.845 203.275C244.921 203.184 244.06 202.763 243.422 202.088C242.784 201.412 242.412 200.529 242.374 199.601C242.336 198.673 242.634 197.763 243.215 197.038C243.795 196.312 244.618 195.822 245.532 195.656H245.669C248.66 195.102 251.796 194.533 254.82 193.899C257.843 193.266 260.867 192.584 263.794 191.798C265.254 191.405 266.697 190.996 268.109 190.563C269.52 190.13 270.892 189.633 272.215 189.135C274.597 188.28 276.851 187.1 278.912 185.631L276.634 188.229C276.982 187.286 277.251 186.315 277.436 185.326C277.644 184.147 277.845 182.864 277.973 181.533C278.102 180.201 278.206 178.822 278.27 177.426C278.334 176.031 278.39 174.603 278.414 173.176C278.414 170.313 278.414 167.401 278.358 164.482L278.23 160.095L278.061 155.796V155.588C277.994 153.584 278.708 151.633 280.054 150.147C281.399 148.661 283.27 147.758 285.271 147.627C287.271 147.497 289.244 148.151 290.771 149.449C292.298 150.748 293.259 152.59 293.452 154.585H293.412Z" fill="#FFC3BD"/>
<path opacity="0.5" d="M260.562 180.089C260.389 180.219 260.246 180.384 260.142 180.573C260.039 180.763 259.976 180.972 259.96 181.188C259.987 181.381 260.054 181.566 260.158 181.73C260.261 181.895 260.399 182.035 260.562 182.142C261.183 182.572 261.884 182.872 262.623 183.024C263.958 183.433 265.386 183.433 266.721 183.024C267.279 182.831 267.781 182.503 268.183 182.069C268.584 181.635 268.873 181.11 269.023 180.538C269.352 178.934 268.181 178.525 266.922 178.132C264.7 177.378 262.182 178.549 260.562 180.089Z" fill="#BBA6E0"/>
<path opacity="0.5" d="M262.254 176.616C262.339 176.584 262.416 176.535 262.481 176.471C262.546 176.408 262.597 176.332 262.631 176.247C262.644 176.169 262.639 176.089 262.616 176.012C262.594 175.936 262.555 175.866 262.503 175.806C262.311 175.56 262.071 175.355 261.797 175.205C261.324 174.883 260.765 174.71 260.193 174.708C259.95 174.718 259.714 174.788 259.504 174.911C259.294 175.034 259.118 175.207 258.99 175.413C258.669 175.999 259.078 176.312 259.527 176.624C259.944 176.859 260.414 176.981 260.892 176.98C261.37 176.978 261.839 176.853 262.254 176.616Z" fill="#BBA6E0"/>
<path opacity="0.5" d="M256.023 179.231C255.929 179.287 255.851 179.368 255.798 179.464C255.768 179.555 255.768 179.653 255.798 179.744C255.823 179.882 255.887 180.01 255.983 180.113C256.049 180.207 256.138 180.283 256.242 180.332C256.346 180.381 256.461 180.402 256.576 180.394C256.71 180.365 256.837 180.308 256.949 180.228C257.06 180.148 257.155 180.046 257.226 179.929C257.279 179.876 257.321 179.814 257.35 179.745C257.379 179.676 257.394 179.602 257.394 179.528C257.394 179.453 257.379 179.379 257.35 179.31C257.321 179.241 257.279 179.179 257.226 179.127C256.969 178.846 256.456 178.95 256.023 179.231Z" fill="#BBA6E0"/>
<path opacity="0.5" d="M245.324 164.33C245.324 164.241 245.306 164.152 245.27 164.071C245.234 163.989 245.181 163.916 245.115 163.856C245.045 163.818 244.967 163.795 244.887 163.788C244.807 163.781 244.726 163.791 244.65 163.816C244.355 163.91 244.082 164.063 243.848 164.266C243.376 164.601 243.016 165.07 242.813 165.613C242.734 165.843 242.714 166.089 242.755 166.328C242.795 166.568 242.896 166.793 243.046 166.984C243.487 167.49 243.92 167.217 244.369 166.912C244.739 166.602 245.022 166.201 245.189 165.748C245.357 165.295 245.403 164.806 245.324 164.33Z" fill="#BBA6E0"/>
<path opacity="0.5" d="M247.072 164.009C247.092 164.119 247.142 164.222 247.217 164.306C247.285 164.371 247.372 164.416 247.465 164.434C247.603 164.454 247.744 164.437 247.874 164.386C247.986 164.357 248.088 164.3 248.171 164.22C248.254 164.14 248.315 164.039 248.347 163.929C248.37 163.788 248.364 163.644 248.328 163.506C248.292 163.368 248.227 163.239 248.139 163.127C248.074 163.002 247.964 162.906 247.833 162.858C247.701 162.809 247.556 162.81 247.425 162.862C247.016 162.982 246.968 163.504 247.072 164.009Z" fill="#BBA6E0"/>
<path d="M252.157 202.946L244.081 204.213L242.661 194.084C242.661 194.084 249.302 191.678 250.986 195.03L252.157 202.946Z" fill="#FFC3BD"/>
<path d="M236.173 201.366L235.86 199.674C235.688 198.759 235.861 197.813 236.345 197.017C236.83 196.222 237.591 195.634 238.483 195.367L242.661 194.108L244.081 204.213L240.071 204.438C239.16 204.481 238.264 204.194 237.548 203.63C236.832 203.065 236.344 202.262 236.173 201.366Z" fill="#FFC3BD"/>
<path d="M248.428 101.75C247.853 102.069 247.205 102.234 246.547 102.226C245.89 102.218 245.246 102.039 244.679 101.706C244.111 101.373 243.641 100.898 243.314 100.328C242.987 99.7571 242.815 99.1111 242.814 98.4535C248.075 101.798 266.008 93.6896 264.901 102.937C251.692 103.618 251.708 99.9051 248.428 101.75Z" fill="#263238"/>
<path d="M312.355 190.988H302.731L301.929 191.991V211.776L302.731 212.779H312.355L313.157 211.776V191.991L312.355 190.988Z" fill="#263238"/>
<path d="M311.898 190.074H303.156C303.035 190.074 302.919 190.122 302.833 190.208C302.747 190.294 302.699 190.41 302.699 190.531C302.698 190.591 302.709 190.651 302.732 190.707C302.754 190.763 302.788 190.814 302.83 190.857C302.873 190.899 302.924 190.933 302.98 190.956C303.036 190.978 303.096 190.989 303.156 190.988H311.898C312.019 190.988 312.135 190.94 312.221 190.854C312.307 190.769 312.355 190.652 312.355 190.531C312.353 190.411 312.304 190.295 312.219 190.21C312.134 190.125 312.018 190.076 311.898 190.074Z" fill="#E0E0E0"/>
<path d="M310.526 200.805H308.585L309.756 195.945L304.551 202.962H306.5L305.329 207.814L310.526 200.805Z" fill="white"/>
<path d="M184.276 156.302V176.087L183.474 177.09H173.85L173.048 176.087V156.302L173.85 155.299H183.474L184.276 156.302Z" fill="#263238"/>
<path d="M183.025 154.385H174.307C174.186 154.387 174.071 154.436 173.986 154.521C173.901 154.606 173.852 154.722 173.85 154.842C173.85 154.963 173.898 155.08 173.984 155.165C174.069 155.251 174.186 155.299 174.307 155.299H183.025C183.084 155.299 183.143 155.287 183.198 155.264C183.253 155.241 183.303 155.207 183.345 155.165C183.387 155.122 183.42 155.072 183.442 155.016C183.464 154.961 183.475 154.902 183.474 154.842C183.474 154.722 183.427 154.607 183.343 154.522C183.259 154.436 183.144 154.387 183.025 154.385Z" fill="#E0E0E0"/>
<path d="M176.544 165.116L173.048 169.823V163.921L175.766 160.256L174.595 165.116H176.544Z" fill="white"/>
<path d="M184.276 164.105V170L182.696 172.125L183.867 167.273H181.926L184.276 164.105Z" fill="white"/>
<path d="M328.098 199.666L327.85 202.441L327.874 204.775V204.783L327.954 211.953L327.16 212.835L317.544 212.739L316.734 211.84L316.654 204.767L316.63 202.417L316.862 199.682L317.351 193.779L318.234 192.969L327.818 193.819L328.539 194.782L328.098 199.666Z" fill="#263238"/>
<path d="M327.489 192.977L318.707 192.175C318.654 192.171 318.601 192.177 318.551 192.193C318.5 192.209 318.454 192.235 318.414 192.27C318.373 192.304 318.34 192.346 318.316 192.393C318.292 192.44 318.278 192.491 318.274 192.544C318.265 192.651 318.299 192.758 318.368 192.84C318.437 192.923 318.535 192.975 318.643 192.985L327.417 193.787C327.524 193.796 327.63 193.762 327.713 193.693C327.795 193.624 327.847 193.525 327.858 193.418C327.867 193.311 327.833 193.205 327.764 193.122C327.695 193.039 327.596 192.987 327.489 192.977Z" fill="#E0E0E0"/>
<path d="M318.803 202.176L316.654 204.767L316.63 202.417L316.862 199.682L318.426 197.974L316.862 202.16L318.803 202.176Z" fill="white"/>
<path d="M327.85 202.441L327.874 204.775V204.783L324.906 208.359L326.021 204.053L324.08 204.037L328.098 199.666L327.85 202.441Z" fill="white"/>
<path d="M248.62 290.324C247.826 290.475 247.022 290.561 246.214 290.581C244.658 290.653 243.118 290.757 241.947 290.934C240.777 291.11 240.047 291.383 240.343 291.639C240.64 291.896 242.364 292.177 242.22 292.441C242.076 292.706 240.616 292.898 239.269 293.059C238.399 293.152 237.534 293.291 236.678 293.476C235.989 293.636 235.58 293.837 235.788 294.029C236.155 294.231 236.559 294.359 236.975 294.406C239.663 294.805 242.385 294.94 245.099 294.807C247.986 294.687 250.368 294.302 251.186 293.845C251.303 293.772 251.43 293.718 251.563 293.684C252.157 293.588 252.758 293.537 253.36 293.532C256.568 293.412 259.944 293.468 263.233 293.532C264.283 293.532 265.374 293.572 266.392 293.532C267.357 293.489 268.317 293.371 269.264 293.179C270.258 292.971 271.02 292.706 270.499 292.457C269.977 292.209 267.828 292.04 265.951 292.008C264.774 292.037 263.597 291.972 262.431 291.816C261.629 291.623 262.431 291.367 263.505 291.214C264.58 291.062 265.911 290.958 266.713 290.765C267.178 290.645 267.379 290.508 267.443 290.364C267.507 290.22 267.443 290.099 267.01 289.995C265.971 289.817 264.92 289.723 263.866 289.715C262.807 289.666 261.677 289.626 260.658 289.715C259.856 289.763 259.231 289.859 258.549 289.939C257.77 290.036 256.984 290.073 256.199 290.051C255.419 290.026 254.65 289.86 253.929 289.562C252.919 289.298 251.884 289.139 250.842 289.089C249.531 288.953 248.211 288.929 246.896 289.017C246.487 289.081 246.471 289.185 246.607 289.273C247.181 289.501 247.774 289.675 248.379 289.795C249.133 289.987 249.165 290.172 248.62 290.324Z" fill="#BBA6E0"/>
<path d="M265.943 280.7H252.959C251.47 280.7 250.042 281.291 248.989 282.344C247.936 283.397 247.345 284.825 247.345 286.314C247.345 287.803 247.936 289.231 248.989 290.284C250.042 291.336 251.47 291.928 252.959 291.928H265.943C267.432 291.928 268.86 291.336 269.913 290.284C270.966 289.231 271.557 287.803 271.557 286.314C271.557 284.825 270.966 283.397 269.913 282.344C268.86 281.291 267.432 280.7 265.943 280.7Z" fill="#263238"/>
<path d="M262.912 283.298V285.239L259.511 284.068L264.427 289.273V287.332L267.836 288.503L262.912 283.298Z" fill="white"/>
<path d="M256.359 282.857C257.038 283.525 257.502 284.379 257.695 285.312C257.888 286.244 257.8 287.212 257.442 288.095C257.084 288.977 256.473 289.733 255.685 290.268C254.897 290.802 253.969 291.091 253.017 291.098C252.065 291.104 251.132 290.829 250.337 290.305C249.542 289.782 248.92 289.034 248.55 288.157C248.18 287.28 248.078 286.313 248.257 285.378C248.437 284.444 248.89 283.583 249.558 282.905C250.454 281.998 251.674 281.483 252.949 281.474C254.224 281.465 255.451 281.963 256.359 282.857Z" fill="#E0E0E0"/>
<path d="M255.758 289.033C255.553 289.237 255.276 289.351 254.988 289.351C254.699 289.351 254.422 289.237 254.218 289.033L253.167 287.998C252.964 287.794 252.849 287.517 252.849 287.228C252.849 286.94 252.964 286.663 253.167 286.458C253.269 286.356 253.389 286.275 253.522 286.22C253.655 286.165 253.797 286.136 253.941 286.136C254.085 286.136 254.228 286.165 254.36 286.22C254.493 286.275 254.614 286.356 254.715 286.458L255.758 287.485C255.962 287.691 256.077 287.969 256.077 288.259C256.077 288.549 255.962 288.827 255.758 289.033Z" fill="#263238"/>
<path d="M136.396 245.981H24.2123L19.9778 172.927H132.162L136.396 245.981Z" fill="#263238"/>
<path d="M116.298 234.072H114.068L111.213 184.837H113.443L116.298 234.072Z" fill="black"/>
<path d="M136.396 245.981H134.744L130.51 172.927H132.162L136.396 245.981Z" fill="black"/>
<path opacity="0.1" d="M114.068 234.072H40.0758L37.2207 184.837H111.213L114.068 234.072Z" fill="white"/>
<path opacity="0.3" d="M69.9584 245.981H88.3161L84.8114 210.79H66.4536L69.9584 245.981Z" fill="black"/>
<path d="M76.7515 252.542H58.2333L65.0663 209.45H83.5845L76.7515 252.542Z" fill="#263238"/>
<path d="M76.7513 252.542H78.1869L85.02 209.45H83.5844L76.7513 252.542Z" fill="black"/>
<path d="M50.093 231.754H42.6905L42.5782 230.968H49.9807L50.093 231.754Z" fill="black"/>
<path d="M50.0046 230.31H42.6102L42.4979 229.524H49.8924L50.0046 230.31Z" fill="black"/>
<path d="M49.9244 228.859H42.5219L42.4097 228.081H49.8121L49.9244 228.859Z" fill="black"/>
<path d="M109.144 252.55H45.0243C44.0156 252.549 43.0399 252.91 42.2736 253.566C41.5073 254.222 41.0009 255.13 40.8459 256.127L34.1572 299.515C33.9871 300.617 34.0575 301.743 34.3635 302.815C34.6695 303.888 35.2038 304.881 35.9299 305.728C36.6559 306.574 37.5565 307.253 38.5698 307.719C39.5831 308.185 40.6851 308.425 41.8002 308.425H112.376C113.491 308.425 114.593 308.185 115.607 307.719C116.62 307.253 117.521 306.574 118.247 305.728C118.973 304.881 119.507 303.888 119.813 302.815C120.119 301.743 120.189 300.617 120.019 299.515L113.331 256.127C113.175 255.129 112.668 254.219 111.9 253.563C111.132 252.907 110.154 252.547 109.144 252.55Z" fill="#BBA6E0"/>
<path opacity="0.6" d="M109.144 252.55H45.0243C44.0156 252.549 43.0399 252.91 42.2736 253.566C41.5073 254.222 41.0009 255.13 40.8459 256.127L34.1572 299.515C33.9871 300.617 34.0575 301.743 34.3635 302.815C34.6695 303.888 35.2038 304.881 35.9299 305.728C36.6559 306.574 37.5565 307.253 38.5698 307.719C39.5831 308.185 40.6851 308.425 41.8002 308.425H112.376C113.491 308.425 114.593 308.185 115.607 307.719C116.62 307.253 117.521 306.574 118.247 305.728C118.973 304.881 119.507 303.888 119.813 302.815C120.119 301.743 120.189 300.617 120.019 299.515L113.331 256.127C113.175 255.129 112.668 254.219 111.9 253.563C111.132 252.907 110.154 252.547 109.144 252.55Z" fill="#263238"/>
<path d="M109.144 252.55H101.429C100.819 252.55 100.217 252.681 99.6636 252.936C99.1098 253.19 98.6177 253.561 98.2208 254.024C97.8239 254.486 97.5317 255.029 97.3642 255.615C97.1967 256.2 97.1579 256.816 97.2504 257.418L104.107 301.873C104.389 303.698 105.315 305.362 106.716 306.563C108.118 307.765 109.904 308.426 111.751 308.425H112.368C113.483 308.425 114.585 308.185 115.599 307.719C116.612 307.253 117.512 306.574 118.238 305.727C118.964 304.881 119.499 303.888 119.805 302.815C120.111 301.743 120.181 300.617 120.011 299.515L113.322 256.127C113.167 255.13 112.661 254.222 111.895 253.566C111.128 252.91 110.153 252.549 109.144 252.55Z" fill="#263238"/>
</svg>
