<svg xmlns="http://www.w3.org/2000/svg" width="364" height="234" fill="none"><path fill="#EBEBEB" d="M339.421 164.288c2.672-1.38 5.817-1.556 8.785-1.069 1.593.265 3.253.742 4.338 1.941 1.084 1.199 1.292 3.3.046 4.333-.742.612-1.774.705-2.739.69-2.32 0-4.898-.436-6.746.965-1.037.794-1.764 2.122-3.03 2.511-1.266.389-2.636-.347-3.29-1.463a5.1 5.1 0 0 1-.373-3.772 5.775 5.775 0 0 1 3.009-4.136Zm-6.123-11.815c1.635 2.33 4.81 1.557 6.284.135 1.474-1.421 2.076-3.492 2.657-5.458 1.297-4.499 2.594-9.216 1.639-13.797a7.668 7.668 0 0 0-1.764-3.752 3.998 3.998 0 0 0-3.793-1.261c-1.603.42-2.594 1.987-3.315 3.482a32.833 32.833 0 0 0-3.249 14.113c0 2.273.26 4.67 1.557 6.538m-4.525 3.347c1.775-2.107 2.112-5.189 1.323-7.814-.788-2.626-2.594-4.883-4.628-6.715a24.9 24.9 0 0 0-8.302-4.887 8.802 8.802 0 0 0-3.731-.633 3.902 3.902 0 0 0-3.113 1.888c-.877 1.666-.036 3.684.866 5.329a63.198 63.198 0 0 0 5.443 8.302c1.63 2.076 3.503 4.151 5.988 5.127 2.486.975 5.07.84 6.388-.887"/><path fill="#E0E0E0" d="M333.189 187.674c.082-.349.13-.705.146-1.063.078-.768.171-1.739.28-2.891.145-1.425.364-2.841.654-4.244.382-1.71.903-3.387 1.556-5.012a18.471 18.471 0 0 1 2.558-4.535 9.588 9.588 0 0 1 3.233-2.688 8.96 8.96 0 0 1 2.724-.846 5.056 5.056 0 0 0 1.038-.156 5.838 5.838 0 0 0-1.074 0 8.333 8.333 0 0 0-2.844.742 9.511 9.511 0 0 0-3.409 2.709 18.128 18.128 0 0 0-2.651 4.628 30.49 30.49 0 0 0-1.557 5.09 35.308 35.308 0 0 0-.565 4.297 54.857 54.857 0 0 0-.146 2.911c-.02.354-.001.709.057 1.058Z"/><path fill="#E0E0E0" d="M333.387 185.443c.02-.164.02-.329 0-.493v-1.406c0-1.225 0-2.989.062-5.189.109-4.364.482-9.06 1.209-15.68.685-6.227 1.608-13.491 2.594-18.187a80.02 80.02 0 0 1 .618-2.88c.197-.846.347-1.557.519-2.164.171-.607.243-1.006.326-1.37.05-.156.08-.318.089-.482a2.037 2.037 0 0 0-.172.462c-.109.352-.243.799-.409 1.349-.166.55-.364 1.307-.576 2.148-.213.84-.452 1.806-.685 2.874a160.37 160.37 0 0 0-2.714 16.875c-.727 6.636-1.038 12.676-1.085 17.05 0 2.19 0 3.959.078 5.189.037.576.063 1.038.083 1.406.001.168.022.335.063.498Z"/><path fill="#E0E0E0" d="M333.418 173.794c.033-.489.033-.979 0-1.468a42.134 42.134 0 0 0-.452-3.985 51.36 51.36 0 0 0-1.297-5.801 46.969 46.969 0 0 0-2.423-6.865 36.627 36.627 0 0 0-7.124-11.094 18.4 18.4 0 0 0-1.676-1.556c-.26-.218-.488-.436-.716-.608l-.654-.451a9.266 9.266 0 0 0-1.235-.789c-.073.094 1.754 1.168 4.052 3.632a38.475 38.475 0 0 1 6.938 11.058 55.056 55.056 0 0 1 2.444 6.802c.633 2.133 1.038 4.094 1.375 5.744.337 1.65.477 3.01.586 3.944.023.483.084.964.182 1.437Zm-11.265 20.553 1.167 15.997h20.553l1.168-15.997h-22.888Z"/><path fill="#E0E0E0" d="M347.49 188.043h-27.324v6.304h27.324v-6.304Z"/><path fill="#EBEBEB" d="M320.166 209.732v1.749h26.872v-1.749h-26.872Z"/><path fill="#E0E0E0" d="m322.708 214.558-1.256-3.077h24.606l-1.464 3.077h-21.886Z"/><path fill="#F5F5F5" d="M344.657 199.577s-.026.052-.094.146l-.311.41-1.193 1.53-.058.068-.046-.073-2.942-4.068h.192l-2.896 4.104-.088.125-.104-.119-3.435-4.084h.198l-.187.239-3.072 3.85-.099.13-.098-.135-2.896-4.1h.166l-3.575 4.068-.062.073-.052-.083-1.115-1.878a7.456 7.456 0 0 1-.286-.519 1.043 1.043 0 0 1-.088-.177s.047.047.119.156l.317.483 1.173 1.842h-.109l3.507-4.115.088-.104.083.114 2.922 4.079h-.197c.975-1.225 2.002-2.517 3.061-3.856.067-.077.13-.16.192-.238l.099-.12.098.12 3.425 4.094h-.203l2.927-4.079.083-.119.083.119c1.162 1.656 2.143 3.062 2.88 4.115h-.104l1.245-1.494.332-.384a.736.736 0 0 1 .12-.12Zm.669-5.313c0 .073-5.152.13-11.503.13-6.352 0-11.499-.057-11.499-.13 0-.073 5.147-.13 11.499-.13 6.351 0 11.503.037 11.503.13Zm1.038 17.388c0 .072-5.599.129-12.5.129s-12.5-.057-12.5-.129c0-.073 5.599-.125 12.5-.125s12.5.057 12.5.125Z"/><path fill="#E0E0E0" d="M356.845 0h-66.479v110.044h66.479V0Z"/><path fill="#EBEBEB" d="M354.63 0h-66.479v110.044h66.479V0Z"/><path fill="#fff" d="M351.802 2.231h-60.818v105.582h60.818V2.231Z"/><path fill="#EBEBEB" d="M339.961 15.95H302.56v78.144h37.401V15.95Z"/><path fill="#E0E0E0" d="M302.56 66.443c-.083-7.3 6.481-14.425 13.709-15.442 3.445-.488 7.108.197 10.331-1.126 5.749-2.356 7.575-9.994 13.361-12.261l.244 56.506H302.56V66.443ZM21.528 135.568a28.21 28.21 0 0 0-12.08-4.151c-1.976-.202-4.15-.145-5.707 1.038a1.182 1.182 0 0 0-.586 1.038c.092.298.292.551.56.711 4.914 3.751 12.35 4.223 17.824 1.354m-.322-.332c-2.719-2.138-5.484-4.265-7.799-6.86-2.314-2.594-4.203-5.651-4.893-9.049-.213-1.038-.275-2.211.384-3.03 6.227 4.861 11.11 11.145 12.308 18.944"/><path fill="#E0E0E0" d="M21.466 135.521c-.472-3.403-.638-6.901.145-10.247.784-3.347 2.595-6.544 5.454-8.453 1.074 2.511.612 5.407-.145 8.032a38.96 38.96 0 0 1-5.407 11.39m6.05 10.201c-3.7.451-6.927 2.402-9.688 4.903a18.295 18.295 0 0 0-5.541 9.517c3.632-.229 6.709-2.787 8.94-5.656 2.231-2.87 3.783-6.024 6.227-8.707m1.375 1.692a23.87 23.87 0 0 1 2.76-22.603c2.107 7.498 1.334 15.971-2.76 22.603Zm8.068 9.594a17.255 17.255 0 0 0-16.52 9.495c-.208.41-.39.929-.115 1.292a1.218 1.218 0 0 0 1.095.322c3.259-.208 6.143-2.169 8.525-4.4 2.382-2.231 4.457-4.805 7.088-6.746m-.332-.487a30.75 30.75 0 0 1-.306-17.191c.607-2.21 1.624-4.54 3.668-5.578a.57.57 0 0 1 .26-.125.567.567 0 0 1 .654.436c.69 1.549.988 3.244.866 4.935a30.814 30.814 0 0 1-.773 4.992c-.644 3.051-.986 6.33-2.662 8.961-.385.634-.732 1.29-1.038 1.966-.316.67-.316.903-.607 1.438m21.263 3.341c-1.556-6.008.1-13.294 3.887-18.223.275-.358.649-.747 1.1-.706.7.063.883.991.851 1.692a32.927 32.927 0 0 1-5.837 17.237Zm1.926 1.318c7.3 1.899 15.675.052 21.752-4.426a17.642 17.642 0 0 0-11.78-1.442c-3.932.897-7.523 2.661-9.972 5.868Zm1.629-4.006c4.09-6.662 11.935-11.015 19.744-11.415-.903 3.176-3.513 5.645-6.46 7.135-2.948 1.489-6.227 2.143-9.475 2.77-1.261.25-2.989.519-3.809 1.505m-3.149-19.411c1.11-3.793 2.22-7.617 2.527-11.561.306-3.943-.26-8.053-2.304-11.415-3.82 7.394-4.203 16.028-.337 23.396m12.977-6.917c4.467-8.12 13.579-14.606 22.8-15.514-3.555 8.857-13.258 15.701-22.8 15.514Zm-2.813 1.588c6.663 1.038 12.34 5.272 18.566 7.851a8.343 8.343 0 0 0 4.198.804c1.427-.187 2.838-1.147 3.16-2.553a3.668 3.668 0 0 0-1.106-3.258 8.979 8.979 0 0 0-3.045-1.853c-6.782-2.822-14.057-2.89-21.197-1.178"/><path fill="#E0E0E0" d="M64.611 138.1c1.51.431 2.024 1.209 3.217 2.226a34.658 34.658 0 0 0 14.077 7.239c.52.135 1.246.187 1.51-.301.265-.488-.062-.934-.363-1.313-2.164-2.709-5.25-4.561-8.5-5.77-3.247-1.209-6.06-2.667-9.94-2.356m-4.349-27.947a26.635 26.635 0 0 0 20.423 6.948c.34.007.67-.111.929-.332.519-.56-.099-1.422-.7-1.889-6.004-4.67-13.279-6.626-20.652-4.727Z"/><path fill="#E0E0E0" d="M65.42 107.99a28.458 28.458 0 0 1 25.488-4.203c-3.212 3.16-7.664 4.862-12.147 5.329a38.48 38.48 0 0 1-13.34-1.126Zm-2.049-12.967c-.592-5.993-.208-10.725-.623-16.75-.036-.477-.14-1.037-.586-1.23-.628-.243-1.152.52-1.354 1.168a19.2 19.2 0 0 0 2.553 16.677"/><path fill="#E0E0E0" d="M62.94 95.677c4.063-2.517 7.109-5.796 9.927-9.652 1.96-2.682 3.632-5.9 3.17-9.194-2.755-.052-5.37 1.468-7.16 3.56-1.79 2.09-2.86 4.706-3.633 7.347-.773 2.64-1.349 5.344-2.283 7.939m9.734-2.704a80.037 80.037 0 0 0 24.434-14.42c-2.92-1.177-6.263-.472-9.179.706-6.667 2.688-12.115 7.233-15.384 13.636m-6.886 6.066c4.514.493 9.096.815 13.569.067 4.473-.747 8.556-2.475 12.666-4.208.359-.101.667-.334.861-.653a.996.996 0 0 0-.306-1.085 2.635 2.635 0 0 0-1.085-.519c-4.467-1.25-9.288-.664-13.688.815a63.925 63.925 0 0 0-12.017 5.567m-25.752 11.136c-3.077-6.227-2.88-13.46-.223-19.863 1.873 2.854 2.075 6.486 1.759 9.859-.317 3.372-1.375 6.885-1.443 10.294M27.63 103.88a27.705 27.705 0 0 0-20.584 8.774c3.835.602 7.784-.389 11.27-2.075 3.487-1.687 6.59-4.094 9.662-6.465m-8.608-2.994c-3.762-.307-7.379-.773-10.99.337-3.611 1.11-6.906 3.632-8.38 7.098 3.518.4 7.083-.482 10.305-1.94 3.222-1.458 6.154-3.487 9.065-5.495Zm12.235.124c-3.383-2.216-6.854-4.473-10.793-5.391-3.938-.918-8.499-.239-11.244 2.73 3.186 1.872 7.057 2.075 10.751 2.075 3.695 0 8.225-.047 11.706 1.188"/><path fill="#E0E0E0" d="M31.626 101.426c-5.78-5.677-7.975-15.878-5.646-23.635a36.021 36.021 0 0 1 5.646 23.635ZM47.52 85.34c1.089-2.537 1.857-5.188 2.837-7.783.981-2.594 2.195-5.121 4.043-7.17 1.847-2.05 4.4-3.576 7.155-3.71a28.85 28.85 0 0 1-13.89 18.679m-3.02 3.336c-1.806-2.485-3.887-5.853-6.336-7.71-2.45-1.858-5.63-2.947-8.619-2.263a20.075 20.075 0 0 0 14.955 9.973Zm.575-3.144c-1.182-3.004-2.376-6.045-2.853-9.236-.478-3.191-.187-6.605 1.447-9.392 3.17 5.998 4.193 12.453 1.557 18.68m2.185-18.68c1.795-5.946 7.264-10.326 13.122-12.334a4.871 4.871 0 0 1 2.299-.342 2.003 2.003 0 0 1 1.696 1.411c.213 1.012-.622 1.92-1.41 2.595a44.625 44.625 0 0 1-15.707 8.67Zm.057-4.862c.228-3.834.472-7.726 1.717-11.358 1.245-3.632 3.632-7.041 7.145-8.63.597 3.872-1.11 7.727-3.17 11.058-2.06 3.331-4.546 6.476-5.786 10.196m.001 1.37c-1.485-4.333-1.64-9.859-4.235-13.61-1.81-2.641-4.716-4.437-6.278-7.233-1.038 2.594-.722 5.62.363 8.208 1.084 2.59 2.88 4.826 4.8 6.876 1.92 2.05 3.564 3.59 5.35 5.76Z"/><path fill="#E0E0E0" d="M47.556 192.318c-.115 0-.218-28.912-.224-64.564-.005-35.653.078-64.57.192-64.57s.218 28.907.224 64.57c.005 35.663-.084 64.564-.192 64.564Z"/><path fill="#E0E0E0" d="M72.815 105.722c-.35.168-.715.304-1.09.405l-2.989 1.038c-2.522.856-5.988 2.075-9.75 3.632-3.761 1.556-7.233 2.895-9.236 4.628a6.78 6.78 0 0 0-1.852 2.455c-.285.679-.337 1.094-.379 1.084a.88.88 0 0 1 0-.301c.042-.287.114-.568.213-.841a6.516 6.516 0 0 1 1.81-2.594 16.15 16.15 0 0 1 4.007-2.485 114.54 114.54 0 0 1 5.266-2.304 116.977 116.977 0 0 1 9.812-3.539c1.277-.4 2.315-.69 3.036-.887a5.721 5.721 0 0 1 1.152-.291Z"/><path fill="#E0E0E0" d="M81.096 85.382a2.328 2.328 0 0 1-.306.322l-.929.871-3.46 3.15-11.53 10.264c-4.5 3.99-8.385 7.829-11.089 10.735a97.982 97.982 0 0 0-3.113 3.466l-.84.955a1.649 1.649 0 0 1-.312.317 1.65 1.65 0 0 1 .249-.369c.176-.233.43-.581.778-1.007.685-.866 1.718-2.075 3.046-3.559a146.08 146.08 0 0 1 11.021-10.83 1608.44 1608.44 0 0 1 11.608-10.17l3.549-3.045.98-.815c.103-.11.22-.206.348-.285Z"/><path fill="#E0E0E0" d="M60.009 104.057c-.12-.052.825-2.221 1.759-4.966.934-2.745 1.39-5.06 1.51-5.038.119.02-.156 2.392-1.116 5.188a34.085 34.085 0 0 1-1.396 3.472c-.185.482-.44.935-.757 1.344Zm-12.453 17.501a5.676 5.676 0 0 1-.696-.809l-1.774-2.273a700.184 700.184 0 0 0-5.869-7.508 701.31 701.31 0 0 0-5.977-7.415l-1.77-2.247a5.024 5.024 0 0 1-.628-.861c.271.228.521.48.748.752.466.519 1.12 1.241 1.92 2.164a231.4 231.4 0 0 1 6.08 7.348 230.627 230.627 0 0 1 5.776 7.586c.716.991 1.287 1.795 1.67 2.361.206.281.38.583.52.902Z"/><path fill="#E0E0E0" d="M42.035 114.445c-.068.072-1.557-1.682-2.32-4.344-.434-1.416-.61-2.9-.519-4.379h.182c-.083.332-.14.519-.176.519-.037 0-.032-.192 0-.519h.186a19.92 19.92 0 0 0 .737 4.26c.742 2.579 2.024 4.374 1.91 4.463Zm-7.151-8.998a7.697 7.697 0 0 0-1.618-.949c-1.085-.421-2.71-.519-4.5-.358a27.543 27.543 0 0 0-4.53.731c-.609.193-1.231.342-1.862.446a6.63 6.63 0 0 1 1.785-.731 20.777 20.777 0 0 1 4.577-.862c1.805-.155 3.523 0 4.638.519 1.116.519 1.547 1.194 1.51 1.204Zm-1.691-2.179c-.036.067-.944-.379-2.486-.903a25.52 25.52 0 0 0-6.19-1.277 25.932 25.932 0 0 0-6.32.322c-1.598.286-2.594.587-2.594.519.205-.124.427-.219.659-.28a15.566 15.566 0 0 1 1.873-.519 22.076 22.076 0 0 1 12.671.97c.607.229 1.198.498 1.77.805.221.091.43.213.617.363Zm14.327-9.216c-.11 0-.92-2.791-1.812-6.288-.892-3.498-1.515-6.367-1.4-6.393.114-.026.918 2.786 1.81 6.289.893 3.502 1.515 6.361 1.401 6.392Z"/><path fill="#E0E0E0" d="M47.639 94.052c-.125.037-.65-1.842-2.009-3.767-1.359-1.925-3.014-2.952-2.952-3.045.42.1.811.3 1.136.586a9.106 9.106 0 0 1 2.159 2.22c1.411 1.998 1.764 3.996 1.666 4.006Zm-.083 82.855c-.047 0-.13-.695-.457-1.925a27.525 27.525 0 0 0-1.93-5.002c-1.998-4.083-5.635-9.256-10.253-14.44-2.289-2.594-4.51-5.08-6.393-7.446a52.95 52.95 0 0 1-4.571-6.59 31.454 31.454 0 0 1-2.304-4.893 21.325 21.325 0 0 1-.457-1.401 3.036 3.036 0 0 1-.12-.519c.042 0 .25.659.727 1.842a36.197 36.197 0 0 0 2.408 4.805 55.475 55.475 0 0 0 4.618 6.502c1.894 2.335 4.115 4.789 6.408 7.409 4.629 5.189 8.255 10.435 10.201 14.586a24.714 24.714 0 0 1 1.822 5.096c.112.477.199.96.259 1.447.035.174.049.352.041.529Z"/><path fill="#E0E0E0" d="M70.386 151.119c-.385.25-.785.475-1.198.675a25.933 25.933 0 0 0-3.114 2.075 35.616 35.616 0 0 0-4.078 3.721c-1.427 1.509-2.9 3.263-4.405 5.142-3.01 3.777-5.822 7.114-7.503 9.775a38.863 38.863 0 0 0-1.884 3.223c-.193.415-.413.817-.659 1.203.018-.119.055-.234.11-.342.087-.213.212-.519.404-.934a30.035 30.035 0 0 1 1.78-3.305c1.634-2.73 4.426-6.113 7.425-9.859 1.51-1.884 2.999-3.632 4.457-5.153a32.852 32.852 0 0 1 4.177-3.684 21.573 21.573 0 0 1 3.201-1.961c.4-.197.722-.322.934-.415a1.48 1.48 0 0 1 .353-.161Z"/><path fill="#E0E0E0" d="M70.827 159.499c-.834.181-1.68.302-2.532.363a33.37 33.37 0 0 0-5.998 1.194 18.16 18.16 0 0 0-5.37 2.817c-1.235.955-1.822 1.749-1.879 1.702.09-.215.22-.411.379-.581a9.497 9.497 0 0 1 1.313-1.349 16.35 16.35 0 0 1 5.432-2.989 26.859 26.859 0 0 1 6.097-1.074 13.584 13.584 0 0 1 2.558-.083Z"/><path fill="#E0E0E0" d="M55.79 164.636c-.135-.073 1.007-1.816 1.889-4.151.882-2.335 1.038-4.437 1.172-4.411a3.9 3.9 0 0 1-.041 1.355 14.381 14.381 0 0 1-.737 3.196 15.31 15.31 0 0 1-1.468 2.932c-.21.402-.485.767-.815 1.079Zm21.98-35.974a1.68 1.68 0 0 1-.405.218l-1.188.519a31.69 31.69 0 0 0-1.863.882c-.71.363-1.556.747-2.418 1.271l-1.375.784c-.482.275-.955.601-1.458.913-1.038.617-2.034 1.38-3.113 2.153a53.658 53.658 0 0 0-12.028 12.453c-.737 1.116-1.463 2.159-2.044 3.197-.301.518-.607.996-.867 1.484l-.737 1.406c-.519.887-.84 1.733-1.188 2.459a25.469 25.469 0 0 0-.814 1.894l-.52 1.204a2.2 2.2 0 0 1-.202.415c.02-.152.06-.3.12-.441l.425-1.235c.187-.519.426-1.193.758-1.93.332-.737.659-1.598 1.136-2.496l.716-1.427c.254-.519.56-.986.851-1.51.576-1.038 1.292-2.112 2.029-3.238a51.503 51.503 0 0 1 12.131-12.525c1.1-.774 2.133-1.531 3.166-2.138.518-.312.99-.633 1.478-.903l1.401-.763c.882-.519 1.728-.872 2.46-1.224.731-.353 1.37-.618 1.899-.82l1.22-.467c.138-.059.282-.104.43-.135Z"/><path fill="#E0E0E0" d="M59.703 140.767c.17-.584.518-1.101.996-1.478a6.28 6.28 0 0 1 4-1.557 11.01 11.01 0 0 1 4.214.825 5.986 5.986 0 0 1 1.593.773 9.957 9.957 0 0 1-1.692-.493 12.595 12.595 0 0 0-4.1-.685 6.493 6.493 0 0 0-3.823 1.339c-.425.398-.822.825-1.188 1.276Zm-2.699 2.787c-.114-.063.903-1.557 1.137-3.695.233-2.137-.38-3.824-.255-3.86.243.313.404.683.467 1.074a7.639 7.639 0 0 1-.643 5.542c-.353.638-.664.97-.706.939Zm-29.42 37.494c.622 11.047 3.954 22.312 9.07 33.644h22.27c4.883-11.249 7.986-22.467 8.536-33.644H27.584Z"/><path fill="#FAFAFA" d="M63.848 198.934c0 .114-7.331.208-16.37.208-9.04 0-16.376-.094-16.376-.208 0-.114 7.326-.213 16.376-.213 9.049 0 16.37.088 16.37.213Zm-.498 3.995c0 .115-6.87.208-15.348.208-8.479 0-15.354-.093-15.354-.208 0-.114 6.875-.207 15.354-.207 8.478 0 15.348.093 15.348.207Zm-26.333-14.627c.114 0 .208 2.299.208 5.132 0 2.833-.094 5.126-.208 5.126-.114 0-.213-2.293-.213-5.126s.099-5.132.213-5.132Z"/><path fill="#FAFAFA" d="M48.946 188.302c.114 0 .208 2.377.208 5.313 0 2.937-.094 5.314-.208 5.314-.114 0-.207-2.382-.207-5.314 0-2.931.093-5.313.207-5.313Zm11.203-.088c.114 0 .207 2.423.207 5.417 0 2.994-.093 5.417-.207 5.417-.114 0-.213-2.423-.213-5.417 0-2.994.099-5.417.213-5.417Z"/><path fill="#FAFAFA" d="M66.754 188.302c0 .114-8.598.208-19.199.208-10.6 0-19.198-.094-19.198-.208 0-.114 8.598-.207 19.199-.207 10.6 0 19.198.093 19.198.207Z"/><path fill="#263238" d="M356.902 214.558c0 .072-77.655.134-173.42.134-95.765 0-173.431-.062-173.431-.134 0-.073 77.635-.135 173.431-.135s173.42.077 173.42.135Z"/><path fill="#455A64" d="M83.711 152.453v39.549h156.931v-39.549H83.712Zm141.177 30.915H97.368v-28.139h127.52v28.139Z"/><path fill="#455A64" d="M246.095 149.08H77.189v6.092h168.906v-6.092Z"/><path fill="#263238" d="M246.095 155.197s-37.811.026-84.448.026c-46.637 0-84.458 0-84.458-.026 0-.025 37.806 0 84.458 0 46.653 0 84.448-.01 84.448 0Zm0-6.075H77.189s37.806-.026 84.458-.026c46.653 0 84.448-.006 84.448.026Z"/><path fill="#455A64" d="M97.342 183.918h-13.63v30.551h13.63v-30.551Zm143.305-.556h-15.816v31.061h15.816v-31.061Z"/><path fill="#263238" d="M224.831 213.909c-.077 0-.14-13.164-.14-29.4 0-16.236.063-29.4.14-29.4.078 0 .135 13.159.135 29.4s-.062 29.4-.135 29.4Zm-127.463.56c-.072 0-.135-13.262-.135-29.623 0-16.36.063-29.617.135-29.617.073 0 .14 13.257.14 29.617 0 16.361-.088 29.623-.14 29.623Zm95.282-48.717h-65.571v7.404h65.571v-7.404Z"/><path fill="#8B5FD9" d="M190.974 173.161h-62.213v2.221h62.213v-2.221Z"/><path fill="#263238" d="M192.65 174.874h-65.571v7.404h65.571v-7.404Zm-2.895 7.409h-60.289v1.043h60.289v-1.043Z"/><path fill="#455A64" d="M131.194 176.108h-2.221v1.132h2.221v-1.132Z"/><path fill="#fff" d="M134.214 176.108h-2.221v1.132h2.221v-1.132Z"/><path fill="#263238" d="M259.213 2.9H59.993v134.251h199.22V2.901Z"/><path fill="#263238" d="M177.919 133.638h-36.103v15.447h36.103v-15.447Z"/><path fill="#455A64" d="M65.016 133.638H254.09V5.069H65.016v128.569Z"/><path fill="#8B5FD9" d="M136.378 35.808a10.347 10.347 0 0 1 1.847-13.294c-.494.217-.97.474-1.422.768a10.339 10.339 0 0 0-4.406 11.1 10.35 10.35 0 0 0 4.98 6.579 10.349 10.349 0 0 0 8.209.84 10.34 10.34 0 0 0 3.67-2.07 10.344 10.344 0 0 1-12.878-3.923Z"/><path fill="#000" d="M92.963 134.152 76.167 99.885V52.988l5.977-10.554-2.989-3.103-5.245 6.912 2.52-41.085-11.41-.089v129.083h27.942ZM221.822 5.043l17.045 29.665-12.552 99.013h9.937s15.172-101.56 15.172-102.334c0-.773-3.217-26.318-3.217-26.318l-7.949-.026 3.243 23.179-12.9-23.153-8.779-.026Zm-18.083.027c.073 0-2.247 42.963-2.247 42.963l2.102 9.765 3.279-5.604 2.319 3.04-5.131 6.414 7.612 72.016h-15.39l2.106-37.214-6.512-57.264-30.235-34.117h11.483l20.657 23.464 1.836-23.464h8.121Zm-92.921.503c-.068 0 2.252 42.963 2.252 42.963l-2.107 9.74-3.285-5.604-2.314 3.05 5.132 6.414-7.612 72.005h15.39l-2.107-37.214 6.512-57.238 15.468-34.116h-5.78L116.951 43.3l-2.595-37.728h-3.538Z" opacity=".3"/><path fill="#263238" d="M121.398 133.721c.243-1.266-1.713-52.61-1.713-52.61l-15.426-43.726 5.339-31.994-16.604-.249-3.113 34.08-10.674-12.038-2.32 1.723 12.18 14.881 17.247 38.916-.69 51.017h15.774Zm34.173-88.293c-.69.275-6.335 1.515-8.401 2.076-2.065.56-6.475 6.335-6.475 6.335l-2.2 6.61-4.286 3.02-1.655 3.166-.685 3.393-.675 4.893v2.595l-8.951 19.281 7.161.825L141.8 82.886s1.65-1.925 1.925-2.89c.275-.965 4.67-3.445 4.67-3.445l1.51 8.125-2.34 14.046-2.076 9.091-2.205 8.951-5.443 16.874 22.239.171s4.053-14.84 5.568-14.975c1.515-.135 2.859 14.804 2.859 14.804h18.628s.384-13.704-.026-20.589c-.41-6.886-2.896-23.687-2.896-23.687l5.651 6.418.96 4.048a48.355 48.355 0 0 0-1.515 4.955c-.275 1.515 1.515 3.995 1.515 3.995s.965-1.93.965-3.165v-2.62l2.594 3.17.96 2.89-2.2 2.076s-1.24 1.93-.14 2.205c1.1.275 2.34-1.24 2.34-1.24l1.656-.965-1.656 3.445s1.931.825 2.756-.14c.825-.965 1.93-4.545 1.93-4.545v-4.546l-.96-6.065-8.52-15.017-4.151-10.33s-4.151-16.802-4.405-17.217c-.255-.415-4.151-3.996-4.151-3.996l-4.266-5.095 2.2-7.296s1.381-6.335.69-8.82c-.69-2.486-3.165-6.886-7.985-6.471-4.821.415-7.991 5.645-8.266 9.226 0 0-1.702.519-1.79 1.515-.259 2.859 1.93 3.741 1.93 3.741l-.415 4.385-2.075-.966-2.294 2.491Z"/><path fill="#8B5FD9" d="M165.7 35.025c.145.067 2.905 3.222 2.905 3.222a2.954 2.954 0 0 1-2.309-.28c-1.089-.68-.596-2.942-.596-2.942Zm9.729 1.945-3.658 1.484c-.125-.135.97 1.256 2.205.888 1.235-.369 1.453-2.372 1.453-2.372Z"/><path fill="#263238" d="m224.012 5.049-.161 106.023v22.737l-21.451-.171 3.664-97.264-.966-31.305 18.914-.02Z"/><path fill="#263238" d="m221.765 49.325 11.016-14.467 2.864 3.524-13.88 21.72V49.325ZM92.921 30.816l-1.23-2.215a1028.66 1028.66 0 0 0-4.181-7.519c-1.65-2.932-3.207-5.557-4.328-7.461l-1.328-2.263a5.15 5.15 0 0 1-.447-.85c.221.233.413.493.571.773.348.518.836 1.26 1.427 2.194a188.842 188.842 0 0 1 2.818 4.634c-.031-.182-.063-.39-.099-.612a102.636 102.636 0 0 1-.519-3.99c-.171-1.562-.337-2.979-.42-4.006a7.231 7.231 0 0 1-.062-1.671c.174.532.287 1.082.337 1.64.156 1.037.348 2.428.519 3.99.171 1.562.337 2.978.42 4.005.036.436.062.8.078 1.075.44.752.897 1.556 1.36 2.35 1.665 2.932 3.113 5.63 4.099 7.597.425.83.767 1.53 1.037 2.075m19.038 79.83L93.736 88.039c0-.332-.036-.82-.083-1.422a157.954 157.954 0 0 0-.405-4.603 142.567 142.567 0 0 0-.519-4.587 13.57 13.57 0 0 0-.285-1.893c-.145 0 .036 2.936.394 6.522 0 .187.037.368.057.55a22.573 22.573 0 0 0-1.743-2.522c-1.37-1.738-2.714-2.926-2.786-2.854-.073.073 1.126 1.38 2.48 3.114.929 1.172 1.681 2.226 2.101 2.76.14 1.38.286 2.594.41 3.56.063.467.12.86.171 1.167l-17.605-5.433 6.605 2.512a28.243 28.243 0 0 0-3.777 1.24 18.879 18.879 0 0 0-2.288-.348c-.85-.131-1.71-.175-2.569-.13-.036.146 1.116.374 2.527.52.752.082 1.427.124 1.9.13-2.3.944-4.022 1.93-3.976 2.018.047.088 1.936-.774 4.302-1.728 1.9-.773 3.539-1.365 4.089-1.624l7.783 2.957 17.678 22.338m1.624-21.871 13.491-12.837 6.092-14.555.69-.674-.124-.13-1.656-1.759-1.126-1.22a4.843 4.843 0 0 1-1.037-1.452c-.519-.213-2.247-1.168-4.271-2.371-2.397-1.427-4.291-2.662-4.234-2.756.057-.093 2.039.991 4.431 2.418 1.884 1.121 3.451 2.117 4.011 2.543a5.871 5.871 0 0 0-.332-.955c-.145-.322-.29-.648-.446-.98l-.929-2.076a469.23 469.23 0 0 1-1.754-3.938c-.555-.338-1.587-1.038-2.75-1.92-1.691-1.261-3.009-2.356-2.942-2.439.068-.083 1.484.861 3.176 2.122.965.721 1.805 1.38 2.34 1.837a293.723 293.723 0 0 1-1.277-2.926c-.363-.851-.674-1.625-.928-2.221a3.629 3.629 0 0 1-.291-.84c.171.24.315.5.431.772l1.038 2.174c.643 1.37 1.458 3.114 2.36 5.117 0-.229-.025-.52-.036-.825 0-.976 0-2.325.042-3.814.041-1.49.161-2.833.259-3.804a6.27 6.27 0 0 1 .254-1.556c.109 0 0 2.413-.124 5.38-.088 2.273-.151 4.214-.228 4.997.259.566.518 1.142.783 1.734.317.71.628 1.4.929 2.075.145.332.29.664.436.986.139.321.248.655.327.996a4.024 4.024 0 0 0 1.001 1.515l1.09 1.256 1.556 1.837.114.135 14.56-14.181h.794l-4.151 4.15c.278.004.555.023.83.058 1.038.176 2.522-.083 4.151-.234 1.63-.15 3.114-.29 4.208-.358a7.62 7.62 0 0 1 1.76-.036 8.272 8.272 0 0 1-1.728.311c-.997.13-2.346.286-3.845.436.166.073.389.177.638.311a49.11 49.11 0 0 1 2.299 1.266c1.774 1.038 3.17 1.936 3.113 2.03-.057.093-1.557-.66-3.311-1.692a56.142 56.142 0 0 1-2.252-1.37 7.63 7.63 0 0 1-.653-.451l-.089-.068h-.103c-1.63.15-3.15.374-4.245.12a6.692 6.692 0 0 0-.991-.136l-10.896 10.98-6.351 14.69-12.838 13.101m99.475-35.076-13.491-12.832-6.097-14.56-.69-.674.125-.13c.446-.472 1.001-1.038 1.65-1.754l1.126-1.224a4.757 4.757 0 0 0 1.038-1.448c.519-.213 2.246-1.168 4.27-2.377 2.397-1.427 4.291-2.656 4.234-2.75-.057-.093-2.044.991-4.436 2.418-1.879 1.116-3.446 2.117-4.006 2.538.084-.328.193-.65.327-.96.15-.322.296-.649.446-.981l.934-2.076a558.853 558.853 0 0 0 1.754-3.938c.555-.337 1.588-1.038 2.75-1.925 1.686-1.26 3.004-2.35 2.942-2.439-.062-.088-1.489.867-3.181 2.128-.96.716-1.8 1.38-2.335 1.831.483-1.09.913-2.075 1.272-2.926l.934-2.22a3.65 3.65 0 0 0 .29-.836c-.173.24-.318.5-.431.773l-1.037 2.169a250.26 250.26 0 0 0-2.361 5.121c0-.233 0-.519.031-.83.026-.976 0-2.32-.036-3.809a49.328 49.328 0 0 0-.26-3.803 6.272 6.272 0 0 0-.254-1.557c-.114 0 0 2.413.124 5.381.089 2.268.151 4.208.224 4.997l-.779 1.733-.929 2.075c-.145.346-.29.673-.435.981a5.821 5.821 0 0 0-.327.997 4.226 4.226 0 0 1-1.002 1.52c-.389.44-.752.861-1.089 1.255l-1.557 1.837-.109.135-14.565-14.18h-.794l4.151 4.15a5.54 5.54 0 0 0-.835.057c-1.038.177-2.517-.083-4.151-.233-1.635-.15-3.114-.29-4.209-.363a7.923 7.923 0 0 0-1.753-.037 7.406 7.406 0 0 0 1.728.312c.991.135 2.345.29 3.839.44a14.64 14.64 0 0 0-.638.307c-.597.311-1.411.757-2.299 1.266-1.769 1.038-3.165 1.94-3.113 2.034.052.093 1.531-.664 3.311-1.692a51.427 51.427 0 0 0 2.246-1.37 7.76 7.76 0 0 0 .659-.45.476.476 0 0 1 .083-.068h.109c1.63.15 3.15.368 4.245.119.326-.072.657-.117.991-.135l10.896 10.98 6.351 14.69 12.838 13.096"/><path fill="#263238" d="M123.65 5.07c-.052.233-.691 1.39-.737 1.556l.519 18.887-.265 1.313.083-.088 1.775-1.925a564.413 564.413 0 0 0 5.619-6.118c.19-1.066.447-2.12.768-3.155.576-1.92 1.204-3.419 1.302-3.383.099.037-.352 1.588-.923 3.492a99.88 99.88 0 0 1-.841 2.709 684.71 684.71 0 0 0 5.635-6.346l1.713-1.95c.2-.254.426-.485.674-.691a4.33 4.33 0 0 1-.555.789 82.484 82.484 0 0 1-1.64 2.039 206.49 206.49 0 0 1-3.513 4.15l.55-.285c.919-.472 2.2-1.094 3.633-1.764 1.432-.669 2.724-1.25 3.673-1.655a6.793 6.793 0 0 1 1.557-.581c-.451.331-.939.61-1.453.83-.918.472-2.195 1.095-3.632 1.764a130.56 130.56 0 0 1-3.669 1.656c-.399.17-.736.31-.996.41a192.739 192.739 0 0 1-7.731 8.307 78.365 78.365 0 0 1-1.863 1.837l-.239.223-.617 3.082 16.288-1.697c.352-.306.882-.737 1.556-1.255a104.645 104.645 0 0 1 5.288-3.887 129.186 129.186 0 0 1 4.228-2.781c0-.156.442-1.038.872-2.076.431-1.037.737-2.143.851-2.122.114.02 0 1.069-.488 2.273a6.994 6.994 0 0 1-1.037 1.821c.384-.239.747-.462 1.084-.659a38.695 38.695 0 0 1 1.723-.996c.202-.14.424-.246.659-.317a20.835 20.835 0 0 1-2.237 1.557c-1.401.918-3.331 2.2-5.432 3.632l-1.557 1.095c.929-.275 2.761-.737 4.883-1.22 3.077-.705 5.588-1.193 5.614-1.084.026.11-2.449.758-5.526 1.463-2.454.56-4.545.986-5.303 1.08-1.328.934-2.506 1.78-3.435 2.449-.586.425-1.074.778-1.448 1.038l8.266 6.833c.633-.197 2.594-.612 4.971-1.038 2.885-.518 5.235-.85 5.256-.747.021.104-2.304.613-5.189 1.132-2.241.404-4.151.695-4.913.757l7.601 6.279L137.981 29l-15.878 3.046-17.989 19.816-.519-2.247 16.91-18.28 2.117-6.226-.264-18.53.451-1.556m-19.282 68.259c-.353-.52-.809-1.199-1.385-1.951a17.659 17.659 0 0 0-1.277-1.557c-.477-.519-1.037-1.095-1.598-1.692-1.12-1.188-2.381-2.48-3.632-3.907a70.96 70.96 0 0 1-5.894-7.726c-.685-1.038-1.199-1.904-1.557-2.5a5.513 5.513 0 0 1-.519-.96c.235.272.445.566.628.876.39.576.94 1.411 1.65 2.428a88.038 88.038 0 0 0 5.962 7.612c1.24 1.417 2.49 2.714 3.632 3.928.555.608 1.095 1.168 1.557 1.723a32.43 32.43 0 0 1 1.255 1.609c.519.684.893 1.302 1.204 1.82"/><path fill="#263238" d="M85.527 65.239a4.673 4.673 0 0 1-1.67-.285c0-.063.648.026 1.675 0 .343 0 .732-.026 1.152-.068.104-.104.177-.155.208-.135.031.021 0 .052 0 .12a30.009 30.009 0 0 0 2.62-.405c1.557-.306 2.953-.602 3.99-.727a5.627 5.627 0 0 1 1.687-.077 10.37 10.37 0 0 1-1.645.347l-3.959.851c-.94.19-1.892.314-2.849.374-.199.37-.417.731-.654 1.079-.518.794-1.037 1.39-1.136 1.328-.098-.062.275-.752.81-1.556.218-.322.436-.612.617-.84a7.61 7.61 0 0 1-.846-.006Zm39.176 26.229-4.795 11.193 2.667 10.414 4.302-.597 1.551-2.989-.835-7.29 3.586-8.24-6.476-2.49Z"/><path fill="#263238" d="M126.426 112.218a.402.402 0 0 1-.12 0c-.296-.072-.617-.638-2.418-5.707-.223-.618-.43-1.204-.467-1.282l-.088-.119.078-.109 1.723-4.021 2.075 1.089.031.114s.306 1.272.576 2.875a5.35 5.35 0 0 1-.296 2.838c.25.514.416 1.064.493 1.629a2.591 2.591 0 0 1-.794 2.31 1.39 1.39 0 0 1-.793.383Zm-2.496-7.155c.062.156.176.483.446 1.235.519 1.479 1.728 4.872 2.076 5.396a1.47 1.47 0 0 0 .555-.43 2.042 2.042 0 0 0 .519-1.681c-.234-1.235-.457-1.505-.467-1.516l-.151-.134.104-.161a4.841 4.841 0 0 0 .311-2.667c-.218-1.308-.462-2.387-.519-2.73l-1.416-.721-1.458 3.409Z"/><path fill="#263238" d="M131.179 101.296s1.914 2.107 1.26 2.973c-.653.867-11.861 9.423-11.861 9.423l-1.51-3.279 8.795-5.838 3.316-3.279Z"/><path fill="#263238" d="M119.213 110.392a355.454 355.454 0 0 0-37.069 22.239 5.639 5.639 0 0 0 4.447 1.505c1.609-.104 5.775-.768 7.264-1.406 10.767-4.608 19.054-10.949 26.728-19.038"/><path fill="#8B5FD9" d="M168.616 25.975a10.68 10.68 0 0 0-1.676.384 7.728 7.728 0 0 0-3.285 2.418 14.782 14.782 0 0 0-2.044 3.596c-.2.545-.43 1.079-.69 1.598a1.71 1.71 0 0 1 .104-.462c.088-.285.218-.7.404-1.209a13.28 13.28 0 0 1 2.019-3.7 7.417 7.417 0 0 1 3.45-2.423c.41-.132.836-.21 1.266-.228.151-.017.304-.008.452.026Zm-9.33 11.441c-.031 0-.135-.088-.223-.306a1.638 1.638 0 0 1-.088-.902c.049-.305.18-.59.379-.825.155-.177.29-.24.311-.218a5.61 5.61 0 0 0-.425 1.09 5.5 5.5 0 0 0 .046 1.161Zm1.469 7.062a7.93 7.93 0 0 1-.088-2.075 7.68 7.68 0 0 1 .181-2.04c.12.686.15 1.384.088 2.076a7.68 7.68 0 0 1-.181 2.04Zm-5.272 1.765a6.393 6.393 0 0 1 1.105-1.453 6.36 6.36 0 0 1 1.308-1.271 6.07 6.07 0 0 1-1.105 1.452 6.246 6.246 0 0 1-1.308 1.272Zm-8.717 2.428a4.32 4.32 0 0 1 1.037-.441 29.316 29.316 0 0 1 2.595-.783 28.09 28.09 0 0 1 2.641-.55 4.21 4.21 0 0 1 1.116-.11c0 .078-1.661.4-3.69.924-2.028.524-3.673 1.033-3.699.96Zm-4.987 5.261a22.122 22.122 0 0 1 1.687-2.044 23.16 23.16 0 0 1 1.702-2.029 9.12 9.12 0 0 1-1.495 2.2 9.208 9.208 0 0 1-1.894 1.873Zm-.119.638a17.325 17.325 0 0 1-.924 2.943c-.307.984-.701 1.94-1.178 2.854.223-1.008.532-1.993.924-2.948.311-.981.705-1.934 1.178-2.848Zm-2.999 6.751c.031.042-.654.473-1.604 1.344a14.166 14.166 0 0 0-1.53 1.66 16.3 16.3 0 0 0-1.495 2.32c-.421.822-.768 1.68-1.037 2.563a14.008 14.008 0 0 0-.462 2.21c-.161 1.282-.114 2.076-.166 2.076a2.036 2.036 0 0 1-.063-.56 4.601 4.601 0 0 1 0-.664c0-.26 0-.555.047-.882.07-.763.207-1.519.41-2.257a13.73 13.73 0 0 1 2.563-4.971 13.156 13.156 0 0 1 1.599-1.645 8.4 8.4 0 0 1 .69-.55 4.51 4.51 0 0 1 .55-.379c.154-.109.321-.198.498-.265Zm-6.668 17.196c.068.031-1.78 4-4.151 8.863-2.371 4.862-4.301 8.774-4.369 8.738-.067-.037 1.78-3.996 4.125-8.858 2.346-4.862 4.328-8.774 4.395-8.743Zm-11.218 24.118a12.62 12.62 0 0 1 .975-2.413c.33-.806.74-1.576 1.225-2.299a12.635 12.635 0 0 1-.975 2.413c-.33.806-.74 1.576-1.225 2.299Zm6.169.389c.056.217.074.441.052.664a12.117 12.117 0 0 1-.29 1.785 5.522 5.522 0 0 0-.125 1.209c.04.47.106.938.197 1.401a3.867 3.867 0 0 1-1.489 3.71l-.14.109-.067-.166a360.863 360.863 0 0 1-1.868-5.075l-.519-1.525a2.636 2.636 0 0 1-.161-.571c.106.162.191.336.254.519.166.399.369.903.612 1.494.519 1.272 1.194 3.046 1.951 5.044l-.207-.057a3.627 3.627 0 0 0 1.401-3.461 12.683 12.683 0 0 1-.171-1.427c.007-.423.06-.845.161-1.256.156-.576.28-1.159.373-1.748.036-.41-.005-.644.036-.649Zm-5.484 6.709a3.309 3.309 0 0 1-.379.239l-1.11.654-4.115 2.334-13.631 7.623c-5.313 2.994-10.087 5.77-13.491 7.851a279.451 279.451 0 0 0-4.026 2.485l-1.095.68a2.487 2.487 0 0 1-.39.218c.114-.097.233-.185.359-.265l1.068-.721c.93-.623 2.289-1.505 3.985-2.558 3.389-2.123 8.147-4.93 13.46-7.924 5.314-2.994 10.165-5.635 13.673-7.549l4.151-2.263 1.136-.607c.128-.079.264-.145.405-.197Zm-21.497 17.595a11.4 11.4 0 0 1 .435-2.423c.145-.81.379-1.602.696-2.361a21.881 21.881 0 0 1-1.131 4.784Zm1.333-.674c.127-.942.343-1.87.644-2.771.215-.926.52-1.83.908-2.698a29.523 29.523 0 0 1-1.557 5.469h.005Zm2.205-2.885c.06-.579.151-1.154.275-1.723.037-.581.106-1.16.208-1.733.163.576.183 1.184.057 1.769a3.563 3.563 0 0 1-.54 1.687Zm67.029-74.273a42.654 42.654 0 0 1-4.369-1.837 41.12 41.12 0 0 1-4.254-2.075 41.216 41.216 0 0 1 4.369 1.837 41.022 41.022 0 0 1 4.254 2.075Zm8.821 5.246c-.046.057-.42-.15-.835-.472-.415-.322-.716-.628-.669-.685.046-.057.42.15.835.472.415.322.737.628.669.685Zm12.521 40.318a37.817 37.817 0 0 1-3.113-3.415 39.198 39.198 0 0 1-2.89-3.59 38.868 38.868 0 0 1 3.113 3.413 41.519 41.519 0 0 1 2.89 3.591Zm.016 4.825c-.078 0-.078-.665-.265-1.432-.187-.768-.477-1.36-.41-1.401.362.362.598.831.675 1.338a2.36 2.36 0 0 1 0 1.495Z"/><path fill="#263238" d="M183.778 25.109v.135a.91.91 0 0 1-.182.352 1.615 1.615 0 0 1-1.323.55 9.502 9.502 0 0 1-2.045-.518 2.279 2.279 0 0 0-1.152-.037 3.736 3.736 0 0 0-1.11.623c-.363.29-.79.491-1.245.586a2.775 2.775 0 0 1-1.272-.166 13.345 13.345 0 0 0-1.94-.726 1.823 1.823 0 0 0-1.303.207c-.134.1-.259.214-.373.338 0 0 .041-.203.316-.42a1.818 1.818 0 0 1 1.391-.317c.682.167 1.347.396 1.987.685.371.133.766.179 1.157.135a2.722 2.722 0 0 0 1.126-.52 3.97 3.97 0 0 1 1.199-.653 2.533 2.533 0 0 1 1.282.047 10.42 10.42 0 0 0 1.987.565 1.555 1.555 0 0 0 1.23-.43 2.28 2.28 0 0 0 .27-.436Z"/><path fill="#263238" d="M177.011 28.19c.031 0-.316.214-.814 0a2.737 2.737 0 0 1-.737-.518 2.988 2.988 0 0 0-.825-.586 2.594 2.594 0 0 0-1.795-.073c-.457.15-.691.353-.722.322-.031-.032.177-.286.649-.52a2.515 2.515 0 0 1 1.977 0c.336.156.637.376.887.65.193.2.411.374.649.518.224.127.474.198.731.208Zm6.58 17.882a13.318 13.318 0 0 1-1.521-.52 8.248 8.248 0 0 0-3.751-.596 4.405 4.405 0 0 0-1.936.71 5.997 5.997 0 0 1-1.556.836 1.853 1.853 0 0 1-1.204-.047.678.678 0 0 1-.353-.27s.135.089.389.172a1.85 1.85 0 0 0 1.116-.042 6.235 6.235 0 0 0 1.484-.861c.608-.43 1.315-.7 2.055-.784a7.694 7.694 0 0 1 3.85.685c.499.188.978.428 1.427.717Zm-4.862-2.595c-.214.056-.43.099-.649.13a6.862 6.862 0 0 1-1.598.322 2.52 2.52 0 0 1-1.557-.571c-.326-.275-.446-.52-.42-.52.026 0 .203.167.519.385.431.28.929.435 1.443.451a14.64 14.64 0 0 0 1.556-.238c.452-.073.711.01.706.041Zm-3.093-10.067a4.06 4.06 0 0 1 .644-.892l.757-.923.457-.52c.163-.17.301-.365.41-.575a.391.391 0 0 0-.114-.519 2.03 2.03 0 0 0-.602-.254 6.623 6.623 0 0 0-1.142-.239c-.664-.078-1.084-.047-1.089-.088.356-.114.733-.15 1.105-.104.403.023.803.088 1.193.192.247.05.483.145.695.28a.667.667 0 0 1 .255.374.717.717 0 0 1-.047.456 2.597 2.597 0 0 1-.467.644c-.161.181-.311.358-.467.519l-.799.882a4.99 4.99 0 0 1-.789.768Zm-15.753 1.967a2.604 2.604 0 0 0-.109-1.037c-.099-.301-.265-.649-.41-1.038a1.882 1.882 0 0 1 0-1.458 2.682 2.682 0 0 1 1.038-1.002c.368-.223.706-.404.955-.596.267-.212.494-.47.669-.763 0 0 0 .109-.062.285a1.713 1.713 0 0 1-.488.623 8.198 8.198 0 0 1-.944.664c-.386.218-.709.53-.94.908a1.687 1.687 0 0 0 0 1.261c.125.4.275.768.353 1.09a1.227 1.227 0 0 1-.062 1.063Zm15.665-11.617c.026 0 .026.425-.457.825a2.241 2.241 0 0 1-.949.446 4.98 4.98 0 0 1-1.261.062 7.115 7.115 0 0 0-1.209 0 2.498 2.498 0 0 0-.908.29c-.252.164-.47.373-.643.618-.032 0 .026-.425.518-.778a2.5 2.5 0 0 1 .976-.379 6.27 6.27 0 0 1 1.256-.036c.399.03.801.018 1.198-.037.317-.054.619-.175.888-.352.477-.301.544-.68.591-.66Zm6.995 39.372a9.333 9.333 0 0 0 1.312 2.823 3.202 3.202 0 0 0 2.673 1.36c.757-.068 1.478-.52 2.226-.374.747.145 1.333.789 1.971 1.256 1.661 1.203 3.918 1.037 5.957.799-1.396 1.556-3.715 2.106-5.801 1.774-1.11-.181-2.195-.576-3.326-.591-1.131-.016-2.164.321-3.253.43-1.09.11-2.315-.067-3.031-.897m2.631 1.613c1.157 2.294 2.444 4.727 4.701 5.957a4.33 4.33 0 0 1 1.505 1.038c.768 1.064 0 2.537.083 3.845.083 1.307 1.1 2.381 1.8 3.513.701 1.13 1.038 2.791.032 3.632m13.724-6.637-6.496-16.427 3.149-1.983 3.347 8.484v9.926Zm33.359 50.965 1.499-68.083-7.695-7.155 5.61-1.935 3.274 4.856 8.525-36.965-1.401-19.313 5.173.026v128.569h-14.985ZM149.22 98.987l-7.404 3.165-7.602 21.767 7.446 5.666 7.56-30.598Z"/><path fill="#EBEBEB" d="M230.466 129.627c10.996 0 19.91-8.914 19.91-19.91 0-10.995-8.914-19.909-19.91-19.909-10.995 0-19.909 8.914-19.909 19.909 0 10.996 8.914 19.91 19.909 19.91Z"/><path fill="#E0E0E0" d="m210.941 105.826 3.819-1.209a6.424 6.424 0 0 0 3.077-2.107c1.079-1.349 2.485-3.113 2.558-3.264.119-.238 8.686-1.359 11.358-2.957 2.512-1.5.597-5.864.27-6.419a19.91 19.91 0 0 0-21.082 15.956Zm34.334 7.897 5.091-4.67a19.822 19.822 0 0 0-3.56-10.746l-1.92 3.3-8.094 5.853-15.956-.819-10.077 5.899a19.89 19.89 0 0 0 8.214 13.429c1.474-.97 3.197-2.179 3.492-2.672.519-.888 10.285-5.319 10.285-5.319l12.525-4.255Z"/><path fill="#fff" d="m230.627 109.551-14.824-13.283a21.374 21.374 0 0 1 15.369-6.45c8.24 0 13.86 6.17 13.86 6.17l-14.405 13.563Z" opacity=".5"/><path fill="#8B5FD9" d="m230.415 106.869-1.132 1.78a2.074 2.074 0 0 0-.337 1.037 1.89 1.89 0 0 0 0 .301 1.326 1.326 0 0 0 .967 1.2c.177.05.362.061.543.035a1.298 1.298 0 0 0 1.422-1.354 3.428 3.428 0 0 0-.623-1.692l-.84-1.307Z"/><path fill="#263238" d="M250.376 109.717s0-.108-.031-.326c-.031-.218-.036-.519-.062-.945 0-.207-.026-.436-.042-.695-.015-.26-.083-.519-.124-.83-.042-.312-.099-.623-.156-.971-.057-.347-.171-.7-.26-1.084a18.993 18.993 0 0 0-2.205-5.277 19.765 19.765 0 0 0-5.043-5.62l-.836-.638c-.301-.197-.617-.379-.929-.57-.311-.193-.622-.405-.97-.561l-1.038-.519-.518-.249-.55-.197-1.116-.405c-.379-.124-.773-.207-1.168-.316a9.995 9.995 0 0 0-1.198-.27 17.904 17.904 0 0 0-2.501-.285c-.426 0-.856-.058-1.292-.052l-1.308.067c-.218 0-.441 0-.659.041l-.664.104c-.436.073-.887.125-1.328.218-.897.199-1.779.457-2.641.773a21.33 21.33 0 0 0-2.595 1.132c-.415.228-.814.492-1.23.736-.202.13-.42.239-.612.39l-.581.435a22.162 22.162 0 0 0-2.242 1.905 22.312 22.312 0 0 0-1.94 2.293l-.457.607-.394.654-.4.654a4.446 4.446 0 0 0-.368.674l-.669 1.396c-.182.483-.358.97-.519 1.463a19.655 19.655 0 0 0 0 12.454c.181.487.358.975.519 1.463.16.488.451.934.674 1.396.106.234.229.459.369.674l.399.654.394.654.457.607a17.883 17.883 0 0 0 4.182 4.198l.581.435c.192.151.41.26.613.39.415.243.814.518 1.229.736a21.998 21.998 0 0 0 5.22 1.91c.441.088.893.14 1.329.213l.664.103c.218 0 .441 0 .659.042l1.307.067c.436 0 .867-.036 1.292-.046.84-.041 1.675-.138 2.501-.291a9.845 9.845 0 0 0 1.199-.27c.394-.109.789-.187 1.168-.316l1.115-.405.55-.197.519-.249 1.038-.493c.342-.156.643-.379.965-.561.322-.181.628-.373.929-.57l.861-.639a19.637 19.637 0 0 0 5.038-5.619 18.994 18.994 0 0 0 2.206-5.277c.088-.384.218-.737.259-1.085.042-.347.109-.669.156-.97.046-.301.098-.576.124-.83.026-.254.031-.488.042-.695.026-.41.046-.722.062-.945.016-.223.031-.321.031-.321v.321c0 .213 0 .519-.031.945 0 .214-.01.448-.031.7 0 .254-.073.519-.114.836-.042.316-.094.627-.14.975-.047.348-.166.706-.249 1.095a18.888 18.888 0 0 1-2.18 5.329 19.842 19.842 0 0 1-5.054 5.707l-.861.644c-.306.202-.623.389-.939.581-.317.192-.628.41-.976.571l-1.037.519-.519.254-.555.202-1.126.415c-.384.13-.784.213-1.178.322-.398.119-.804.21-1.214.275-.835.159-1.679.26-2.527.301-.431 0-.867.057-1.308.052l-1.323-.062c-.223 0-.446 0-.67-.042l-.669-.104c-.446-.072-.898-.124-1.349-.212a22.312 22.312 0 0 1-5.287-1.925c-.421-.229-.831-.519-1.251-.742-.202-.135-.42-.244-.617-.395l-.592-.441a22.114 22.114 0 0 1-2.273-1.93 22.41 22.41 0 0 1-1.966-2.319l-.462-.618-.405-.659-.404-.664a5.28 5.28 0 0 1-.374-.68c-.223-.472-.451-.944-.68-1.416l-.545-1.484a19.902 19.902 0 0 1 0-12.651l.545-1.484.68-1.411a4.85 4.85 0 0 1 .379-.643l.399-.665.405-.659.462-.612a22.92 22.92 0 0 1 1.966-2.324 22.71 22.71 0 0 1 2.273-1.925l.592-.442c.197-.15.415-.259.622-.394.415-.244.825-.519 1.246-.742a22.006 22.006 0 0 1 5.287-1.92c.451-.093.903-.145 1.349-.218l.669-.103c.224-.026.447-.026.67-.042l1.323-.062c.436 0 .872.036 1.308.052a18.36 18.36 0 0 1 2.527.3c.409.068.815.16 1.214.276.394.109.794.192 1.178.321l1.12.415.556.203.518.254 1.038.519c.348.16.649.384.976.57.327.188.633.38.934.582l.866.643a19.94 19.94 0 0 1 5.054 5.708 18.915 18.915 0 0 1 2.179 5.329c.083.389.208.742.249 1.095.042.353.099.674.141.975.041.301.093.581.114.836.021.254 0 .487.031.7 0 .41.026.721.031.944.005.224 0 .275 0 .275Z"/><path fill="#E0E0E0" d="M223.488 128.366s3.305-3.824 4.701-5.101c1.395-1.276 9.521-4.82 9.698-4.82.176 0 11.799-3.523 11.799-3.523s-1.707 7.975-9.19 11.991a19.784 19.784 0 0 1-17.008 1.453Z"/><path fill="#8B5FD9" d="M80.883 16.88h39.705l4.39-4.193H81.527l-1.443 2.096.8 2.096Z"/><path fill="#263238" d="M80.883 16.88a.76.76 0 0 1-.057-.125l-.16-.39-.623-1.556 1.427-2.076h.03c7.452-.046 23.568-.078 42.222-.078h1.557l-.244.234-4.39 4.187-.036.037h-.057l-28.336-.052-8.339-.14h-3.009a.856.856 0 0 1 .202 0h2.859l8.396-.114 28.263-.052-.088.036 4.369-4.203.088.234h-1.23c-18.653 0-34.765-.032-42.221-.078h.047l-1.458 2.075v-.036l.57 1.557.146.4a.325.325 0 0 1 .072.14Z"/><path fill="#263238" d="M79.948 19.07a6.351 6.351 0 1 0-8.981-8.981 6.351 6.351 0 0 0 8.981 8.982Z"/><path fill="#fff" d="m105.753 12.687-2.729 4.192h2.382l2.947-4.192h-2.6Zm-2.651 0-2.729 4.192h1.401l2.916-4.192h-1.588Z" opacity=".3"/><path fill="#E0E0E0" d="M79.659 13.631a2.698 2.698 0 0 0-.68-1.453 2.548 2.548 0 0 0-1.339-.83 2.127 2.127 0 0 0-1.619.311 2.076 2.076 0 0 0-.664.747 2.075 2.075 0 0 0-2.236-.99c-.521.123-.99.408-1.339.814a2.72 2.72 0 0 0-.695 1.453 3.28 3.28 0 0 0 .4 2.003 4.614 4.614 0 0 0 1.556 1.489c1.038.628 2.397 1.416 2.397 1.416s1.173-.86 2.21-1.478a4.636 4.636 0 0 0 1.594-1.48 3.28 3.28 0 0 0 .415-2.002Z"/><path fill="#263238" d="M75.461 18.607s-1.375-.794-2.397-1.416a4.601 4.601 0 0 1-1.583-1.495 3.263 3.263 0 0 1-.4-2.013 2.697 2.697 0 0 1 .696-1.453 2.594 2.594 0 0 1 1.349-.825 2.134 2.134 0 0 1 1.63.327c.247.171.454.394.606.654a2.12 2.12 0 0 1 .654-.732 2.137 2.137 0 0 1 1.635-.311c.522.133.99.423 1.344.83.371.406.609.917.68 1.463a3.223 3.223 0 0 1-.41 2.008 4.593 4.593 0 0 1-1.614 1.48 27.056 27.056 0 0 0-2.19 1.478v.005Zm-1.915-7.223a1.902 1.902 0 0 0-.42.042 2.595 2.595 0 0 0-1.334.814c-.378.4-.62.908-.69 1.453-.085.69.053 1.388.395 1.993a4.573 4.573 0 0 0 1.556 1.489 140.67 140.67 0 0 0 2.387 1.411c.099-.072 1.204-.887 2.19-1.473a4.52 4.52 0 0 0 1.583-1.48 3.15 3.15 0 0 0 .41-1.986 2.656 2.656 0 0 0-.675-1.448 2.563 2.563 0 0 0-1.297-.835 2.106 2.106 0 0 0-1.614.306c-.274.193-.5.447-.659.742a2.149 2.149 0 0 0-.612-.665 2.076 2.076 0 0 0-1.22-.363Z"/><path fill="#263238" d="M254.07 133.638c0-.887-.041-50.29-.109-128.569l.109.11H65.01l.136-.136v128.569l-.12-.125 189.07.125-189.07.124h-.124V4.909h.15l189.018.051h.109v.11c-.046 78.278-.109 127.681-.109 128.568Z"/><path fill="#fff" d="m343.027 73.095 7.28-7.083 2.19 10.814 8.816.503-4.504 8.146 6.356 7.39-9.677 2.2-2.921 9.536-9.174-5.412-9.485 3.959-.457-10.543-11.83.02 10.216-8.11-4.747-8.546 9.521 1.059-.078-10.03 8.494 6.097Z"/><path fill="#263238" d="M343.027 73.095s-.192-.125-.56-.384l-1.65-1.162-6.32-4.5.104-.051c.031 2.786.062 6.175.104 10.03v.099h-.099l-9.527-1.038.104-.156 4.763 8.541.047.088-.078.057-10.211 8.12-.078-.228h11.955v.125c.15 3.362.301 6.922.462 10.544l-.187-.12 6.745-2.817 2.74-1.142.062-.026.057.037 9.174 5.386-.197.072 2.926-9.532v-.072h.073l9.677-2.195-.067.197-6.351-7.389-.052-.062.041-.068 4.509-8.146.089.156-8.821-.52h-.073v-.067c-.851-4.261-1.572-7.87-2.164-10.823l.104.03-5.427 5.21-1.401 1.344c-.312.301-.473.441-.473.441s.156-.166.467-.477c.312-.312.784-.768 1.391-1.37l5.376-5.282.083-.083.026.114c.601 2.95 1.34 6.555 2.215 10.813l-.083-.072 8.821.487h.156l-.083.146-4.494 8.157v-.13l6.362 7.378.135.156-.203.047-9.672 2.21.094-.088c-.95 3.113-1.925 6.278-2.922 9.532l-.046.161-.146-.083a4687.252 4687.252 0 0 1-9.173-5.412h.119l-2.74 1.141-6.745 2.818-.177.072v-.192c-.155-3.632-.311-7.176-.451-10.543l.13.13h-12.194l.285-.224c3.596-2.848 7.036-5.578 10.227-8.1l-.031.146-4.742-8.551-.099-.177h.203l9.521 1.074-.099.088c0-3.855-.041-7.264-.057-10.03v-.13l.104.074 6.258 4.54 1.64 1.193.544.488Z"/><path fill="#8B5FD9" d="m346.011 78.081-.519 9.024a1.465 1.465 0 0 1-1.37 1.375 1.46 1.46 0 0 1-1.557-1.292l-1.037-9.07a1.132 1.132 0 0 1 .288-.898 1.145 1.145 0 0 1 .864-.379h2.205a1.152 1.152 0 0 1 1.126 1.24Zm-4.281 15.484a2.204 2.204 0 0 0 3.18 1.202 2.205 2.205 0 0 0 1.086-2.188 2.193 2.193 0 0 0-1.605-1.842 2.196 2.196 0 0 0-2.548 1.144 2.204 2.204 0 0 0-.113 1.684Z"/><path fill="#263238" d="M208.777 146.89a1.365 1.365 0 0 0-1.152-.176 3.358 3.358 0 0 0-1.063.56c-.437.313-.854.65-1.251 1.012-.222.173-.39.405-.488.669a.554.554 0 0 0 .322.68.798.798 0 0 0 .581-.161 19.725 19.725 0 0 0 3.082-2.278m10.565-2.781a1.37 1.37 0 0 0-.976-.643 3.332 3.332 0 0 0-1.198.072c-.527.1-1.047.233-1.557.4a1.48 1.48 0 0 0-.721.405.547.547 0 0 0 0 .752.781.781 0 0 0 .596.093 19.199 19.199 0 0 0 3.747-.794"/><path fill="#FFBF9D" d="m241.545 150.652 13.776 1.956 18.363-7.752 3.829 11.224-21.253 8.245-21.591-7.078 6.876-6.595Z"/><path fill="#8B5FD9" d="m269.009 149.376-1.557-3.14s21.02-9.039 20.719-8.94c-.301.099-17.683 13.263-17.683 13.263l-1.479-1.183Z"/><path fill="#FFBF9D" d="M241.545 150.678s-4.177-6.995-5.153-7.628c-.975-.633-9.423-2.952-10.108-2.677-.685.275-10.471 2.807-9.231 3.892 1.24 1.084 8.059-.774 8.059-.774l.97.384s-5.905 1.453-7.104 2.289c-1.105.768-.591 2.153.519 1.951 1.111-.203 6.201-1.65 6.528-1.458.327.192-5.537 1.873-6.149 2.304-.82.586-.778 2.127.306 1.961.638-.099 6.144-2.019 6.144-2.019s-4.317 2.076-4.696 2.517c-.623.695 0 1.619.939 1.328.654-.202 3.679-1.971 4.551-2.236 0 0 .851.15 1.743 1.769.893 1.619 9.065 8.562 9.065 8.562l3.617-10.165Z"/><path fill="#8B5FD9" d="M236.61 150.294a3.278 3.278 0 0 0-1.069-1.334c-7.985-5.961-18.83-6.159-27.739-1.862a7.424 7.424 0 0 0-3.632 4.151c-.561 1.707.093 3.803 1.842 3.383l11.218 5.043c.262.081.531.136.804.166 3.072.431 5.677-1.961 5.9-5.059.145-1.914 2.651-2.158 5.064-1.857 1.157.145 4.027.55 5.189.472 1.515-.099 3.181-1.277 2.423-3.103Z"/><path fill="#263238" d="M227.924 150.071c1.226 0 2.221-.328 2.221-.732 0-.404-.995-.731-2.221-.731-1.227 0-2.221.327-2.221.731 0 .404.994.732 2.221.732Zm0-1.52c1.226 0 2.221-.384 2.221-.857 0-.472-.995-.856-2.221-.856-1.227 0-2.221.384-2.221.856 0 .473.994.857 2.221.857Z"/><path fill="#263238" d="m228.936 149.427-1.723-.046v-1.63l1.723.047v1.629Z"/><path fill="#455A64" d="M230.114 147.829c0 .026-.161.229-.519.426a3.807 3.807 0 0 1-1.598.415 3.455 3.455 0 0 1-1.625-.306c-.389-.192-.57-.395-.55-.415.021-.021.244.103.623.238a4.177 4.177 0 0 0 1.557.213 4.917 4.917 0 0 0 1.53-.316c.338-.146.55-.291.582-.255Z"/><path fill="#455A64" d="M227.197 149.277c-.072 0-.134-.161-.134-.368 0-.208.062-.364.134-.364.073 0 .135.161.135.364 0 .202-.057.368-.135.368Zm1.676-.062c-.077 0-.134-.161-.134-.363 0-.203.057-.369.134-.369.078 0 .135.166.135.369 0 .202-.062.363-.135.363Z"/><path fill="#263238" d="M219.305 152.406c0 .405-.991.737-2.221.737-1.229 0-2.22-.332-2.22-.737 0-.405.991-.732 2.22-.732 1.23 0 2.221.327 2.221.732Zm0-1.645c0 .472-.991.856-2.221.856-1.229 0-2.22-.384-2.22-.856s.991-.856 2.22-.856c1.23 0 2.221.384 2.221.856Z"/><path fill="#263238" d="m218.086 152.499-1.723-.046v-1.635l1.723.047v1.634Z"/><path fill="#455A64" d="M219.259 150.896c0 .026-.156.228-.519.431a3.904 3.904 0 0 1-1.598.41 3.49 3.49 0 0 1-1.63-.307c-.384-.186-.565-.389-.545-.415.021-.026.239.109.618.239.501.168 1.029.24 1.557.213a4.77 4.77 0 0 0 1.556-.317c.18-.099.368-.184.561-.254Z"/><path fill="#455A64" d="M216.348 152.349c-.073 0-.135-.166-.135-.369 0-.202.062-.368.135-.368.072 0 .135.166.135.368 0 .203-.058.369-.135.369Zm1.67-.062c-.072 0-.134-.167-.134-.369 0-.202.062-.368.134-.368.073 0 .135.166.135.368 0 .202-.057.369-.135.369Z"/><path fill="#FFBF9D" d="M239.282 150.943c-.56.617-1.556.56-2.309.192-.752-.369-1.339-.976-2.075-1.396-2.138-1.251-5.023-.67-7.099-2.029-.29-.187-.586-.519-.461-.835.124-.317.518-.364.819-.384l8.199-.483"/><path fill="#FF9A6C" d="M236.376 146.008a3.066 3.066 0 0 0-.892-.041c-.571 0-1.401.031-2.423.072l-3.586.161-1.037.052a1.63 1.63 0 0 0-1.183.353.69.69 0 0 0-.068.773c.11.199.267.368.457.493.337.224.699.408 1.079.55 1.557.555 3.051.555 4.338.856a6.175 6.175 0 0 1 1.743.623c.519.285.934.643 1.365.934a2.892 2.892 0 0 0 2.366.622c.597-.166.768-.519.747-.519a2.363 2.363 0 0 1-.783.338 2.807 2.807 0 0 1-2.138-.716c-.405-.296-.825-.675-1.36-1.002a6.438 6.438 0 0 0-1.842-.705c-1.338-.333-2.859-.353-4.27-.877a4.986 4.986 0 0 1-.981-.488c-.28-.192-.436-.472-.301-.592.135-.119.519-.181.857-.202l1.037-.067 3.581-.265a73.344 73.344 0 0 0 2.412-.218c.299-.007.595-.053.882-.135Zm-19.302-1.743a4.757 4.757 0 0 0 1.852.347c.694.038 1.389.009 2.076-.088.752-.145 1.557-.332 2.434-.519l1.831-.425h-.114c2.522.669 4.364 1.089 4.395.986.031-.104-1.764-.691-4.281-1.417h-.109l-1.821.4-2.402.56c-.656.11-1.318.17-1.983.182-1.157.005-1.868-.099-1.878-.026Z"/><path fill="#263238" d="M294.927 132.704a.631.631 0 0 1-.13.078l-.399.207-1.557.784-5.65 2.823a21.792 21.792 0 0 0-3.752 2.184l-4.099 2.875-9.413 6.564-5.707 3.959.026-.187 9.646 12.941c1.183 1.603 2.132 2.89 2.796 3.798.317.431.561.773.742 1.038l.187.269c.042.063.062.094.057.094-.005 0-.026 0-.078-.083l-.202-.254-.778-.997-2.828-3.767-9.703-12.884-.083-.109.114-.077 5.682-3.959 9.422-6.554 4.12-2.849a21.674 21.674 0 0 1 3.793-2.174l5.708-2.75 1.557-.731.405-.187a.614.614 0 0 1 .124-.052Z"/><path fill="#000" d="M211.719 146.76a.517.517 0 0 0-.38.457.52.52 0 0 0 .297.514c1.178.591 2.942 1.421 3.684 1.484 1.157.109 7.083-1.334 7.239-1.775.155-.441-3.918-2.475-4.826-2.381-.654.067-4.135 1.12-6.014 1.701Z" opacity=".3"/><path fill="#263238" d="M300.65 83.602a3.627 3.627 0 0 0-3.782-1.759 4.935 4.935 0 0 0-6.066.239 4.385 4.385 0 0 0-6.538 3.72 3.672 3.672 0 0 0-3.767 2.012 3.668 3.668 0 0 0 .69 4.215 3.516 3.516 0 0 0-.845 6.233c.722.494 1.603.7 2.469.58l17.269-11.125a3.634 3.634 0 0 0 .57-4.115Z"/><path fill="#FFBF9D" d="M282.308 99.36A14.944 14.944 0 0 1 296.92 85.3h.773c8.349.316 12.749 7.586 12.199 15.924v31.46l.861 3.113-9.579 10.28-12.453-5.376 2.325-4.987-1.121-8.162s-8.048-1.079-8.302-9.096c-.135-3.87.254-11.882.685-19.094Z"/><path fill="#FF9A6C" d="M289.925 127.551a19.305 19.305 0 0 0 10.378-3.3s-1.941 6.896-9.958 6.341l-.42-3.041Z"/><path fill="#263238" d="M284.804 106.142a1.152 1.152 0 0 0 1.131 1.137 1.096 1.096 0 0 0 1.157-1.038 1.148 1.148 0 0 0-1.126-1.131 1.102 1.102 0 0 0-.796.274 1.09 1.09 0 0 0-.366.758Zm-.69-2.89c.145.146 1.001-.519 2.231-.519s2.148.576 2.278.426c.062-.068-.083-.337-.483-.612a3.11 3.11 0 0 0-1.832-.519 3.013 3.013 0 0 0-1.769.612c-.374.27-.498.545-.425.612Zm11.467 3.238a1.144 1.144 0 0 0 1.126 1.131 1.095 1.095 0 0 0 1.157-1.038 1.139 1.139 0 0 0-1.126-1.136 1.087 1.087 0 0 0-.798.278 1.093 1.093 0 0 0-.359.765Zm.648-3.259c.146.146 1.002-.518 2.232-.518 1.229 0 2.148.576 2.277.42.063-.068-.083-.332-.487-.612a3.166 3.166 0 0 0-1.827-.519 3.01 3.01 0 0 0-1.769.612c-.374.28-.498.55-.426.617Zm-4.28 9.231c0-.072-.763-.186-2.008-.321-.317 0-.613-.083-.67-.296a1.558 1.558 0 0 1 .187-.939l.882-2.413c1.225-3.44 2.102-6.263 1.962-6.31-.141-.046-1.241 2.699-2.465 6.139-.291.844-.571 1.653-.841 2.428-.187.383-.237.82-.14 1.235a.816.816 0 0 0 .519.451c.17.043.344.064.519.063a8.265 8.265 0 0 0 2.055-.037Zm9.34-11.825c-.089-.342-1.194-.259-2.47-.519-1.277-.26-2.289-.726-2.481-.436-.083.135.078.462.473.815a3.902 3.902 0 0 0 1.805.856 3.77 3.77 0 0 0 1.962-.124c.482-.182.736-.431.711-.592Zm-12.609-.254c-.265-.28-1.277 0-2.501.041-1.225.042-2.263-.176-2.496.12-.104.14.062.42.519.685a4.227 4.227 0 0 0 4.026-.13c.426-.291.566-.581.452-.716Z"/><path fill="#263238" d="M283.003 95.677s2.013-5.065 4.411-6.29c2.9-1.473 4.229 1.718 7.005.878 2.776-.841 5.546-2.258 8.447-.156 3.175 2.299 1.743 3.99 2.008 7.54 1.079 14.409 3.798 18.43 4.405 11.622.068-.747 2.123-1.38 2.361-4.53.317-4.083.369-9.038-.596-11.934-.82-2.423-2.242-4.078-4.774-5.89-3.996-2.848-9.408-2.801-13.071-2.355-3.663.446-10.658 4.83-10.196 11.115Z"/><path fill="#FFBF9D" d="M308.766 109.059a2.167 2.167 0 0 1 2.303-2.143c1.5.108 3.181.923 3.145 4.016-.062 5.484-5.557 4.291-5.562 4.151-.006-.14.067-3.731.114-6.024Z"/><path fill="#FF9A6C" d="M309.871 113.018s.093.067.254.14c.225.1.48.109.711.026.586-.208 1.084-1.121 1.121-2.112a3.07 3.07 0 0 0-.255-1.37 1.095 1.095 0 0 0-.705-.742.528.528 0 0 0-.328.031.526.526 0 0 0-.243.223c-.073.156-.041.265-.067.275-.026.011-.12-.093-.073-.322a.618.618 0 0 1 .218-.342.727.727 0 0 1 .519-.13 1.33 1.33 0 0 1 .986.862c.228.477.337 1.002.316 1.53-.052 1.106-.628 2.133-1.422 2.351a1.03 1.03 0 0 1-.871-.151c-.156-.14-.182-.264-.161-.269Z"/><path fill="#263238" d="M308.439 98.442a5.239 5.239 0 0 1-2.299 1.121c-.856.099-1.847-.374-2.008-1.22-.073-.378 0-.824-.244-1.115-.244-.29-.856-.223-1.318-.166-1.588.202-3.487-1.52-3.923-3.061a1.429 1.429 0 0 1-1.904.435 5.19 5.19 0 0 1-1.344-1.146c-.493-.52-1.178-1.038-1.904-.903a5.111 5.111 0 0 1-1.183.285c-.721-.046-1.09-.882-1.214-1.593-.125-.71-.229-1.556-.846-1.92-.618-.363-1.297-.13-1.956 0s-1.521 0-1.707-.669a1.32 1.32 0 0 1 .228-1.001 3.55 3.55 0 0 1 4.151-1.433 4.812 4.812 0 0 1 8.821-1.11 4.883 4.883 0 0 1 7.84 1.619 3.546 3.546 0 0 1 4.496 3.069 3.537 3.537 0 0 1-.397 2c.997.52 1.858 1.505 1.905 2.636.046 1.132-1.038 2.289-2.143 2.014a1.966 1.966 0 0 1-.737 2.56 1.96 1.96 0 0 1-2.61-.537"/><path fill="#455A64" d="M290.605 87.665v.099c.005.097.017.194.036.29.083.367.225.717.42 1.038.311.514.738.95 1.246 1.271a3.63 3.63 0 0 0 2.257.597l-.099-.12a2.003 2.003 0 0 0 .146 1.51c.253.49.578.937.965 1.329.183.228.392.436.622.617.264.171.565.276.877.306a2.021 2.021 0 0 0 1.754-.669l-.207-.057a4.15 4.15 0 0 0 1.8 2.812 3.006 3.006 0 0 0 1.811.55 5.33 5.33 0 0 0 1.769-.425l-.15-.062a4.291 4.291 0 0 0 1.333 1.665 2.304 2.304 0 0 0 1.92.483 3.035 3.035 0 0 0 2.278-2.413l-.124.062a2.81 2.81 0 0 0 1.888.239c.476-.1.922-.31 1.303-.612.237-.192.439-.424.596-.685.056-.09.101-.186.135-.286a3.195 3.195 0 0 1-.788.898c-.376.28-.811.47-1.272.555a2.74 2.74 0 0 1-1.785-.254l-.103-.057v.114a2.855 2.855 0 0 1-2.159 2.236 2.075 2.075 0 0 1-1.743-.456 4.112 4.112 0 0 1-1.251-1.583l-.047-.098-.098.036a5.154 5.154 0 0 1-1.692.41 2.778 2.778 0 0 1-1.67-.519 3.881 3.881 0 0 1-1.708-2.646l-.036-.26-.166.208a1.775 1.775 0 0 1-1.557.586 1.674 1.674 0 0 1-.773-.26 4.14 4.14 0 0 1-.591-.58 5.665 5.665 0 0 1-.945-1.272 1.816 1.816 0 0 1-.145-1.364l.042-.13h-.135a3.544 3.544 0 0 1-2.164-.519 3.976 3.976 0 0 1-1.235-1.204 4.235 4.235 0 0 1-.555-1.38Z"/><path fill="#FF9A6C" d="M295 115.192a2.295 2.295 0 0 0-.67-.654 2.119 2.119 0 0 0-1.702-.114 3.342 3.342 0 0 0-1.323.866c-.643.67-.436 1.355-.192 2.906 1.557-.306 3.114 0 4.546-.612a3.736 3.736 0 0 0-.659-2.392Z"/><path fill="#263238" d="M291.113 118.196a6.273 6.273 0 0 1 1.754-.317c.545-.057 1.188-.108 1.899-.217l.265-.047c.084-.009.168-.027.249-.052a.337.337 0 0 0 .254-.291c.016-.174 0-.35-.047-.518a11.399 11.399 0 0 0-.15-.592 2.954 2.954 0 0 0-.488-1.038 1.463 1.463 0 0 0-.851-.519 2.773 2.773 0 0 0-.97 0 3.527 3.527 0 0 0-.835.198 2.031 2.031 0 0 0-.981.726c-.171.239-.234.405-.26.394a.893.893 0 0 1 .146-.467c.23-.393.584-.699 1.006-.871.283-.125.582-.21.888-.255a2.853 2.853 0 0 1 1.074 0c.409.082.776.304 1.038.628.257.344.443.736.55 1.152.057.208.103.41.15.607.061.216.077.442.047.664a.69.69 0 0 1-.166.343.733.733 0 0 1-.307.187c-.098.03-.198.051-.3.062l-.275.041c-.727.094-1.381.125-1.926.151-1.084-.005-1.753.083-1.764.031Z"/><path fill="#FF9A6C" d="M300.08 108.981c-.047.088-.763-.281-1.723-.322-.96-.042-1.712.239-1.754.145-.041-.093.151-.166.467-.29a3.344 3.344 0 0 1 2.595.135c.285.15.435.295.415.332Zm-12.314.02c-.041.089-.726-.202-1.613-.197-.888.005-1.557.265-1.614.177-.057-.089.13-.166.42-.291.382-.15.789-.226 1.199-.223.41.001.816.084 1.193.244.286.124.447.254.415.29Zm3.321-7.404c0-.042.109-.145.26-.342.199-.248.327-.546.368-.862a1.795 1.795 0 0 0-.166-.918c-.109-.223-.207-.358-.176-.395.031-.036.197.042.373.27a1.511 1.511 0 0 1-.228 2.076c-.228.176-.41.207-.431.171Zm2.543.073c-.036 0-.177-.073-.332-.291a2.272 2.272 0 0 1-.363-.986 2.22 2.22 0 0 1 .114-1.038c.098-.254.207-.378.249-.363.041.016-.13.633-.031 1.37.098.737.436 1.245.363 1.308Z"/><path fill="#455A64" d="M305.839 87.603c.088.374.13.757.125 1.141.026.314-.046.628-.208.898-.212.218-.5.345-.804.353a4.146 4.146 0 0 1-1.105-.094.197.197 0 0 0-.149.03.197.197 0 0 0-.055.275.197.197 0 0 0 .126.085c.731.135 1.748.28 2.288-.39.218-.318.325-.699.306-1.084a5.193 5.193 0 0 0-.145-1.35c-.062-.248-.441-.113-.379.136Zm1.287-.197a4.73 4.73 0 0 0 .047 1.354c.031.386.19.751.451 1.038.623.586 1.614.3 2.32.067a.2.2 0 0 0 .094-.104.202.202 0 0 0-.224-.274 4.128 4.128 0 0 1-1.085.248 1.147 1.147 0 0 1-.845-.238 1.492 1.492 0 0 1-.332-.856 4.488 4.488 0 0 1-.032-1.152c0-.255-.368-.333-.394-.078v-.005Zm.908 6.195a4.665 4.665 0 0 1-.124-1.141 1.471 1.471 0 0 1 .207-.893 1.148 1.148 0 0 1 .804-.358c.372-.02.744.014 1.106.099a.204.204 0 0 0 .214-.163.2.2 0 0 0-.137-.232c-.731-.135-1.748-.28-2.288.39a1.776 1.776 0 0 0-.306 1.084c-.014.454.035.908.145 1.349.063.249.441.114.379-.135Zm-1.292.197a4.73 4.73 0 0 0-.047-1.354 1.77 1.77 0 0 0-.451-1.038c-.628-.586-1.614-.3-2.325-.067a.205.205 0 0 0-.098.105.2.2 0 0 0-.003.144.2.2 0 0 0 .236.13 4.124 4.124 0 0 1 1.085-.25 1.13 1.13 0 0 1 .84.24c.202.24.319.541.332.855.062.381.074.768.037 1.152 0 .254.368.337.394.078v.005Z"/><path fill="#FF9A6C" d="M294.496 121.003c-.031.042-.233-.062-.565-.181a4.197 4.197 0 0 0-1.349-.239 4.122 4.122 0 0 0-1.349.218c-.332.114-.519.218-.566.176-.047-.041.135-.213.472-.394a3.15 3.15 0 0 1 2.885.026c.337.181.519.363.472.394Z"/><path fill="#455A64" d="m214.983 203.936-10.025 13.206s-16.786-5.755-18.861-3.498L211.003 234l16.459-19.93-12.479-10.134Z"/><path fill="#E0E0E0" d="M213.546 222.356a1.313 1.313 0 0 1-.249 1.733 1.256 1.256 0 0 1-.907.23 1.257 1.257 0 0 1-.816-.458 1.38 1.38 0 0 1 .27-1.832c.55-.337 1.52-.16 1.764.436M211.003 234l1.635-1.982-24.523-18.83s-1.504-.426-2.018.456L211.003 234Z"/><path fill="#263238" d="M204.662 216.685c-.098.124.467.674.742 1.557.275.882.182 1.65.333 1.696.15.047.518-.809.186-1.868-.332-1.058-1.198-1.494-1.261-1.385Zm-3.518-1.053c-.124.093.234.731.229 1.582-.005.851-.332 1.495-.208 1.588.125.093.763-.519.753-1.593-.011-1.074-.654-1.671-.774-1.577Zm-4.016 1.909c.088.119.753-.353.986-1.271.234-.919-.119-1.65-.254-1.593-.135.057-.073.706-.275 1.458s-.592 1.297-.457 1.406Zm10.15-3.611c-.037.15.659.441 1.307 1.037.649.597 1.007 1.261 1.157 1.209.151-.051 0-.908-.788-1.613-.789-.706-1.656-.779-1.676-.633Zm2.07-2.626c-.042.047.379.519 1.256 1.038a7.307 7.307 0 0 0 1.629.664c.341.093.687.162 1.038.208.204.032.413.032.617 0a.699.699 0 0 0 .586-.602.872.872 0 0 0-.306-.716 2.189 2.189 0 0 0-.519-.317 5.666 5.666 0 0 0-.996-.368 5.829 5.829 0 0 0-1.764-.187c-1.038.062-1.588.358-1.557.415.032.057.613-.067 1.557-.026a6.581 6.581 0 0 1 1.624.28c.308.098.609.219.898.363.321.151.545.333.519.519 0 .063-.026.083-.14.12-.152.02-.306.02-.457 0a8.6 8.6 0 0 1-2.548-.685c-.887-.426-1.385-.773-1.437-.706Z"/><path fill="#263238" d="M209.369 211.605c0 .057.622-.182 1.313-.934.397-.445.716-.954.944-1.505.137-.334.238-.682.301-1.037a1.333 1.333 0 0 0-.28-1.282.758.758 0 0 0-.805-.078 2.204 2.204 0 0 0-.519.353 3.425 3.425 0 0 0-.684.841 3.618 3.618 0 0 0-.519 1.722c-.042 1.038.347 1.604.394 1.557a12.256 12.256 0 0 1 0-1.557 3.711 3.711 0 0 1 .566-1.494c.17-.261.376-.497.612-.701.254-.233.519-.363.607-.259a.92.92 0 0 1 .099.768c-.05.317-.132.628-.244.929a5.728 5.728 0 0 1-.773 1.442c-.566.815-1.064 1.162-1.012 1.235Z"/><path fill="#455A64" d="m198.882 202.519-10.86 13.408s-17.279-6.532-19.526-4.249l25.244 21.985 17.782-20.2-12.64-10.944Z"/><path fill="#E0E0E0" d="M196.781 221.635a1.36 1.36 0 0 1-.312 1.795 1.314 1.314 0 0 1-1.785-.29 1.448 1.448 0 0 1 .343-1.904c.581-.333 1.582-.12 1.821.518m-3.108 11.909 1.769-2.003-24.906-20.392s-1.557-.493-2.112.41l25.249 21.985Z"/><path fill="#263238" d="M187.726 215.445c-.104.124.462.716.727 1.645.264.928.129 1.722.285 1.774.156.052.597-.825.259-1.94-.337-1.116-1.198-1.619-1.271-1.479Zm-3.601-1.214c-.135.098.218.773.182 1.655-.037.882-.395 1.556-.27 1.645.124.088.815-.519.841-1.63.025-1.11-.649-1.785-.753-1.67Zm-4.255 1.862c.088.125.794-.342 1.069-1.297.275-.955-.073-1.717-.213-1.66-.14.057-.098.726-.337 1.505-.239.778-.643 1.333-.519 1.452Zm10.668-3.429c-.046.155.67.477 1.324 1.131.653.654 1.006 1.349 1.162 1.297.156-.052 0-.944-.763-1.702s-1.697-.877-1.723-.726Zm2.242-2.667c-.047.051.374.55 1.271 1.094a7.628 7.628 0 0 0 2.714.991c.211.046.428.058.643.037a.713.713 0 0 0 .628-.607.916.916 0 0 0-.295-.753 2.376 2.376 0 0 0-.519-.347 6.278 6.278 0 0 0-1.038-.415 5.978 5.978 0 0 0-1.832-.25c-1.037.032-1.66.322-1.639.379.02.057.643-.046 1.629.026a6.899 6.899 0 0 1 1.681.343c.316.113.623.25.918.41.327.166.561.358.519.518 0 .068 0 .089-.15.115a1.59 1.59 0 0 1-.472-.026 8.847 8.847 0 0 1-2.631-.794c-.846-.41-1.365-.789-1.427-.721Z"/><path fill="#263238" d="M192.785 210.313c.026.057.659-.171 1.396-.929a5.448 5.448 0 0 0 1.38-2.594 1.367 1.367 0 0 0-.249-1.339.778.778 0 0 0-.835-.109 2.3 2.3 0 0 0-.519.348 3.869 3.869 0 0 0-1.339 2.631c-.078 1.084.312 1.676.358 1.644.047-.031-.129-.638.042-1.593a3.892 3.892 0 0 1 .633-1.556c.186-.265.408-.502.659-.706.275-.239.565-.363.638-.249a.949.949 0 0 1 .083.799 5.379 5.379 0 0 1-.285.955 6.1 6.1 0 0 1-.851 1.479c-.628.794-1.163 1.141-1.111 1.219Zm14.389-5.521c-.519-.908 19.634 13.045 19.634 13.045l19.012-21.108 35.518 35.803 2.952-15.173 5.391-33.14-30.292-30.153s-5.038-4.919-12.676-.596c-6.263 3.544-39.539 51.322-39.539 51.322Z"/><path fill="#263238" d="m189.76 208.227 36.125-46.507s9.615-9.086 19.686-6.315c6.003 1.65 40.156 34.978 40.156 34.978l10.622 4.307 16.215 27.817s-20.397 18.55-35.243 7.809c-13.921-10.072-38.428-41.962-38.428-41.962l-30.458 33.359-18.675-13.486Z"/><path fill="#455A64" d="M262.336 216.223a.993.993 0 0 1-.135-.124l-.373-.39a40.377 40.377 0 0 1-1.407-1.556 386.762 386.762 0 0 1-5.043-5.843c-4.239-4.981-10.082-11.97-16.604-19.878h.249c-.929 1.038-1.91 2.153-2.901 3.274-7.477 8.447-14.362 15.997-19.411 21.393a446.764 446.764 0 0 1-6.019 6.346 217.37 217.37 0 0 1-1.671 1.692l-.441.436c-.097.097-.149.143-.156.14a.908.908 0 0 1 .135-.161l.415-.457 1.63-1.733 5.951-6.418c4.997-5.438 11.831-13.009 19.318-21.43l2.901-3.274.124-.135.114.14a4443.248 4443.248 0 0 0 16.527 19.946l4.971 5.9 1.364 1.556.353.405c.044.052.08.11.109.171Zm33.478.56a3.495 3.495 0 0 1-.788-.311 10.035 10.035 0 0 1-1.962-1.23 11.245 11.245 0 0 1-3.191-13.843c.332-.701.743-1.36 1.225-1.967.165-.229.357-.438.571-.623a17.625 17.625 0 0 0-1.588 2.683 11.364 11.364 0 0 0 3.113 13.579 18.927 18.927 0 0 0 2.62 1.712Zm-29.809-45.23c.057-.063 4.389 4.187 9.666 9.49s9.506 9.651 9.444 9.713c-.062.063-4.395-4.187-9.672-9.49-5.277-5.303-9.516-9.651-9.438-9.713Z"/><path fill="#8B5FD9" d="M327.752 149.199c-6.113-16.604-17.45-22.971-17.45-22.971l-18.81 8.074-5.422 2.595c-.653.312-1.279.676-1.873 1.089l-20.008 13.937 13.532 18.047 9.703-6.543s1.868 9.895 1.479 13.455c-.628 5.749-4.151 14.061-4.151 14.061s14.051 14.799 16.199 22.499c2.148 7.7 11.644 11.286 16.122 11.104 4.478-.182 1.074-3.222 1.074-3.222s8.442-10.617 10.772-24.766c2.33-14.15 3.259-35.373-1.167-47.359Z"/><path fill="#263238" d="M307.235 215.071a1.52 1.52 0 0 1-.156-.306l-.389-.898a96.44 96.44 0 0 0-1.458-3.279 88.601 88.601 0 0 0-2.392-4.748 86.976 86.976 0 0 0-3.321-5.598c-1.245-1.941-2.542-3.731-3.751-5.324a76.154 76.154 0 0 0-3.357-4.125c-.997-1.137-1.811-2.076-2.392-2.678l-.665-.721c-.15-.166-.223-.254-.212-.265.093.066.18.141.259.224l.701.679a64.734 64.734 0 0 1 2.475 2.595c1.017 1.115 2.184 2.511 3.419 4.094a76.119 76.119 0 0 1 7.098 10.964 66.065 66.065 0 0 1 2.335 4.794c.607 1.391 1.08 2.532 1.37 3.326l.337.924c.05.108.083.224.099.342Z"/><path fill="#000" d="M311.697 209.986c-.726-1.826-2.392-3.082-3.928-4.307-6.174-4.924-11.415-10.896-16.656-16.806l13.491 19.582c.426 1.329.872 3.43 1.64 4.593.768 1.162 2.158 2.075 3.518 1.753 1.93-.425 2.662-2.988 1.935-4.815Z" opacity=".3"/><path fill="#263238" d="M294.912 158.98a16.616 16.616 0 0 0 2.661-2.667 13.194 13.194 0 0 0 1.946-3.575 12.313 12.313 0 0 0-.488-9.703 13.172 13.172 0 0 0-2.288-3.362 16.58 16.58 0 0 0-2.916-2.387c.084.026.164.063.239.109.15.088.384.197.654.378.786.502 1.51 1.094 2.158 1.765.97.995 1.774 2.139 2.382 3.388a12.365 12.365 0 0 1 .493 9.895 13.02 13.02 0 0 1-2.024 3.632 11.945 11.945 0 0 1-1.972 1.972c-.254.213-.477.342-.617.446-.073.044-.149.08-.228.109Z"/><path fill="#FFBF9D" d="m225.428 156.822-3.425 9.179a28.811 28.811 0 0 1-5.868-.312c-3.482-.607-7.399-4.286-9.693-5.962a3.79 3.79 0 0 1-1.593-4.011l-2.392-1.676c-2.522-2.003 0-3.17 0-3.17l10.933 3.44 7.264 1.038 4.753 1.458"/><path fill="#FF9A6C" d="M204.258 155.467c-.057.088 1.198.945 2.796 1.899 1.599.955 2.943 1.666 2.994 1.557.052-.109-1.193-.944-2.796-1.904-1.604-.96-2.927-1.645-2.994-1.552Z"/><path fill="#FFBF9D" d="M225.48 156.681c.088.343 29.467 1.801 29.467 1.801l9.989-5.562 9.578 12.769s-12.811 6.782-15.187 7.301c-2.377.519-40.541-7.264-40.541-7.264l6.694-9.045Zm-3.025-3.455a6.38 6.38 0 0 0-1.676-1.038l-3.887-1.847a1.236 1.236 0 0 0-.742-.172c-.487.104-.638.722-.653 1.22a12.127 12.127 0 0 0 1.203 5.708l7.747-.966c-.768-.866-1.12-2.091-1.992-2.905Z"/></svg>