<svg width="33" height="27" viewBox="0 0 33 27" fill="none" xmlns="http://www.w3.org/2000/svg">
<path d="M17.7356 26.4329C17.5511 26.2538 17.4047 26.041 17.3047 25.8066C17.2048 25.5723 17.1534 25.321 17.1534 25.0673C17.1534 24.8135 17.2048 24.5623 17.3047 24.3279C17.4047 24.0936 17.5511 23.8807 17.7356 23.7016L26.2298 15.4289L1.97961 15.4289C1.45459 15.4289 0.951064 15.2258 0.579814 14.8642C0.208568 14.5026 -6.12495e-07 14.0122 -5.90144e-07 13.5009C-5.67792e-07 12.9896 0.208568 12.4992 0.579814 12.1376C0.951065 11.776 1.45459 11.5729 1.97961 11.5729L26.2298 11.5729L17.7356 3.297C17.3638 2.9348 17.1548 2.44356 17.1548 1.93134C17.1548 1.41912 17.3638 0.927872 17.7357 0.565676C18.1075 0.203479 18.6119 -6.23525e-07 19.1379 -6.05933e-07C19.6638 -5.88341e-07 20.1682 0.203479 20.5401 0.565676L32.4178 12.1336C32.6023 12.3128 32.7487 12.5256 32.8487 12.7599C32.9486 12.9943 33 13.2456 33 13.4993C33 13.7531 32.9486 14.0043 32.8487 14.2387C32.7487 14.473 32.6023 14.6859 32.4178 14.865L20.5401 26.4329C20.3562 26.6127 20.1376 26.7553 19.897 26.8526C19.6564 26.9499 19.3984 27 19.1379 27C18.8773 27 18.6193 26.9499 18.3787 26.8526C18.1381 26.7553 17.9196 26.6127 17.7356 26.4329Z" fill="white"/>
</svg>
