<svg width="407" height="250" viewBox="0 0 407 250" fill="none" xmlns="http://www.w3.org/2000/svg">
<path d="M337.711 23.5148C327.97 17.9106 317.678 13.3238 306.999 9.82692C284.824 2.58375 261.315 -0.250789 238.04 0.0172655C172.39 0.792913 150.757 33.0393 108.256 32.2808C65.7552 31.5222 12.555 59.3828 9.20713 107.039C5.8593 154.696 18.3324 180.281 56.2649 200.397C94.1975 220.512 161.382 191.671 216.031 201.155C270.68 210.64 320.401 225.063 357.963 203.054C393.631 182.157 406.892 135.681 397.635 96.9731C389.953 64.9492 365.645 39.5753 337.711 23.5148Z" fill="#8B5FD9"/>
<path opacity="0.7" d="M337.711 23.5148C327.97 17.9106 317.678 13.3238 306.999 9.82692C284.824 2.58375 261.315 -0.250789 238.04 0.0172655C172.39 0.792913 150.757 33.0393 108.256 32.2808C65.7552 31.5222 12.555 59.3828 9.20713 107.039C5.8593 154.696 18.3324 180.281 56.2649 200.397C94.1975 220.512 161.382 191.671 216.031 201.155C270.68 210.64 320.401 225.063 357.963 203.054C393.631 182.157 406.892 135.681 397.635 96.9731C389.953 64.9492 365.645 39.5753 337.711 23.5148Z" fill="white"/>
<path d="M334.26 194.368V193.039C333.846 193.052 333.433 192.973 333.052 192.81C332.671 192.646 332.33 192.402 332.053 192.093C331.51 191.32 331.234 190.391 331.266 189.446L333.285 189.104C333.294 189.506 333.343 189.905 333.433 190.296C333.488 190.564 333.614 190.812 333.798 191.015C333.971 191.172 334.198 191.256 334.431 191.249C334.549 191.261 334.667 191.241 334.774 191.191C334.88 191.14 334.971 191.062 335.036 190.963C335.147 190.763 335.204 190.537 335.201 190.308C335.216 189.874 335.099 189.447 334.865 189.081C334.604 188.709 334.293 188.375 333.941 188.089L332.726 187.045C332.461 186.8 332.214 186.537 331.985 186.258C331.761 185.983 331.583 185.673 331.46 185.34C331.325 184.95 331.259 184.538 331.266 184.125C331.243 183.742 331.3 183.358 331.432 182.998C331.565 182.638 331.77 182.309 332.036 182.032C332.593 181.509 333.32 181.205 334.084 181.177V179.905H334.774V181.177C335.219 181.186 335.654 181.308 336.04 181.53C336.35 181.721 336.609 181.985 336.793 182.3C336.964 182.619 337.089 182.961 337.163 183.315C337.234 183.667 337.282 184.024 337.306 184.382L335.258 184.684C335.251 184.371 335.222 184.058 335.173 183.749C335.144 183.517 335.056 183.297 334.916 183.11C334.845 183.031 334.756 182.97 334.657 182.933C334.558 182.895 334.451 182.881 334.346 182.893C334.226 182.892 334.108 182.919 334.002 182.974C333.895 183.029 333.804 183.109 333.736 183.207C333.601 183.405 333.529 183.64 333.53 183.88C333.511 184.259 333.622 184.633 333.844 184.941C334.06 185.216 334.299 185.474 334.557 185.711L335.772 186.72C336.09 187.003 336.382 187.314 336.644 187.65C336.913 187.984 337.13 188.357 337.289 188.756C337.46 189.202 337.543 189.676 337.534 190.154C337.54 190.631 337.435 191.104 337.226 191.534C337.026 191.944 336.718 192.293 336.336 192.543C335.928 192.809 335.459 192.966 334.973 193V194.346L334.26 194.368Z" fill="#263238"/>
<path d="M338.435 192.897V191.334L341.253 187C341.464 186.675 341.663 186.367 341.823 186.07C342.004 185.783 342.157 185.48 342.279 185.163C342.401 184.847 342.463 184.51 342.462 184.171C342.481 183.87 342.405 183.571 342.245 183.315C342.174 183.22 342.081 183.143 341.974 183.092C341.866 183.041 341.748 183.018 341.629 183.024C341.51 183.017 341.39 183.034 341.277 183.074C341.164 183.114 341.061 183.177 340.973 183.258C340.812 183.432 340.704 183.647 340.659 183.88C340.601 184.157 340.572 184.44 340.574 184.724V185.294H338.412V184.724C338.403 184.099 338.511 183.478 338.732 182.893C338.932 182.382 339.287 181.945 339.747 181.644C340.299 181.32 340.933 181.164 341.572 181.194C341.986 181.165 342.402 181.222 342.795 181.359C343.187 181.496 343.547 181.711 343.853 181.992C344.397 182.61 344.674 183.418 344.623 184.239C344.629 184.68 344.557 185.118 344.412 185.534C344.264 185.933 344.072 186.316 343.842 186.675C343.608 187.04 343.357 187.422 343.089 187.815L340.859 191.18H344.281V192.925L338.435 192.897Z" fill="#263238"/>
<path d="M346.038 194.87L345.867 194.14C346.116 194.057 346.345 193.923 346.54 193.747C346.644 193.632 346.724 193.498 346.775 193.352C346.826 193.206 346.847 193.051 346.836 192.897H345.696V190.804H347.772V192.652C347.794 193.205 347.638 193.751 347.327 194.209C347.169 194.402 346.973 194.561 346.752 194.675C346.53 194.788 346.287 194.855 346.038 194.87Z" fill="#263238"/>
<path d="M352.254 192.897V190.188H348.735V188.477L351.741 181.308H354.313V188.5H355.454V190.211H354.313V192.92L352.254 192.897ZM350.481 188.5H352.254V183.583L350.481 188.5Z" fill="#263238"/>
<path d="M359.389 193.051C358.8 193.074 358.214 192.959 357.678 192.714C357.261 192.5 356.932 192.147 356.748 191.716C356.546 191.199 356.449 190.646 356.463 190.091V189.92H358.551C358.531 190.288 358.584 190.656 358.705 191.003C358.802 191.243 359.041 191.363 359.412 191.363C359.51 191.369 359.609 191.353 359.701 191.317C359.792 191.28 359.875 191.224 359.942 191.152C360.089 190.934 360.177 190.683 360.199 190.422C360.251 189.96 360.273 189.495 360.267 189.03V187.861C360.131 188.077 359.932 188.246 359.697 188.346C359.415 188.465 359.113 188.528 358.807 188.534C358.273 188.571 357.743 188.411 357.319 188.083C356.937 187.754 356.661 187.32 356.526 186.834C356.362 186.267 356.284 185.679 356.292 185.089C356.277 184.389 356.377 183.692 356.589 183.025C356.764 182.475 357.115 181.999 357.587 181.667C358.128 181.32 358.764 181.151 359.406 181.182C360.036 181.154 360.66 181.315 361.197 181.644C361.658 181.96 362.007 182.413 362.195 182.939C362.419 183.563 362.527 184.222 362.514 184.884V189.104C362.524 189.79 362.436 190.474 362.252 191.135C362.109 191.698 361.782 192.198 361.322 192.555C360.751 192.929 360.071 193.104 359.389 193.051ZM359.389 186.829C359.583 186.838 359.774 186.775 359.925 186.652C360.047 186.549 360.154 186.43 360.244 186.298V184.439C360.247 184.166 360.224 183.893 360.176 183.623C360.138 183.405 360.05 183.198 359.919 183.019C359.849 182.939 359.761 182.876 359.662 182.837C359.562 182.797 359.455 182.781 359.349 182.791C359.246 182.786 359.143 182.806 359.049 182.848C358.955 182.891 358.872 182.955 358.807 183.036C358.667 183.239 358.581 183.475 358.556 183.72C358.512 184.076 358.491 184.434 358.494 184.793C358.494 185.186 358.494 185.534 358.533 185.842C358.546 186.095 358.622 186.34 358.756 186.555C358.83 186.654 358.929 186.732 359.044 186.78C359.158 186.828 359.283 186.845 359.406 186.829H359.389Z" fill="#263238"/>
<path d="M366.946 193.096C366.303 193.128 365.664 192.976 365.104 192.657C364.652 192.364 364.308 191.931 364.123 191.425C363.915 190.842 363.815 190.225 363.826 189.606V189.19H366.028V189.572C366.032 189.88 366.062 190.187 366.119 190.49C366.153 190.704 366.25 190.903 366.398 191.06C366.558 191.193 366.762 191.261 366.969 191.249C367.072 191.256 367.176 191.242 367.274 191.209C367.371 191.176 367.462 191.123 367.539 191.055C367.679 190.894 367.768 190.695 367.796 190.484C367.851 190.181 367.876 189.874 367.87 189.566C367.894 189.101 367.804 188.637 367.608 188.214C367.5 188.045 367.346 187.908 367.165 187.822C366.983 187.735 366.781 187.701 366.581 187.724H366.193V186.093H366.535C366.732 186.116 366.931 186.091 367.116 186.018C367.3 185.945 367.463 185.828 367.59 185.676C367.803 185.278 367.9 184.827 367.87 184.376C367.887 184.008 367.819 183.641 367.67 183.304C367.598 183.173 367.488 183.066 367.355 182.997C367.222 182.928 367.072 182.9 366.923 182.916C366.774 182.9 366.624 182.933 366.495 183.01C366.366 183.088 366.266 183.205 366.21 183.344C366.084 183.697 366.021 184.069 366.022 184.444V184.963H363.821V184.325C363.805 183.733 363.932 183.146 364.191 182.614C364.426 182.154 364.796 181.778 365.252 181.536C365.768 181.271 366.343 181.141 366.923 181.159C367.514 181.139 368.101 181.262 368.634 181.519C369.09 181.747 369.462 182.112 369.701 182.562C369.962 183.094 370.088 183.682 370.066 184.273C370.09 184.872 369.944 185.466 369.644 185.984C369.415 186.388 369.045 186.692 368.606 186.84C368.893 186.935 369.153 187.097 369.364 187.313C369.602 187.562 369.777 187.863 369.877 188.192C370.014 188.635 370.078 189.097 370.066 189.56C370.076 190.189 369.974 190.815 369.763 191.408C369.581 191.926 369.235 192.371 368.777 192.674C368.223 192.996 367.585 193.143 366.946 193.096Z" fill="#263238"/>
<path d="M371.463 194.87L371.292 194.14C371.542 194.06 371.772 193.926 371.965 193.747C372.07 193.633 372.152 193.499 372.204 193.353C372.256 193.207 372.277 193.052 372.267 192.897H371.126V190.804H373.202V192.652C373.228 193.205 373.072 193.752 372.758 194.209C372.6 194.403 372.403 194.562 372.18 194.676C371.957 194.79 371.713 194.856 371.463 194.87Z" fill="#263238"/>
<path d="M377.457 193.051C376.868 193.075 376.282 192.96 375.746 192.714C375.329 192.5 375 192.147 374.816 191.716C374.614 191.199 374.517 190.646 374.531 190.091V189.92H376.619C376.6 190.288 376.652 190.656 376.773 191.003C376.87 191.243 377.103 191.363 377.48 191.363C377.578 191.369 377.675 191.354 377.766 191.317C377.857 191.281 377.939 191.224 378.005 191.152C378.156 190.936 378.246 190.684 378.267 190.422C378.319 189.96 378.341 189.495 378.335 189.03V187.861C378.198 188.076 377.999 188.245 377.765 188.346C377.485 188.465 377.185 188.529 376.881 188.534C376.346 188.571 375.817 188.411 375.392 188.083C375.009 187.756 374.733 187.321 374.6 186.834C374.434 186.268 374.353 185.679 374.36 185.089C374.347 184.389 374.449 183.691 374.662 183.025C374.838 182.477 375.186 182.001 375.655 181.667C376.198 181.321 376.836 181.151 377.48 181.182C378.11 181.154 378.733 181.315 379.271 181.644C379.73 181.961 380.079 182.414 380.269 182.939C380.491 183.563 380.597 184.222 380.582 184.884V189.104C380.591 189.79 380.505 190.473 380.326 191.135C380.183 191.698 379.855 192.198 379.396 192.555C378.823 192.931 378.141 193.105 377.457 193.051ZM377.457 186.829C377.651 186.837 377.842 186.774 377.993 186.652C378.115 186.549 378.223 186.43 378.313 186.298V184.439C378.315 184.166 378.292 183.893 378.244 183.623C378.207 183.404 378.117 183.196 377.982 183.019C377.915 182.942 377.832 182.881 377.738 182.841C377.644 182.802 377.542 182.784 377.44 182.791C377.332 182.78 377.223 182.797 377.123 182.84C377.024 182.883 376.936 182.95 376.87 183.036C376.727 183.238 376.64 183.474 376.619 183.72C376.571 184.076 376.55 184.434 376.556 184.793C376.556 185.186 376.556 185.534 376.596 185.842C376.608 186.095 376.685 186.34 376.818 186.555C376.892 186.656 376.993 186.734 377.108 186.783C377.224 186.831 377.35 186.847 377.474 186.829H377.457Z" fill="#263238"/>
<path d="M385.271 192.897V190.188H381.752V188.477L384.769 181.325H387.341V188.517H388.482V190.228H387.341V192.937L385.271 192.897ZM383.497 188.5H385.271V183.583L383.497 188.5Z" fill="#263238"/>
<path d="M392.32 193.097C391.669 193.138 391.022 192.983 390.461 192.652C390.03 192.354 389.719 191.913 389.582 191.408C389.412 190.798 389.332 190.166 389.343 189.532H391.476C391.471 189.887 391.498 190.242 391.556 190.593C391.586 190.831 391.685 191.055 391.841 191.237C391.925 191.312 392.023 191.369 392.13 191.403C392.237 191.437 392.351 191.449 392.462 191.437C392.582 191.441 392.701 191.414 392.807 191.358C392.913 191.302 393.003 191.219 393.067 191.118C393.207 190.853 393.285 190.561 393.295 190.262C393.295 189.891 393.335 189.452 393.335 188.945C393.338 188.582 393.315 188.22 393.267 187.861C393.235 187.593 393.139 187.337 392.987 187.114C392.909 187.022 392.81 186.95 392.7 186.904C392.589 186.857 392.468 186.837 392.348 186.846C392.229 186.843 392.11 186.866 392 186.912C391.89 186.958 391.791 187.027 391.71 187.114C391.524 187.337 391.4 187.604 391.35 187.889H389.457L389.616 181.308H394.938V183.207H391.436L391.305 185.768C391.461 185.599 391.657 185.471 391.875 185.397C392.156 185.291 392.453 185.229 392.753 185.215C393.277 185.139 393.809 185.261 394.248 185.557C394.667 185.875 394.974 186.319 395.126 186.823C395.332 187.481 395.429 188.169 395.411 188.859C395.417 189.431 395.379 190.003 395.297 190.57C395.238 191.043 395.089 191.5 394.858 191.916C394.635 192.295 394.306 192.601 393.911 192.794C393.411 193.018 392.867 193.121 392.32 193.097Z" fill="#263238"/>
<path d="M127.716 9.95239L127.824 3.48486H129.221L130.02 7.56271L130.875 3.48486H132.227L132.335 9.95239H131.377L131.275 5.56656L130.453 9.95239H129.632L128.771 5.53234L128.68 9.95239H127.716Z" fill="#263238"/>
<path d="M135.09 10.0378C134.693 10.0605 134.298 9.97156 133.949 9.78116C133.683 9.60808 133.483 9.35118 133.379 9.05114C133.25 8.68514 133.188 8.29862 133.197 7.91048V5.50369C133.187 5.11552 133.249 4.72891 133.379 4.36304C133.483 4.06614 133.684 3.81294 133.949 3.64442C134.307 3.47852 134.696 3.39258 135.09 3.39258C135.484 3.39258 135.873 3.47852 136.231 3.64442C136.508 3.80695 136.72 4.06109 136.83 4.36304C136.959 4.72901 137.019 5.1158 137.006 5.50369V7.91619C137.017 8.30397 136.957 8.69046 136.83 9.05684C136.72 9.36183 136.508 9.61966 136.231 9.78686C135.88 9.97276 135.486 10.0595 135.09 10.0378ZM135.09 9.08536C135.157 9.09203 135.225 9.08538 135.29 9.06581C135.354 9.04624 135.414 9.01412 135.466 8.97129C135.55 8.88771 135.606 8.78007 135.626 8.66331C135.654 8.52444 135.668 8.38297 135.666 8.24127V5.18431C135.668 5.04449 135.655 4.90487 135.626 4.76797C135.606 4.65122 135.55 4.54358 135.466 4.45999C135.358 4.37854 135.225 4.33811 135.09 4.34593C134.96 4.337 134.832 4.37777 134.731 4.45999C134.649 4.54523 134.594 4.65213 134.571 4.76797C134.545 4.90528 134.532 5.04462 134.531 5.18431V8.24127C134.532 8.38284 134.546 8.52404 134.571 8.66331C134.589 8.77939 134.643 8.88695 134.725 8.97129C134.827 9.05599 134.958 9.097 135.09 9.08536Z" fill="#263238"/>
<path d="M137.867 9.95239V3.48486H138.786L140.223 6.8498V3.48486H141.312V9.95239H140.434L139.008 6.37073V9.95239H137.867Z" fill="#263238"/>
<path d="M142.915 9.95239V4.46583H141.917V3.48486H145.225V4.46583H144.244V9.95239H142.915Z" fill="#263238"/>
<path d="M145.852 9.95239V3.48486H147.17V6.1426H148.31V3.48486H149.628V9.95239H148.31V7.06653H147.17V9.91817L145.852 9.95239Z" fill="#263238"/>
<path d="M150.597 9.95239V3.48486H151.915V9.05697H153.432V9.95239H150.597Z" fill="#263238"/>
<path d="M154.407 9.95239V7.38591L153.147 3.48486H154.407L155.103 5.76618L155.747 3.48486H156.945L155.702 7.38591V9.95239H154.407Z" fill="#263238"/>
<path d="M159.432 9.95224V3.48472H161.108C161.494 3.47247 161.879 3.52254 162.249 3.633C162.543 3.71469 162.798 3.89878 162.968 4.152C163.153 4.46524 163.24 4.82672 163.219 5.19C163.222 5.42752 163.199 5.66466 163.15 5.89721C163.114 6.09129 163.034 6.27459 162.916 6.43332C162.788 6.59368 162.621 6.71919 162.432 6.79833L163.327 9.95224H161.975L161.234 7.02075H160.772V9.95224H159.432ZM160.749 6.2394H161.131C161.305 6.24933 161.479 6.21188 161.633 6.13104C161.754 6.06143 161.845 5.94982 161.89 5.81736C161.946 5.6484 161.974 5.47086 161.97 5.29266C161.989 5.05668 161.938 4.82021 161.821 4.61397C161.747 4.52657 161.653 4.45892 161.546 4.41711C161.44 4.37529 161.325 4.36063 161.211 4.37443H160.766L160.749 6.2394Z" fill="#263238"/>
<path d="M164.063 9.95239V3.48486H166.88V4.39169H165.38V6.10267H166.521V7.0209H165.38V9.05127H166.897V9.94669L164.063 9.95239Z" fill="#263238"/>
<path d="M167.559 9.95236V3.48483H169.612C169.941 3.47191 170.268 3.5467 170.559 3.70155C170.812 3.84557 171.012 4.06763 171.129 4.33462C171.251 4.66049 171.306 5.00788 171.289 5.35551C171.309 5.73181 171.226 6.10655 171.049 6.43913C170.905 6.69479 170.681 6.89541 170.41 7.00946C170.112 7.12115 169.794 7.17533 169.475 7.16915H168.876V9.97517L167.559 9.95236ZM168.876 6.22241H169.338C169.492 6.22876 169.645 6.19743 169.783 6.13115C169.888 6.06438 169.963 5.96044 169.994 5.84028C170.034 5.67214 170.053 5.49977 170.051 5.32699C170.053 5.16047 170.038 4.99422 170.006 4.8308C169.98 4.7081 169.911 4.59871 169.812 4.52283C169.667 4.43669 169.5 4.39688 169.333 4.40876H168.876V6.22241Z" fill="#263238"/>
<path d="M173.798 10.0379C173.401 10.0611 173.006 9.9722 172.658 9.78122C172.38 9.61401 172.168 9.35618 172.059 9.0512C171.931 8.68481 171.871 8.29832 171.882 7.91054V5.50375C171.871 5.11593 171.931 4.72936 172.059 4.36309C172.169 4.06115 172.38 3.80701 172.658 3.64448C173.015 3.47745 173.404 3.39087 173.798 3.39087C174.192 3.39087 174.582 3.47745 174.939 3.64448C175.207 3.81485 175.409 4.07272 175.509 4.3745C175.641 4.74004 175.702 5.12689 175.692 5.51516V7.92765C175.701 8.31579 175.639 8.70231 175.509 9.06831C175.4 9.37329 175.188 9.63112 174.91 9.79833C174.568 9.97631 174.184 10.059 173.798 10.0379ZM173.798 9.08542C173.865 9.09208 173.933 9.08544 173.998 9.06587C174.062 9.0463 174.122 9.01418 174.175 8.97135C174.259 8.88776 174.314 8.78012 174.334 8.66337C174.36 8.5241 174.373 8.3829 174.374 8.24133V5.18437C174.373 5.04468 174.36 4.90534 174.334 4.76803C174.312 4.65219 174.256 4.54529 174.175 4.46005C174.067 4.3786 173.933 4.33817 173.798 4.34598C173.668 4.33706 173.54 4.37783 173.439 4.46005C173.335 4.54288 173.261 4.65689 173.228 4.78514C173.199 4.92204 173.186 5.06165 173.188 5.20148V8.25844C173.187 8.39984 173.199 8.54104 173.222 8.68048C173.242 8.79723 173.298 8.90487 173.382 8.98846C173.439 9.03499 173.507 9.06789 173.579 9.08468C173.651 9.10147 173.726 9.10172 173.798 9.08542Z" fill="#263238"/>
<path d="M176.564 9.95221V3.48468H178.241C178.627 3.47352 179.012 3.52356 179.382 3.63297C179.674 3.71777 179.928 3.90116 180.1 4.15197C180.283 4.46636 180.37 4.82696 180.351 5.18997C180.354 5.42749 180.331 5.66463 180.283 5.89717C180.242 6.09088 180.16 6.27365 180.043 6.43328C179.918 6.59649 179.75 6.72263 179.558 6.79829L180.454 9.95221H179.102L178.361 7.02072H177.899V9.95221H176.564ZM177.882 6.23937H178.264C178.438 6.24929 178.611 6.21184 178.766 6.13101C178.889 6.06247 178.982 5.95072 179.028 5.81733C179.083 5.64797 179.108 5.47048 179.102 5.29262C179.118 5.05405 179.058 4.81664 178.931 4.61393C178.858 4.52613 178.763 4.45819 178.657 4.41634C178.55 4.37449 178.435 4.36007 178.321 4.3744H177.876L177.882 6.23937Z" fill="#263238"/>
<path d="M181.783 9.95239V4.46583H180.785V3.48486H184.064V4.46583H183.083V9.95239H181.783Z" fill="#263238"/>
<path d="M12.2241 43.5674V37.0714H14.2773C14.615 37.0525 14.9512 37.1296 15.2469 37.2938C15.5003 37.4378 15.7003 37.6599 15.8172 37.9269C15.9456 38.2476 16.0077 38.591 15.9997 38.9364C16.0183 39.3119 15.9377 39.6856 15.7659 40.02C15.6186 40.275 15.3924 40.4752 15.1214 40.5903C14.8226 40.7024 14.5051 40.7566 14.1861 40.75H13.5359V43.5674H12.2241ZM13.5359 39.809H13.9978C14.1514 39.816 14.3043 39.7847 14.4427 39.7177C14.4953 39.6856 14.541 39.6433 14.5773 39.5934C14.6135 39.5435 14.6395 39.4869 14.6537 39.4269C14.6963 39.2592 14.7155 39.0865 14.7108 38.9136C14.7151 38.7531 14.7036 38.5927 14.6765 38.4345C14.6538 38.3108 14.5844 38.2005 14.4826 38.1265C14.3384 38.0404 14.1711 38.0006 14.0035 38.0124H13.5359V39.809Z" fill="#263238"/>
<path d="M16.5815 43.5673V37.0713H17.8989V42.6434H19.416V43.5673H16.5815Z" fill="#263238"/>
<path d="M19.724 43.5673L20.9502 37.0713H22.416L23.6821 43.5673H22.4616L22.2277 42.1415H21.2069L20.9502 43.5673H19.724ZM21.3266 41.286H22.0909L21.6973 38.6739L21.3266 41.286Z" fill="#263238"/>
<path d="M24.8968 43.5674V41.0009L23.6364 37.0999H24.874L25.5641 39.3812L26.2143 37.0999H27.412L26.163 41.0009V43.5674H24.8968Z" fill="#263238"/>
<path d="M27.9138 43.5673V37.0713H30.7312V37.9781H29.2313V39.6891H30.3719V40.6073H29.2313V42.6377H30.7484V43.5673H27.9138Z" fill="#263238"/>
<path d="M31.4099 43.5675V37.0715H33.0867C33.4724 37.0599 33.8574 37.11 34.2273 37.2197C34.5211 37.3014 34.776 37.4855 34.946 37.7387C35.1324 38.0519 35.2235 38.4126 35.2083 38.7767C35.2113 39.0143 35.1883 39.2514 35.1399 39.4839C35.0991 39.6776 35.0174 39.8604 34.9003 40.02C34.7747 40.1833 34.6071 40.3094 34.4155 40.3851L35.2824 43.5675H33.9365L33.1893 40.636H32.7274V43.5675H31.4099ZM32.7274 39.8547H33.1095C33.2853 39.8645 33.4606 39.8271 33.6171 39.7463C33.7382 39.6767 33.8295 39.5651 33.8737 39.4326C33.9284 39.2633 33.9534 39.0858 33.9479 38.9079C33.9642 38.6708 33.9085 38.4342 33.7882 38.2292C33.7143 38.1418 33.6198 38.0742 33.5133 38.0324C33.4068 37.9905 33.2915 37.9759 33.1779 37.9897H32.7274V39.8547Z" fill="#263238"/>
<path d="M37.7178 43.6244C37.3723 43.6355 37.0295 43.561 36.7197 43.4077C36.4522 43.2571 36.2418 43.0226 36.1209 42.7404C35.9678 42.3794 35.8864 41.9919 35.8813 41.5998L37.022 41.4116C37.0285 41.6363 37.0572 41.8598 37.1076 42.0788C37.139 42.2279 37.2099 42.3658 37.3129 42.4781C37.4075 42.5652 37.5322 42.6123 37.6608 42.6093C37.7277 42.6162 37.7953 42.605 37.8565 42.5769C37.9177 42.5488 37.9703 42.5049 38.0087 42.4496C38.0722 42.3366 38.1038 42.2084 38.0999 42.0788C38.1087 41.8378 38.0408 41.6002 37.906 41.4002C37.7575 41.1892 37.5831 40.9976 37.387 40.8298L36.7197 40.2595C36.494 40.0635 36.3014 39.8324 36.1494 39.5751C35.9882 39.2863 35.9093 38.9589 35.9213 38.6284C35.9057 38.4031 35.9395 38.1773 36.0203 37.9665C36.1011 37.7557 36.2269 37.565 36.3889 37.4079C36.7461 37.1062 37.2054 36.9531 37.6722 36.9801C37.9473 36.9683 38.2212 37.0231 38.4706 37.1398C38.668 37.2336 38.8343 37.382 38.9497 37.5676C39.0629 37.7419 39.144 37.935 39.1893 38.1379C39.2345 38.3444 39.2631 38.5542 39.2748 38.7652L38.1341 38.9306C38.1341 38.731 38.1056 38.5599 38.0828 38.4116C38.065 38.2829 38.0139 38.161 37.9345 38.058C37.8945 38.014 37.8449 37.9798 37.7895 37.9581C37.7341 37.9363 37.6744 37.9276 37.6151 37.9326C37.5472 37.9281 37.4794 37.9415 37.4183 37.9715C37.3572 38.0016 37.3051 38.0471 37.2672 38.1037C37.1938 38.2174 37.1561 38.3504 37.1589 38.4858C37.1477 38.6875 37.2017 38.8875 37.3129 39.0561C37.4362 39.2269 37.5798 39.382 37.7406 39.5181L38.3965 40.0884C38.664 40.3214 38.8981 40.5901 39.0923 40.8869C39.3001 41.2299 39.4013 41.6269 39.3832 42.0275C39.3871 42.3145 39.3164 42.5975 39.1778 42.8488C39.0429 43.0871 38.8458 43.2842 38.6075 43.4191C38.3335 43.5628 38.0271 43.6335 37.7178 43.6244Z" fill="#263238"/>
<path d="M17.0206 82.0363L19.3532 72.5403H16.3191V70.9434H21.4235V72.3407L19.0795 82.0363H17.0206Z" fill="#263238"/>
<path d="M25.4558 82.196C24.8413 82.2259 24.2312 82.0773 23.6992 81.7682C23.2604 81.4792 22.931 81.0515 22.7639 80.5534C22.5665 79.9793 22.47 79.3753 22.4787 78.7683C22.4767 78.4828 22.5054 78.1979 22.5642 77.9185C22.6131 77.6653 22.6955 77.4198 22.8095 77.1885C22.9167 76.9801 23.0531 76.7881 23.2144 76.6181C23.377 76.4451 23.5704 76.3039 23.7847 76.2018C23.4585 75.9522 23.19 75.6351 22.9977 75.2722C22.7534 74.8045 22.6318 74.2826 22.6441 73.7551C22.6228 73.2123 22.7262 72.6719 22.9464 72.1753C23.1469 71.7425 23.478 71.3835 23.8931 71.1487C24.3832 70.9159 24.919 70.7952 25.4615 70.7952C26.0041 70.7952 26.5398 70.9159 27.0299 71.1487C27.4408 71.382 27.765 71.7422 27.9538 72.1753C28.1673 72.6737 28.2667 73.2134 28.2447 73.7551C28.2569 74.286 28.1415 74.8122 27.9082 75.2893C27.7208 75.6525 27.4489 75.9654 27.1155 76.2018C27.3298 76.3039 27.5232 76.4451 27.6858 76.6181C27.8471 76.7881 27.9835 76.9801 28.0907 77.1885C28.206 77.4203 28.2922 77.6655 28.3474 77.9185C28.4062 78.1979 28.4349 78.4828 28.4329 78.7683C28.4629 79.3748 28.3738 79.9812 28.1706 80.5534C27.9929 81.0522 27.6614 81.4815 27.2238 81.7796C26.687 82.086 26.073 82.2306 25.4558 82.196ZM25.4558 80.6219C25.566 80.626 25.6754 80.6032 25.7748 80.5555C25.8742 80.5078 25.9604 80.4366 26.0261 80.3481C26.16 80.1464 26.2441 79.9157 26.2714 79.6751C26.3094 79.4202 26.3285 79.1629 26.3284 78.9052C26.3374 78.6209 26.3202 78.3365 26.2771 78.0554C26.2494 77.814 26.1633 77.583 26.0261 77.3824C25.958 77.2974 25.871 77.2294 25.772 77.1839C25.673 77.1383 25.5647 77.1165 25.4558 77.12C25.3468 77.1156 25.2382 77.137 25.1391 77.1826C25.0399 77.2282 24.953 77.2967 24.8855 77.3824C24.7446 77.5799 24.6544 77.8091 24.6231 78.0497C24.5831 78.3331 24.5641 78.619 24.5661 78.9052C24.5669 79.1645 24.584 79.4236 24.6174 79.6808C24.644 79.9234 24.7323 80.1551 24.8741 80.3538C24.9406 80.445 25.0284 80.5185 25.1297 80.5682C25.2311 80.6179 25.343 80.6422 25.4558 80.639V80.6219ZM25.4558 75.3919C25.5415 75.3938 25.6265 75.3763 25.7045 75.3407C25.7825 75.3052 25.8515 75.2525 25.9064 75.1866C26.0327 75.0183 26.1186 74.8232 26.1573 74.6163C26.2185 74.318 26.2471 74.014 26.2429 73.7095C26.2567 73.3815 26.1922 73.055 26.0547 72.757C26.0032 72.643 25.9185 72.5471 25.8116 72.482C25.7048 72.4169 25.5808 72.3855 25.4558 72.392C25.3296 72.387 25.2047 72.4189 25.0964 72.4837C24.988 72.5485 24.9008 72.6435 24.8456 72.757C24.7022 73.0473 24.6336 73.3688 24.6459 73.6924C24.6429 73.9984 24.6697 74.304 24.7258 74.6049C24.7552 74.8241 24.844 75.0312 24.9824 75.2037C25.0433 75.2671 25.1171 75.3166 25.1988 75.3491C25.2804 75.3815 25.368 75.3962 25.4558 75.3919Z" fill="#263238"/>
<path d="M30.7825 75.4091C30.5772 75.4291 30.37 75.4014 30.1771 75.3282C29.9842 75.255 29.8108 75.1382 29.6704 74.987C29.4243 74.6212 29.3079 74.1835 29.3396 73.7437V73.4186C29.3034 72.9811 29.4182 72.5443 29.6647 72.181C29.8129 72.0337 29.9924 71.9218 30.1899 71.8536C30.3875 71.7855 30.5979 71.7629 30.8054 71.7875C31.0123 71.7642 31.2219 71.7868 31.419 71.8539C31.6162 71.9209 31.7962 72.0307 31.946 72.1753C32.1917 72.5304 32.3066 72.9598 32.2711 73.3901V73.7951C32.3016 74.2293 32.1851 74.6612 31.9403 75.0213C31.7918 75.173 31.6094 75.2872 31.4081 75.3547C31.2069 75.4221 30.9924 75.4408 30.7825 75.4091ZM30.7825 74.622C30.8378 74.6274 30.8936 74.6204 30.9458 74.6017C30.9981 74.583 31.0455 74.5529 31.0848 74.5137C31.1546 74.4209 31.1961 74.31 31.2046 74.1943C31.2144 74.0328 31.2144 73.871 31.2046 73.7095V73.43C31.2122 73.2175 31.1931 73.0048 31.1475 72.797C31.1076 72.6544 30.9764 72.5803 30.7597 72.5803C30.543 72.5803 30.4232 72.6544 30.3833 72.7913C30.3297 72.9998 30.3067 73.2149 30.3149 73.43V73.7152C30.3143 73.8772 30.3238 74.0392 30.3434 74.2C30.3546 74.3144 30.3981 74.4232 30.4689 74.5137C30.5086 74.5556 30.5578 74.5874 30.6124 74.6062C30.667 74.6251 30.7254 74.6305 30.7825 74.622ZM31.5639 78.2379L33.4973 71.8046H34.2216L32.2939 78.2379H31.5639ZM34.9859 78.2379C34.7763 78.2646 34.5634 78.2408 34.365 78.1683C34.1665 78.0959 33.9883 77.977 33.8452 77.8216C33.5999 77.4554 33.4836 77.0179 33.5144 76.5783V76.2475C33.4823 75.8129 33.5946 75.3798 33.8338 75.0156C33.9822 74.8686 34.1618 74.7569 34.3593 74.6887C34.5567 74.6206 34.767 74.5978 34.9745 74.622C35.181 74.598 35.3903 74.6197 35.5874 74.6858C35.7846 74.7518 35.9648 74.8605 36.1151 75.0042C36.3617 75.361 36.4766 75.7924 36.4402 76.2247V76.5897C36.4729 77.0277 36.3563 77.4639 36.1094 77.8273C35.9669 77.9772 35.7923 78.0931 35.5987 78.1661C35.4052 78.2392 35.1976 78.2676 34.9916 78.2493L34.9859 78.2379ZM34.9859 77.4566C35.0416 77.4612 35.0976 77.4533 35.1499 77.4336C35.2021 77.4139 35.2494 77.3828 35.2881 77.3425C35.3535 77.25 35.3929 77.1417 35.4022 77.0288C35.4245 76.8721 35.434 76.7138 35.4307 76.5554V76.2646C35.4406 76.0498 35.4194 75.8346 35.368 75.6258C35.3281 75.4832 35.1969 75.4148 34.9859 75.4148C34.7748 75.4148 34.6494 75.4832 34.6094 75.6258C34.5566 75.8344 34.5336 76.0495 34.541 76.2646V76.5554C34.5311 76.7131 34.5311 76.8712 34.541 77.0288C34.5442 77.1439 34.5864 77.2546 34.6608 77.3425C34.7017 77.3885 34.7532 77.424 34.8108 77.4458C34.8684 77.4677 34.9304 77.4753 34.9916 77.468L34.9859 77.4566Z" fill="#263238"/>
<path d="M335.082 161.854H328.654V175.222H335.082V161.854Z" fill="#263238" stroke="#263238" stroke-linecap="round" stroke-linejoin="round"/>
<path d="M343.397 135.784H336.969V175.216H343.397V135.784Z" fill="#8B5FD9" stroke="#263238" stroke-linecap="round" stroke-linejoin="round"/>
<path d="M351.712 160.183H345.285V175.222H351.712V160.183Z" fill="#263238" stroke="#263238" stroke-linecap="round" stroke-linejoin="round"/>
<path d="M360.028 153.162H353.6V175.216H360.028V153.162Z" fill="#8B5FD9" stroke="#263238" stroke-linecap="round" stroke-linejoin="round"/>
<path d="M368.343 158.511H361.916V175.222H368.343V158.511Z" fill="#263238" stroke="#263238" stroke-linecap="round" stroke-linejoin="round"/>
<path d="M376.659 153.162H370.231V175.216H376.659V153.162Z" fill="#8B5FD9" stroke="#263238" stroke-linecap="round" stroke-linejoin="round"/>
<path d="M384.974 144.476H378.547V175.222H384.974V144.476Z" fill="#263238" stroke="#263238" stroke-linecap="round" stroke-linejoin="round"/>
<path d="M393.29 153.162H386.862V175.216H393.29V153.162Z" fill="#8B5FD9" stroke="#263238" stroke-linecap="round" stroke-linejoin="round"/>
<path d="M401.605 165.863H395.177V175.222H401.605V165.863Z" fill="#263238" stroke="#263238" stroke-linecap="round" stroke-linejoin="round"/>
<path d="M328.654 122.421H349.71" stroke="#263238" stroke-width="3" stroke-linecap="round" stroke-linejoin="round"/>
<path d="M328.654 126.761H363.41" stroke="#263238" stroke-linecap="round" stroke-linejoin="round"/>
<path d="M326.036 34.043H364.801V80.4962" stroke="#263238" stroke-linecap="round" stroke-linejoin="round"/>
<path d="M365.138 69.8027H398.89V80.3253" stroke="#263238" stroke-linecap="round" stroke-linejoin="round"/>
<path d="M382.516 70.1335V80.3253" stroke="#263238" stroke-linecap="round" stroke-linejoin="round"/>
<path d="M311.333 43.4021V77.8214H326.372" stroke="#263238" stroke-linecap="round" stroke-linejoin="round"/>
<path d="M324.776 25.6877H301.865C300.083 25.6877 298.637 27.133 298.637 28.9158V42.0562C298.637 43.839 300.083 45.2842 301.865 45.2842H324.776C326.558 45.2842 328.004 43.839 328.004 42.0562V28.9158C328.004 27.133 326.558 25.6877 324.776 25.6877Z" fill="#8B5FD9" stroke="#263238" stroke-linecap="round" stroke-linejoin="round"/>
<path d="M343.819 66.7913H320.909C319.126 66.7913 317.681 68.2365 317.681 70.0193V83.1597C317.681 84.9425 319.126 86.3878 320.909 86.3878H343.819C345.602 86.3878 347.047 84.9425 347.047 83.1597V70.0193C347.047 68.2365 345.602 66.7913 343.819 66.7913Z" fill="#263238" stroke="#263238" stroke-linecap="round" stroke-linejoin="round"/>
<path d="M379.578 44.4001H356.668C354.885 44.4001 353.44 45.8454 353.44 47.6282V60.7686C353.44 62.5514 354.885 63.9966 356.668 63.9966H379.578C381.361 63.9966 382.806 62.5514 382.806 60.7686V47.6282C382.806 45.8454 381.361 44.4001 379.578 44.4001Z" fill="white" stroke="#263238" stroke-linecap="round" stroke-linejoin="round"/>
<path d="M369.102 75.426H359.469C358.073 75.426 356.942 76.5572 356.942 77.9526V82.6977C356.942 84.0931 358.073 85.2243 359.469 85.2243H369.102C370.497 85.2243 371.628 84.0931 371.628 82.6977V77.9526C371.628 76.5572 370.497 75.426 369.102 75.426Z" fill="#8B5FD9" stroke="#263238" stroke-linecap="round" stroke-linejoin="round"/>
<path d="M386.326 75.426H376.693C375.297 75.426 374.166 76.5572 374.166 77.9526V82.6977C374.166 84.0931 375.297 85.2243 376.693 85.2243H386.326C387.721 85.2243 388.852 84.0931 388.852 82.6977V77.9526C388.852 76.5572 387.721 75.426 386.326 75.426Z" fill="#8B5FD9" stroke="#263238" stroke-linecap="round" stroke-linejoin="round"/>
<path d="M403.555 75.426H393.922C392.527 75.426 391.396 76.5572 391.396 77.9526V82.6977C391.396 84.0931 392.527 85.2243 393.922 85.2243H403.555C404.951 85.2243 406.082 84.0931 406.082 82.6977V77.9526C406.082 76.5572 404.951 75.426 403.555 75.426Z" fill="#8B5FD9" stroke="#263238" stroke-linecap="round" stroke-linejoin="round"/>
<path d="M306.97 35.1665H319.22" stroke="#263238" stroke-linecap="round" stroke-linejoin="round"/>
<path d="M326.167 76.4185H338.418" stroke="white" stroke-linecap="round" stroke-linejoin="round"/>
<path d="M326.167 78.8708H338.418" stroke="white" stroke-linecap="round" stroke-linejoin="round"/>
<path d="M360.883 55.1794H378.039" stroke="#263238" stroke-linecap="round" stroke-linejoin="round"/>
<path d="M360.883 52.8923H378.039" stroke="#263238" stroke-linecap="round" stroke-linejoin="round"/>
<path d="M127.448 59.896V64.1735" stroke="#263238" stroke-linecap="round" stroke-linejoin="round"/>
<path d="M138.021 59.896V64.1735" stroke="#263238" stroke-linecap="round" stroke-linejoin="round"/>
<path d="M148.59 59.896V64.1735" stroke="#263238" stroke-linecap="round" stroke-linejoin="round"/>
<path d="M159.164 59.896V64.1735" stroke="#263238" stroke-linecap="round" stroke-linejoin="round"/>
<path d="M169.738 59.896V64.1735" stroke="#263238" stroke-linecap="round" stroke-linejoin="round"/>
<path d="M180.311 59.896V64.1735" stroke="#263238" stroke-linecap="round" stroke-linejoin="round"/>
<path d="M190.885 59.896V64.1735" stroke="#263238" stroke-linecap="round" stroke-linejoin="round"/>
<path d="M201.459 59.896V64.1735" stroke="#263238" stroke-linecap="round" stroke-linejoin="round"/>
<path d="M212.033 59.896V64.1735" stroke="#263238" stroke-linecap="round" stroke-linejoin="round"/>
<path d="M222.567 59.896V64.1735" stroke="#263238" stroke-linecap="round" stroke-linejoin="round"/>
<path d="M233.141 59.896V64.1735" stroke="#263238" stroke-linecap="round" stroke-linejoin="round"/>
<path d="M243.715 59.896V64.1735" stroke="#263238" stroke-linecap="round" stroke-linejoin="round"/>
<path d="M254.255 59.896V64.1735" stroke="#263238" stroke-linecap="round" stroke-linejoin="round"/>
<path d="M264.828 59.896V64.1735" stroke="#263238" stroke-linecap="round" stroke-linejoin="round"/>
<path d="M275.402 59.896V64.1735" stroke="#263238" stroke-linecap="round" stroke-linejoin="round"/>
<path d="M124.071 59.896H277.541" stroke="#263238" stroke-linecap="round" stroke-linejoin="round"/>
<path d="M132.17 56.5253L142.516 49.0996L152.867 27.1705L163.892 49.5502L173.114 37.8527L184.138 45.9514L195.163 15.7183L206.41 36.501L215.86 25.699L224.86 39.5067L237.715 32.081L248.032 36.7919L258.173 32.081L271.746 15.9692" stroke="#263238" stroke-width="3" stroke-linecap="round" stroke-linejoin="round"/>
<path d="M254.625 1.3689H272.003V10.0607H267.492L270.999 15.4047L264.509 10.0607H254.625V1.3689Z" fill="#263238"/>
<path d="M254.625 55.6869H272.003V47.0008H267.492L270.999 41.6511L264.509 47.0008H254.625V55.6869Z" fill="#8B5FD9"/>
<path d="M131.451 46.9667L144.107 37.4707L153.894 45.2443L163.675 36.8947L173.456 45.8146L186.408 29.4177L196.474 35.1723L206.261 46.1055L216.042 34.3054L227.266 26.8284L237.909 40.3509L248.557 43.5162L257.186 42.6493L270.999 36.3243" stroke="#8B5FD9" stroke-width="3" stroke-linecap="round" stroke-linejoin="round"/>
<path d="M9.48645 88.9828C11.6126 91.5095 14.3445 93.4562 17.427 94.641C20.5095 95.8258 23.8419 96.21 27.1132 95.7577C30.3844 95.3054 33.4876 94.0315 36.1329 92.0548C38.7783 90.0781 40.8796 87.4632 42.2404 84.4543" stroke="#9E9E9E" stroke-width="9" stroke-miterlimit="10"/>
<path d="M7.32496 66.9795C5.42106 70.4363 4.60854 74.3887 4.99438 78.3163C5.38021 82.2438 6.94631 85.9625 9.48651 88.9828" stroke="#8B5FD9" stroke-width="9" stroke-miterlimit="10"/>
<path d="M42.2405 84.4545C44.3048 79.8566 44.5126 74.6389 42.8206 69.8914C41.1285 65.1439 37.6674 61.2339 33.1604 58.9781C28.6533 56.7224 23.449 56.2955 18.6345 57.7865C13.8201 59.2776 9.7681 62.5713 7.32495 66.9796" stroke="#263238" stroke-width="9" stroke-miterlimit="10"/>
<path d="M56.7269 66.8711C56.7269 66.3737 56.5794 65.8874 56.303 65.4738C56.0266 65.0602 55.6338 64.7378 55.1743 64.5474C54.7147 64.357 54.209 64.3072 53.7211 64.4043C53.2332 64.5013 52.785 64.7409 52.4333 65.0926C52.0815 65.4444 51.842 65.8925 51.7449 66.3804C51.6479 66.8683 51.6977 67.374 51.888 67.8336C52.0784 68.2932 52.4008 68.686 52.8144 68.9624C53.228 69.2387 53.7143 69.3863 54.2117 69.3863C54.5423 69.387 54.8697 69.3225 55.1751 69.1963C55.4806 69.0702 55.7582 68.885 55.9919 68.6513C56.2256 68.4176 56.4108 68.14 56.537 67.8345C56.6631 67.529 56.7276 67.2016 56.7269 66.8711Z" fill="#263238"/>
<path d="M56.7269 77.6846C56.7269 77.1871 56.5794 76.7009 56.303 76.2872C56.0266 75.8736 55.6338 75.5513 55.1743 75.3609C54.7147 75.1705 54.209 75.1207 53.7211 75.2178C53.2332 75.3148 52.785 75.5544 52.4333 75.9061C52.0815 76.2579 51.842 76.706 51.7449 77.1939C51.6479 77.6818 51.6977 78.1875 51.888 78.6471C52.0784 79.1067 52.4008 79.4995 52.8144 79.7759C53.228 80.0522 53.7143 80.1997 54.2117 80.1997C54.5423 80.2005 54.8697 80.1359 55.1751 80.0098C55.4806 79.8837 55.7582 79.6984 55.9919 79.4647C56.2256 79.231 56.4108 78.9535 56.537 78.648C56.6631 78.3425 56.7276 78.0151 56.7269 77.6846Z" fill="#9E9E9E"/>
<path d="M56.7269 89.8154C56.7269 89.318 56.5794 88.8317 56.303 88.4181C56.0266 88.0045 55.6338 87.6821 55.1743 87.4917C54.7147 87.3014 54.209 87.2516 53.7211 87.3486C53.2332 87.4457 52.785 87.6852 52.4333 88.037C52.0815 88.3887 51.842 88.8369 51.7449 89.3248C51.6479 89.8126 51.6977 90.3184 51.888 90.7779C52.0784 91.2375 52.4008 91.6303 52.8144 91.9067C53.228 92.1831 53.7143 92.3306 54.2117 92.3306C54.8788 92.3306 55.5185 92.0656 55.9902 91.5939C56.4619 91.1222 56.7269 90.4825 56.7269 89.8154Z" fill="#8B5FD9"/>
<path d="M60.5024 67.1848H86.9029" stroke="#263238" stroke-linecap="round" stroke-linejoin="round"/>
<path d="M60.5024 77.5591H86.9029" stroke="#263238" stroke-linecap="round" stroke-linejoin="round"/>
<path d="M60.5024 89.8154H86.9029" stroke="#263238" stroke-linecap="round" stroke-linejoin="round"/>
<path d="M78.7131 125.689H4V131.472H78.7131V125.689Z" stroke="#263238" stroke-linecap="round" stroke-linejoin="round"/>
<path d="M78.7131 134.849H4V140.632H78.7131V134.849Z" stroke="#263238" stroke-linecap="round" stroke-linejoin="round"/>
<path d="M78.7131 144.008H4V149.791H78.7131V144.008Z" stroke="#263238" stroke-linecap="round" stroke-linejoin="round"/>
<path d="M78.7131 153.167H4V158.951H78.7131V153.167Z" stroke="#263238" stroke-linecap="round" stroke-linejoin="round"/>
<path d="M78.7131 162.321H4V168.104H78.7131V162.321Z" stroke="#263238" stroke-linecap="round" stroke-linejoin="round"/>
<path d="M5.23193 121.457H26.2828" stroke="#263238" stroke-width="3" stroke-linecap="round" stroke-linejoin="round"/>
<path d="M5.23193 125.797H39.9878" stroke="#263238" stroke-linecap="round" stroke-linejoin="round"/>
<path d="M78.7131 133.879H4V139.662H78.7131V133.879Z" stroke="#263238" stroke-linecap="round" stroke-linejoin="round"/>
<path d="M78.7131 143.033H4V148.816H78.7131V143.033Z" stroke="#263238" stroke-linecap="round" stroke-linejoin="round"/>
<path d="M78.7131 152.192H4V157.976H78.7131V152.192Z" stroke="#263238" stroke-linecap="round" stroke-linejoin="round"/>
<path d="M78.7131 161.352H4V167.135H78.7131V161.352Z" stroke="#263238" stroke-linecap="round" stroke-linejoin="round"/>
<path d="M78.7131 170.511H4V176.294H78.7131V170.511Z" stroke="#263238" stroke-linecap="round" stroke-linejoin="round"/>
<path d="M31.775 133.879H4V139.662H31.775V133.879Z" fill="#263238" stroke="#263238" stroke-linecap="round" stroke-linejoin="round"/>
<path d="M41.6588 143.033H4V148.816H41.6588V143.033Z" fill="#8B5FD9" stroke="#263238" stroke-linecap="round" stroke-linejoin="round"/>
<path d="M18.2981 152.192H4V157.976H18.2981V152.192Z" fill="#263238" stroke="#263238" stroke-linecap="round" stroke-linejoin="round"/>
<path d="M65.4586 161.352H4V167.135H65.4586V161.352Z" fill="#8B5FD9" stroke="#263238" stroke-linecap="round" stroke-linejoin="round"/>
<path d="M49.7404 170.511H4V176.294H49.7404V170.511Z" fill="#263238" stroke="#263238" stroke-linecap="round" stroke-linejoin="round"/>
<path d="M290.436 80.3767H119.178C116.157 80.3767 113.708 82.8255 113.708 85.8462V187.53C113.708 190.551 116.157 193 119.178 193H290.436C293.457 193 295.906 190.551 295.906 187.53V85.8462C295.906 82.8255 293.457 80.3767 290.436 80.3767Z" fill="#263238" stroke="#263238" stroke-linecap="round" stroke-linejoin="round"/>
<path d="M284.248 86.5647H125.372C122.445 86.5647 120.073 88.9368 120.073 91.863V181.507C120.073 184.434 122.445 186.806 125.372 186.806H284.248C287.174 186.806 289.546 184.434 289.546 181.507V91.863C289.546 88.9368 287.174 86.5647 284.248 86.5647Z" fill="white" stroke="#263238" stroke-linecap="round" stroke-linejoin="round"/>
<path d="M288.993 121.241V172.844H215.267V152.58H239.745V134.296H261.971V118.823H288.697L288.993 121.241Z" fill="#8B5FD9"/>
<path d="M289.575 173.409V181.507C289.575 182.913 289.017 184.26 288.023 185.254C287.029 186.247 285.682 186.806 284.277 186.806H125.372C123.966 186.806 122.619 186.247 121.625 185.254C120.632 184.26 120.073 182.913 120.073 181.507V173.409H289.575Z" fill="white" stroke="#263238" stroke-linecap="round" stroke-linejoin="round"/>
<path d="M273.189 138.704H265.929C265.353 138.704 264.885 139.171 264.885 139.748V147.008C264.885 147.585 265.353 148.052 265.929 148.052H273.189C273.766 148.052 274.233 147.585 274.233 147.008V139.748C274.233 139.171 273.766 138.704 273.189 138.704Z" fill="white" stroke="#263238" stroke-linecap="round" stroke-linejoin="round"/>
<path d="M273.189 162.15H265.929C265.353 162.15 264.885 162.618 264.885 163.194V170.454C264.885 171.031 265.353 171.498 265.929 171.498H273.189C273.766 171.498 274.233 171.031 274.233 170.454V163.194C274.233 162.618 273.766 162.15 273.189 162.15Z" fill="white" stroke="#263238" stroke-linecap="round" stroke-linejoin="round"/>
<path d="M285.959 158.729V151.468C285.959 150.892 285.492 150.425 284.915 150.425H277.655C277.079 150.425 276.611 150.892 276.611 151.468V158.729C276.611 159.305 277.079 159.772 277.655 159.772H284.915C285.492 159.772 285.959 159.305 285.959 158.729Z" fill="white" stroke="#263238" stroke-linecap="round" stroke-linejoin="round"/>
<path d="M262.507 158.729V151.468C262.507 150.892 262.04 150.425 261.463 150.425H254.203C253.627 150.425 253.159 150.892 253.159 151.468V158.729C253.159 159.305 253.627 159.772 254.203 159.772H261.463C262.04 159.772 262.507 159.305 262.507 158.729Z" fill="white" stroke="#263238" stroke-linecap="round" stroke-linejoin="round"/>
<path d="M194.997 148.845H183.311C182.066 148.845 180.873 148.35 179.992 147.47C179.112 146.59 178.618 145.396 178.618 144.151C178.618 142.906 179.112 141.712 179.992 140.832C180.873 139.952 182.066 139.457 183.311 139.457H190.304V135.682C190.304 135.065 190.425 134.455 190.661 133.885C190.897 133.316 191.243 132.798 191.678 132.363C192.114 131.927 192.632 131.581 193.201 131.345C193.771 131.109 194.381 130.988 194.997 130.988C195.614 130.988 196.224 131.109 196.794 131.345C197.363 131.581 197.881 131.927 198.316 132.363C198.752 132.798 199.098 133.316 199.334 133.885C199.57 134.455 199.691 135.065 199.691 135.682V144.151C199.69 145.395 199.195 146.588 198.315 147.468C197.435 148.348 196.242 148.843 194.997 148.845Z" fill="white" stroke="#263238" stroke-linecap="round" stroke-linejoin="round"/>
<path d="M197.45 140.592C197.194 140.592 196.941 140.542 196.706 140.444C196.47 140.346 196.255 140.203 196.075 140.022C195.894 139.842 195.751 139.627 195.653 139.392C195.555 139.156 195.505 138.903 195.505 138.647V129.756H199.4V138.647C199.399 139.164 199.193 139.658 198.827 140.023C198.461 140.387 197.966 140.592 197.45 140.592Z" fill="#263238" stroke="#263238" stroke-linecap="round" stroke-linejoin="round"/>
<path d="M181.11 151.942C185.693 151.942 189.408 148.226 189.408 143.643C189.408 139.06 185.693 135.345 181.11 135.345C176.527 135.345 172.812 139.06 172.812 143.643C172.812 148.226 176.527 151.942 181.11 151.942Z" fill="#8B5FD9" stroke="#263238" stroke-linecap="round" stroke-linejoin="round"/>
<path d="M181.332 139.069H162.089C160.155 139.069 158.588 140.637 158.588 142.571V149.455C158.588 151.389 160.155 152.957 162.089 152.957H181.332C183.266 152.957 184.834 151.389 184.834 149.455V142.571C184.834 140.637 183.266 139.069 181.332 139.069Z" fill="#8B5FD9" stroke="#263238" stroke-linecap="round" stroke-linejoin="round"/>
<path d="M190.252 170.369C189.665 170.371 189.082 170.257 188.539 170.034C187.995 169.81 187.501 169.482 187.085 169.067C186.669 168.652 186.339 168.159 186.115 167.616C185.89 167.073 185.774 166.491 185.775 165.903V158.518H182.621C182.021 158.539 181.423 158.439 180.862 158.224C180.301 158.009 179.789 157.684 179.357 157.267C178.925 156.85 178.581 156.35 178.346 155.797C178.111 155.244 177.99 154.65 177.99 154.049C177.99 153.448 178.111 152.854 178.346 152.301C178.581 151.748 178.925 151.248 179.357 150.831C179.789 150.414 180.301 150.089 180.862 149.874C181.423 149.659 182.021 149.559 182.621 149.58H190.241C190.828 149.58 191.409 149.695 191.951 149.919C192.494 150.143 192.987 150.472 193.402 150.886C193.817 151.301 194.147 151.794 194.372 152.336C194.596 152.878 194.712 153.459 194.712 154.046V165.903C194.712 167.087 194.242 168.222 193.406 169.059C192.57 169.896 191.436 170.367 190.252 170.369Z" fill="white" stroke="#263238" stroke-linecap="round" stroke-linejoin="round"/>
<path d="M185.775 158.517V165.903C185.816 167.061 186.305 168.157 187.139 168.961C187.972 169.765 189.085 170.215 190.244 170.215C191.402 170.215 192.515 169.765 193.348 168.961C194.182 168.157 194.671 167.061 194.712 165.903V158.517H185.775Z" fill="white" stroke="#263238" stroke-linecap="round" stroke-linejoin="round"/>
<path d="M162.819 168.11H151.983C150.797 168.11 149.66 167.639 148.821 166.801C147.983 165.962 147.512 164.825 147.512 163.639C147.512 162.453 147.983 161.316 148.821 160.477C149.66 159.639 150.797 159.168 151.983 159.168H158.348V154.497C158.348 153.311 158.819 152.173 159.658 151.335C160.496 150.496 161.634 150.025 162.819 150.025C164.005 150.025 165.143 150.496 165.981 151.335C166.82 152.173 167.291 153.311 167.291 154.497V163.622C167.293 164.21 167.179 164.794 166.955 165.338C166.732 165.883 166.403 166.378 165.987 166.795C165.572 167.212 165.078 167.542 164.535 167.768C163.991 167.994 163.408 168.11 162.819 168.11Z" fill="white" stroke="#263238" stroke-linecap="round" stroke-linejoin="round"/>
<path d="M158.588 158.204H158.348V159.168H151.983C150.797 159.168 149.66 159.639 148.821 160.477C147.983 161.316 147.512 162.453 147.512 163.639C147.512 164.825 147.983 165.962 148.821 166.801C149.66 167.639 150.797 168.11 151.983 168.11H158.588V158.204Z" fill="white" stroke="#263238" stroke-linecap="round" stroke-linejoin="round"/>
<path d="M153.084 158.626V167.66C153.084 169.125 152.502 170.531 151.465 171.568C150.429 172.604 149.023 173.186 147.557 173.186H143.77V158.626H153.084Z" fill="#263238" stroke="#263238" stroke-linecap="round" stroke-linejoin="round"/>
<path d="M142.664 173.449V159.054C142.664 158.909 142.692 158.766 142.748 158.632C142.803 158.499 142.884 158.378 142.986 158.275C143.089 158.173 143.21 158.092 143.343 158.037C143.477 157.981 143.62 157.953 143.765 157.953C143.909 157.952 144.053 157.98 144.187 158.035C144.321 158.09 144.442 158.171 144.545 158.274C144.647 158.376 144.728 158.498 144.783 158.632C144.838 158.765 144.866 158.909 144.865 159.054V173.449C144.865 173.741 144.749 174.021 144.543 174.227C144.337 174.433 144.057 174.549 143.765 174.549C143.473 174.548 143.194 174.432 142.988 174.225C142.782 174.019 142.666 173.74 142.664 173.449Z" fill="white" stroke="#263238" stroke-linecap="round" stroke-linejoin="round"/>
<path d="M184.834 149.232H158.924V159.053H184.834V149.232Z" fill="#263238" stroke="#263238" stroke-linecap="round" stroke-linejoin="round"/>
<path d="M184.834 149.232H158.924V151.713H184.834V149.232Z" fill="#8B5FD9" stroke="#263238" stroke-linecap="round" stroke-linejoin="round"/>
<path d="M175.829 149.232H167.93V165.441H175.829V149.232Z" fill="#8B5FD9" stroke="#263238" stroke-linecap="round" stroke-linejoin="round"/>
<path d="M176.228 129.419H164.821C163.061 129.419 161.633 130.847 161.633 132.607V137.575C161.633 139.336 163.061 140.763 164.821 140.763H176.228C177.989 140.763 179.416 139.336 179.416 137.575V132.607C179.416 130.847 177.989 129.419 176.228 129.419Z" fill="white" stroke="#263238" stroke-linecap="round" stroke-linejoin="round"/>
<path d="M170.61 132.128V136.868H180.26V146.523L171.363 144.157C170.807 144.009 170.315 143.682 169.964 143.226C169.614 142.77 169.423 142.211 169.424 141.636V140.763H163.213C162.705 140.763 162.217 140.561 161.858 140.202C161.498 139.842 161.297 139.355 161.297 138.847V131.917C161.297 131.917 170.61 131.45 170.61 132.128Z" fill="#263238" stroke="#263238" stroke-linecap="round" stroke-linejoin="round"/>
<path d="M178.908 137.917C180.238 137.917 181.315 136.84 181.315 135.51C181.315 134.181 180.238 133.104 178.908 133.104C177.579 133.104 176.502 134.181 176.502 135.51C176.502 136.84 177.579 137.917 178.908 137.917Z" fill="white" stroke="#263238" stroke-linecap="round" stroke-linejoin="round"/>
<path d="M176.205 125.364L169.76 122.302L164.348 125.279C163.373 125.814 162.559 126.601 161.993 127.558C161.426 128.515 161.126 129.607 161.126 130.72V133.143H179.753V130.971C179.752 129.796 179.419 128.646 178.791 127.653C178.163 126.661 177.266 125.867 176.205 125.364Z" fill="#8B5FD9" stroke="#263238" stroke-linecap="round" stroke-linejoin="round"/>
<path d="M163.156 132.128C163.531 132.128 163.835 131.825 163.835 131.45C163.835 131.075 163.531 130.771 163.156 130.771C162.781 130.771 162.477 131.075 162.477 131.45C162.477 131.825 162.781 132.128 163.156 132.128Z" fill="#263238" stroke="#263238" stroke-linecap="round" stroke-linejoin="round"/>
<path d="M167.559 131.45C167.559 131.315 167.519 131.184 167.444 131.072C167.369 130.96 167.263 130.873 167.139 130.822C167.014 130.771 166.878 130.758 166.746 130.784C166.614 130.811 166.493 130.876 166.398 130.972C166.304 131.067 166.239 131.189 166.214 131.321C166.188 131.453 166.203 131.589 166.255 131.713C166.307 131.837 166.395 131.943 166.507 132.017C166.62 132.091 166.751 132.129 166.886 132.128C166.975 132.128 167.063 132.111 167.145 132.077C167.227 132.042 167.301 131.992 167.364 131.929C167.426 131.866 167.476 131.791 167.509 131.709C167.543 131.627 167.56 131.539 167.559 131.45Z" fill="#263238" stroke="#263238" stroke-linecap="round" stroke-linejoin="round"/>
<path d="M171.289 131.45C171.289 131.315 171.249 131.184 171.174 131.073C171.1 130.961 170.994 130.874 170.87 130.823C170.746 130.771 170.609 130.758 170.478 130.784C170.346 130.81 170.225 130.875 170.13 130.97C170.035 131.065 169.971 131.186 169.944 131.317C169.918 131.449 169.932 131.585 169.983 131.709C170.034 131.833 170.121 131.939 170.233 132.014C170.345 132.089 170.476 132.128 170.61 132.128C170.79 132.128 170.963 132.057 171.09 131.93C171.217 131.802 171.289 131.63 171.289 131.45Z" fill="#263238" stroke="#263238" stroke-linecap="round" stroke-linejoin="round"/>
<path d="M175.013 131.45C175.013 131.27 174.942 131.097 174.814 130.97C174.687 130.842 174.514 130.771 174.334 130.771C174.154 130.771 173.982 130.842 173.854 130.97C173.727 131.097 173.656 131.27 173.656 131.45C173.656 131.63 173.727 131.802 173.854 131.93C173.982 132.057 174.154 132.128 174.334 132.128C174.514 132.128 174.687 132.057 174.814 131.93C174.942 131.802 175.013 131.63 175.013 131.45Z" fill="#263238" stroke="#263238" stroke-linecap="round" stroke-linejoin="round"/>
<path d="M178.737 131.45C178.737 131.315 178.698 131.184 178.623 131.073C178.548 130.961 178.442 130.874 178.318 130.823C178.194 130.771 178.058 130.758 177.926 130.784C177.795 130.81 177.674 130.875 177.579 130.97C177.484 131.065 177.419 131.186 177.393 131.317C177.367 131.449 177.38 131.585 177.432 131.709C177.483 131.833 177.57 131.939 177.682 132.014C177.793 132.089 177.924 132.128 178.059 132.128C178.239 132.128 178.411 132.057 178.539 131.93C178.666 131.802 178.737 131.63 178.737 131.45Z" fill="#263238" stroke="#263238" stroke-linecap="round" stroke-linejoin="round"/>
<path d="M199.908 131.279H199.839C198.315 131.279 197.079 132.514 197.079 134.039V135.63C197.079 137.155 198.315 138.391 199.839 138.391H199.908C201.432 138.391 202.668 137.155 202.668 135.63V134.039C202.668 132.514 201.432 131.279 199.908 131.279Z" fill="white" stroke="#263238" stroke-linecap="round" stroke-linejoin="round"/>
<path d="M190.304 135.681V134.136C190.304 133.38 190.604 132.654 191.139 132.119C191.674 131.585 192.399 131.284 193.155 131.284H195.67C196.124 131.284 196.559 131.464 196.88 131.785C197.201 132.106 197.381 132.541 197.381 132.995C197.381 133.449 197.201 133.884 196.88 134.205C196.559 134.526 196.124 134.706 195.67 134.706H194.992V138.094" fill="white"/>
<path d="M190.304 135.681V134.136C190.304 133.38 190.604 132.654 191.139 132.119C191.674 131.585 192.399 131.284 193.155 131.284H195.67C196.124 131.284 196.559 131.464 196.88 131.785C197.201 132.106 197.381 132.541 197.381 132.995C197.381 133.449 197.201 133.884 196.88 134.205C196.559 134.526 196.124 134.706 195.67 134.706H194.992V138.094" stroke="#263238" stroke-linecap="round" stroke-linejoin="round"/>
<path d="M201.26 111.294L197.706 108.42L193.811 111.294V129.248H201.26V111.294Z" fill="white" stroke="#263238" stroke-linecap="round" stroke-linejoin="round"/>
<path d="M203.039 130.942H191.016C190.894 130.942 190.773 130.918 190.659 130.871C190.546 130.824 190.443 130.755 190.357 130.668C190.271 130.581 190.202 130.478 190.156 130.364C190.11 130.251 190.086 130.129 190.087 130.007C190.087 129.76 190.185 129.524 190.359 129.349C190.533 129.175 190.77 129.077 191.016 129.077H203.039C203.286 129.077 203.522 129.175 203.696 129.349C203.871 129.524 203.969 129.76 203.969 130.007C203.969 130.129 203.946 130.251 203.899 130.364C203.853 130.478 203.785 130.581 203.698 130.668C203.612 130.755 203.509 130.824 203.396 130.871C203.283 130.918 203.162 130.942 203.039 130.942Z" fill="white" stroke="#263238" stroke-linecap="round" stroke-linejoin="round"/>
<path d="M197.706 108.42V128.74" stroke="#263238" stroke-linecap="round" stroke-linejoin="round"/>
<path d="M185.684 163.628H194.718C196.184 163.628 197.589 164.21 198.626 165.246C199.662 166.283 200.244 167.688 200.244 169.154V172.941H185.684V163.628Z" fill="#263238" stroke="#263238" stroke-linecap="round" stroke-linejoin="round"/>
<path d="M200.501 173.278H186.106C185.961 173.278 185.818 173.25 185.684 173.195C185.55 173.14 185.428 173.059 185.326 172.957C185.224 172.855 185.143 172.733 185.087 172.599C185.032 172.465 185.004 172.322 185.005 172.177C185.005 172.032 185.034 171.889 185.089 171.756C185.144 171.622 185.225 171.501 185.328 171.399C185.43 171.296 185.551 171.215 185.685 171.16C185.818 171.105 185.961 171.076 186.106 171.076H200.501C200.793 171.078 201.072 171.194 201.278 171.4C201.484 171.606 201.6 171.885 201.602 172.177C201.602 172.469 201.486 172.749 201.279 172.955C201.073 173.162 200.793 173.278 200.501 173.278Z" fill="white" stroke="#263238" stroke-linecap="round" stroke-linejoin="round"/>
<path d="M155.536 151.942C160.119 151.942 163.835 148.226 163.835 143.643C163.835 139.06 160.119 135.345 155.536 135.345C150.953 135.345 147.238 139.06 147.238 143.643C147.238 148.226 150.953 151.942 155.536 151.942Z" fill="#8B5FD9" stroke="#263238" stroke-linecap="round" stroke-linejoin="round"/>
<path d="M151.641 165.521C159.141 165.521 165.221 159.441 165.221 151.942C165.221 144.442 159.141 138.362 151.641 138.362C144.141 138.362 138.061 144.442 138.061 151.942C138.061 159.441 144.141 165.521 151.641 165.521Z" fill="white" stroke="#263238" stroke-linecap="round" stroke-linejoin="round"/>
<path d="M151.641 161.563C156.955 161.563 161.262 157.255 161.262 151.942C161.262 146.628 156.955 142.32 151.641 142.32C146.327 142.32 142.019 146.628 142.019 151.942C142.019 157.255 146.327 161.563 151.641 161.563Z" fill="white" stroke="#263238" stroke-linecap="round" stroke-linejoin="round"/>
<path d="M151.618 152.113L143.063 156.322C143.521 157.216 144.116 158.034 144.826 158.745C145.614 159.529 146.533 160.17 147.54 160.639L151.698 152.204L151.515 152.295L151.618 152.113Z" fill="#263238" stroke="#263238" stroke-linecap="round" stroke-linejoin="round"/>
<path d="M155.941 143.335L151.618 152.113L151.801 152.021L151.709 152.204L160.378 147.932C159.907 146.892 159.252 145.945 158.445 145.137C157.713 144.406 156.867 143.797 155.941 143.335Z" fill="#263238" stroke="#263238" stroke-linecap="round" stroke-linejoin="round"/>
<path d="M152.867 153.162C153.103 152.921 153.262 152.616 153.325 152.286C153.388 151.955 153.351 151.613 153.221 151.302C153.09 150.992 152.871 150.727 152.59 150.541C152.31 150.354 151.981 150.255 151.644 150.255C151.307 150.255 150.978 150.354 150.697 150.541C150.417 150.727 150.197 150.992 150.067 151.302C149.936 151.613 149.9 151.955 149.963 152.286C150.026 152.616 150.185 152.921 150.42 153.162C150.58 153.325 150.77 153.455 150.98 153.543C151.19 153.631 151.416 153.677 151.644 153.677C151.872 153.677 152.097 153.631 152.307 153.543C152.518 153.455 152.708 153.325 152.867 153.162Z" fill="white" stroke="#263238" stroke-linecap="round" stroke-linejoin="round"/>
<path d="M144.215 144.276C144.406 144.086 144.513 143.827 144.513 143.558C144.513 143.288 144.406 143.03 144.215 142.839C144.025 142.649 143.766 142.542 143.497 142.542C143.227 142.542 142.969 142.649 142.778 142.839C142.589 143.03 142.482 143.289 142.482 143.558C142.482 143.827 142.589 144.085 142.778 144.276C142.872 144.372 142.984 144.447 143.107 144.499C143.231 144.55 143.363 144.577 143.497 144.577C143.63 144.577 143.763 144.55 143.886 144.499C144.009 144.447 144.121 144.372 144.215 144.276Z" fill="white" stroke="#263238" stroke-linecap="round" stroke-linejoin="round"/>
<path d="M160.624 160.679C160.765 160.537 160.862 160.356 160.901 160.159C160.94 159.962 160.92 159.758 160.843 159.573C160.766 159.388 160.636 159.229 160.469 159.118C160.302 159.006 160.106 158.947 159.905 158.947C159.704 158.947 159.508 159.006 159.341 159.118C159.174 159.229 159.044 159.388 158.967 159.573C158.89 159.758 158.87 159.962 158.909 160.159C158.948 160.356 159.045 160.537 159.186 160.679C159.28 160.775 159.392 160.851 159.515 160.903C159.639 160.955 159.771 160.982 159.905 160.982C160.039 160.982 160.172 160.955 160.295 160.903C160.418 160.851 160.53 160.775 160.624 160.679Z" fill="white" stroke="#263238" stroke-linecap="round" stroke-linejoin="round"/>
<path d="M159.186 144.276C159.329 144.418 159.509 144.515 159.706 144.554C159.903 144.592 160.107 144.572 160.293 144.495C160.478 144.418 160.636 144.288 160.748 144.121C160.859 143.955 160.919 143.758 160.919 143.558C160.919 143.357 160.859 143.161 160.748 142.994C160.636 142.827 160.478 142.697 160.293 142.62C160.107 142.543 159.903 142.523 159.706 142.562C159.509 142.601 159.329 142.697 159.186 142.839C159.091 142.933 159.016 143.045 158.964 143.168C158.913 143.292 158.886 143.424 158.886 143.558C158.886 143.691 158.913 143.824 158.964 143.947C159.016 144.07 159.091 144.182 159.186 144.276Z" fill="white" stroke="#263238" stroke-linecap="round" stroke-linejoin="round"/>
<path d="M142.778 160.679C142.92 160.822 143.101 160.919 143.298 160.958C143.495 160.998 143.699 160.978 143.885 160.902C144.071 160.825 144.23 160.695 144.342 160.528C144.454 160.361 144.513 160.164 144.513 159.963C144.513 159.762 144.454 159.566 144.342 159.399C144.23 159.231 144.071 159.101 143.885 159.025C143.699 158.948 143.495 158.928 143.298 158.968C143.101 159.008 142.92 159.105 142.778 159.247C142.684 159.341 142.609 159.453 142.558 159.576C142.507 159.698 142.48 159.83 142.48 159.963C142.48 160.096 142.507 160.228 142.558 160.351C142.609 160.474 142.684 160.585 142.778 160.679Z" fill="white" stroke="#263238" stroke-linecap="round" stroke-linejoin="round"/>
<path d="M163.304 152.774C163.865 152.774 164.319 152.32 164.319 151.759C164.319 151.198 163.865 150.744 163.304 150.744C162.743 150.744 162.289 151.198 162.289 151.759C162.289 152.32 162.743 152.774 163.304 152.774Z" fill="white" stroke="#263238" stroke-linecap="round" stroke-linejoin="round"/>
<path d="M140.103 152.774C140.664 152.774 141.118 152.32 141.118 151.759C141.118 151.198 140.664 150.744 140.103 150.744C139.543 150.744 139.088 151.198 139.088 151.759C139.088 152.32 139.543 152.774 140.103 152.774Z" fill="white" stroke="#263238" stroke-linecap="round" stroke-linejoin="round"/>
<path d="M151.704 141.174C151.905 141.174 152.101 141.114 152.268 141.003C152.435 140.891 152.565 140.732 152.642 140.547C152.718 140.361 152.739 140.157 152.699 139.96C152.66 139.764 152.564 139.583 152.422 139.441C152.28 139.299 152.099 139.202 151.902 139.163C151.705 139.124 151.501 139.144 151.315 139.221C151.13 139.297 150.971 139.428 150.86 139.594C150.748 139.761 150.689 139.958 150.689 140.158C150.689 140.428 150.795 140.686 150.986 140.876C151.176 141.067 151.434 141.174 151.704 141.174Z" fill="white" stroke="#263238" stroke-linecap="round" stroke-linejoin="round"/>
<path d="M151.704 164.375C151.905 164.375 152.101 164.315 152.268 164.204C152.435 164.092 152.565 163.933 152.642 163.748C152.718 163.562 152.739 163.358 152.699 163.161C152.66 162.964 152.564 162.784 152.422 162.642C152.28 162.5 152.099 162.403 151.902 162.364C151.705 162.325 151.501 162.345 151.315 162.422C151.13 162.498 150.971 162.628 150.86 162.795C150.748 162.962 150.689 163.159 150.689 163.359C150.689 163.629 150.795 163.887 150.986 164.077C151.176 164.268 151.434 164.375 151.704 164.375Z" fill="white" stroke="#263238" stroke-linecap="round" stroke-linejoin="round"/>
<path d="M230.13 92.7927H211.423C209.117 92.7927 207.248 94.6619 207.248 96.9675V115.674C207.248 117.98 209.117 119.849 211.423 119.849H230.13C232.435 119.849 234.304 117.98 234.304 115.674V96.9675C234.304 94.6619 232.435 92.7927 230.13 92.7927Z" fill="#263238"/>
<path d="M150.882 92.7927H132.176C129.87 92.7927 128.001 94.6619 128.001 96.9675V115.674C128.001 117.98 129.87 119.849 132.176 119.849H150.882C153.188 119.849 155.057 117.98 155.057 115.674V96.9675C155.057 94.6619 153.188 92.7927 150.882 92.7927Z" fill="white" stroke="#263238" stroke-linecap="round" stroke-linejoin="round"/>
<path d="M222.807 110.347H217.759V109.84C217.737 109.131 217.835 108.423 218.05 107.747C218.247 107.209 218.541 106.712 218.917 106.281C219.733 105.447 220.602 104.666 221.518 103.943C222.236 103.353 222.596 102.817 222.596 102.334C222.608 102.124 222.576 101.914 222.501 101.718C222.426 101.521 222.311 101.342 222.162 101.194C221.793 100.895 221.323 100.75 220.85 100.789C220.562 100.779 220.275 100.83 220.007 100.937C219.739 101.044 219.496 101.205 219.293 101.41C218.798 102.031 218.52 102.796 218.501 103.589L213.368 102.956C213.473 101.233 214.207 99.6093 215.432 98.3933C216.637 97.2527 218.478 96.6823 220.953 96.6823C222.598 96.6028 224.229 97.0244 225.63 97.8914C226.378 98.3444 226.994 98.9845 227.419 99.7486C227.845 100.513 228.063 101.374 228.054 102.249C228.048 103.019 227.831 103.772 227.426 104.427C226.728 105.421 225.866 106.289 224.877 106.994C224.209 107.458 223.63 108.037 223.166 108.705C222.915 109.215 222.792 109.779 222.807 110.347ZM217.582 111.688H222.989V116.461H217.582V111.688Z" fill="#8B5FD9"/>
<path d="M262.176 114.574C266.681 114.574 270.332 110.922 270.332 106.418C270.332 101.914 266.681 98.2622 262.176 98.2622C257.672 98.2622 254.021 101.914 254.021 106.418C254.021 110.922 257.672 114.574 262.176 114.574Z" fill="#8B5FD9" stroke="#263238" stroke-linecap="round" stroke-linejoin="round"/>
<path d="M263.553 112.263C266.771 111.5 268.761 108.273 267.998 105.054C267.235 101.836 264.007 99.8462 260.789 100.609C257.571 101.372 255.581 104.6 256.344 107.818C257.107 111.036 260.334 113.026 263.553 112.263Z" fill="#8B5FD9" stroke="#263238" stroke-linecap="round" stroke-linejoin="round"/>
<path d="M179.81 114.574C184.314 114.574 187.965 110.922 187.965 106.418C187.965 101.914 184.314 98.2622 179.81 98.2622C175.305 98.2622 171.654 101.914 171.654 106.418C171.654 110.922 175.305 114.574 179.81 114.574Z" fill="#8B5FD9" stroke="#263238" stroke-linecap="round" stroke-linejoin="round"/>
<path d="M181.184 112.258C184.402 111.495 186.392 108.268 185.629 105.05C184.866 101.832 181.638 99.8415 178.42 100.605C175.202 101.368 173.212 104.595 173.975 107.813C174.738 111.031 177.966 113.021 181.184 112.258Z" fill="#8B5FD9" stroke="#263238" stroke-linecap="round" stroke-linejoin="round"/>
<path d="M244.93 178.097C244.928 178.346 244.876 178.592 244.778 178.821C244.68 179.05 244.538 179.258 244.359 179.431L243.401 180.395L240.732 183.064L238.057 180.395L237.105 179.431C236.923 179.258 236.779 179.049 236.679 178.819C236.579 178.588 236.526 178.34 236.523 178.089C236.521 177.837 236.568 177.588 236.663 177.356C236.758 177.123 236.899 176.912 237.076 176.734C237.254 176.556 237.465 176.416 237.698 176.321C237.931 176.226 238.18 176.178 238.431 176.181C238.682 176.184 238.931 176.236 239.161 176.336C239.392 176.436 239.6 176.581 239.774 176.762L240.738 177.721L241.696 176.762C242.05 176.409 242.53 176.21 243.03 176.21C243.531 176.21 244.011 176.409 244.365 176.762C244.543 176.936 244.685 177.143 244.782 177.373C244.879 177.602 244.929 177.848 244.93 178.097Z" fill="#8B5FD9" stroke="#263238" stroke-linecap="round" stroke-linejoin="round"/>
<path d="M255.732 178.097C255.73 178.346 255.678 178.592 255.58 178.821C255.482 179.05 255.34 179.258 255.161 179.431L254.215 180.395L251.545 183.064L248.871 180.395L247.941 179.431C247.76 179.258 247.615 179.049 247.515 178.819C247.415 178.588 247.362 178.34 247.36 178.089C247.357 177.837 247.405 177.588 247.499 177.356C247.594 177.123 247.735 176.912 247.912 176.734C248.09 176.556 248.302 176.416 248.534 176.321C248.767 176.226 249.016 176.178 249.267 176.181C249.519 176.184 249.767 176.236 249.997 176.336C250.228 176.436 250.436 176.581 250.61 176.762L251.574 177.721L252.532 176.762C252.886 176.409 253.366 176.21 253.867 176.21C254.367 176.21 254.847 176.409 255.201 176.762C255.374 176.939 255.509 177.147 255.6 177.377C255.691 177.606 255.736 177.85 255.732 178.097Z" fill="#8B5FD9" stroke="#263238" stroke-linecap="round" stroke-linejoin="round"/>
<path d="M150.266 102.979C150.27 103.508 150.169 104.032 149.968 104.522C149.767 105.012 149.471 105.456 149.097 105.83L147.067 107.867L141.409 113.524L135.752 107.867L133.716 105.83C132.965 105.08 132.544 104.063 132.544 103.002C132.544 101.941 132.965 100.923 133.716 100.173C134.466 99.4226 135.483 99.0011 136.544 99.0011C137.605 99.0011 138.623 99.4226 139.373 100.173L141.409 102.209L143.44 100.173C143.998 99.6027 144.715 99.213 145.497 99.0541C146.279 98.8952 147.091 98.9743 147.827 99.2812C148.564 99.5882 149.192 100.109 149.63 100.776C150.067 101.443 150.295 102.226 150.284 103.024L150.266 102.979Z" fill="#8B5FD9" stroke="#263238" stroke-linecap="round" stroke-linejoin="round"/>
<path d="M266.534 178.097C266.532 178.346 266.48 178.592 266.382 178.821C266.284 179.05 266.142 179.258 265.963 179.431L265.051 180.395L262.382 183.064L259.713 180.395L258.749 179.431C258.395 179.077 258.196 178.597 258.196 178.097C258.196 177.596 258.395 177.116 258.749 176.762C259.103 176.408 259.583 176.21 260.083 176.21C260.584 176.21 261.064 176.408 261.418 176.762L262.382 177.72L263.34 176.762C263.694 176.408 264.174 176.21 264.674 176.21C265.175 176.21 265.655 176.408 266.009 176.762C266.18 176.939 266.315 177.148 266.405 177.377C266.495 177.606 266.539 177.851 266.534 178.097Z" fill="#8B5FD9" stroke="#263238" stroke-linecap="round" stroke-linejoin="round"/>
<path d="M194.718 178.456H141.261V181.553H194.718V178.456Z" fill="#8B5FD9" stroke="#263238" stroke-linecap="round" stroke-linejoin="round"/>
<path d="M204.562 178.456H197.53V181.553H204.562V178.456Z" fill="#8B5FD9" stroke="#263238" stroke-linecap="round" stroke-linejoin="round"/>
<path d="M132.894 192.994H119.007C117.602 192.994 116.254 192.436 115.26 191.442C114.267 190.448 113.708 189.101 113.708 187.695V125.815C109.967 128.586 102.205 134.484 99.5585 137.569C96.0225 141.698 93.3705 148.183 92.1899 154.964C91.0093 161.745 86.5892 167.643 87.7641 170.888C88.939 174.133 93.3704 193.883 94.8419 201.84C95.8602 207.191 96.4514 212.615 96.6099 218.06C96.6099 219.828 92.1899 242.23 92.1899 242.23L124.322 243.411C124.322 243.411 123.752 232.21 124.893 228.668C126.033 225.126 131.081 216.879 130.493 211.866C129.934 206.944 133.305 198.332 132.894 192.994Z" fill="white" stroke="#263238" stroke-linecap="round" stroke-linejoin="round"/>
<path d="M113.708 136.925L110.469 140.689C110.469 140.689 109.288 147.003 108.701 149.951C108.321 151.785 107.726 153.567 106.927 155.261C106.927 155.261 108.992 159.977 110.172 161.746C110.901 162.849 111.495 164.036 111.94 165.282L113.708 166.422V136.925Z" fill="#263238" stroke="#263238" stroke-linecap="round" stroke-linejoin="round"/>
<path d="M98.9027 156.002C100.482 155.793 102.072 155.68 103.665 155.666" stroke="#263238" stroke-linecap="round" stroke-linejoin="round"/>
<path d="M107.07 138.311C107.07 138.311 110.492 139.332 110.492 140.689" stroke="#263238" stroke-linecap="round" stroke-linejoin="round"/>
<path d="M86.6064 246.034C86.6064 246.034 88.0836 232.038 88.0836 230.567V226.147C88.0836 224.676 89.555 223.569 89.555 223.569C89.555 223.569 103.916 220.62 118.283 225.411C132.649 230.202 129.313 237.947 129.313 237.947L128.577 249" fill="white"/>
<path d="M86.6064 246.034C86.6064 246.034 88.0836 232.038 88.0836 230.567V226.147C88.0836 224.676 89.555 223.569 89.555 223.569C89.555 223.569 103.916 220.62 118.283 225.411C132.649 230.202 129.313 237.947 129.313 237.947L128.577 249" stroke="#263238" stroke-linecap="round" stroke-linejoin="round"/>
<path d="M105.758 176.813C105.758 176.813 111.056 165.281 111.649 160.844C112.243 156.407 111.079 146.101 112.534 141.978C113.988 137.854 113.104 132.539 116.657 130.48C120.21 128.421 124.915 129.003 125.782 137.261C126.649 145.52 125.782 158.483 126.073 162.926C126.364 167.369 134.058 173.836 134.331 183.27C134.605 192.703 131.383 202.433 130.499 206.556C129.615 210.68 126.073 220.415 126.073 220.415" fill="white"/>
<path d="M105.758 176.813C105.758 176.813 111.056 165.281 111.649 160.844C112.243 156.407 111.079 146.101 112.534 141.978C113.988 137.854 113.104 132.539 116.657 130.48C120.21 128.421 124.915 129.003 125.782 137.261C126.649 145.52 125.782 158.483 126.073 162.926C126.364 167.369 134.058 173.836 134.331 183.27C134.605 192.703 131.383 202.433 130.499 206.556C129.615 210.68 126.073 220.415 126.073 220.415" stroke="#263238" stroke-linecap="round" stroke-linejoin="round"/>
<path d="M113.988 140.033C115.734 139.608 117.553 139.573 119.315 139.93C120.908 140.234 122.483 140.629 124.031 141.111C124.201 139.149 124.201 137.176 124.031 135.214C124.031 135.214 124.419 131.843 122.377 130.486C120.336 129.128 116.252 129.465 114.895 132.528C113.537 135.59 113.988 140.033 113.988 140.033Z" stroke="#263238" stroke-linecap="round" stroke-linejoin="round"/>
<path d="M121.357 145.457C121.357 145.457 114.553 143.415 112.853 146.136" stroke="#263238" stroke-linecap="round" stroke-linejoin="round"/>
<path d="M114.552 147.156C114.552 147.156 116.594 147.835 121.02 147.499" stroke="#263238" stroke-linecap="round" stroke-linejoin="round"/>
<path d="M322.979 170.888C324.16 167.643 319.74 161.763 318.559 154.964C317.378 148.166 314.726 141.698 311.19 137.569C308.23 134.147 298.9 127.178 295.911 124.988V187.724C295.911 189.129 295.353 190.477 294.359 191.47C293.366 192.464 292.018 193.022 290.613 193.022H277.855C277.416 198.355 280.809 206.967 280.233 211.889C279.663 216.902 284.653 225.155 285.834 228.691C287.014 232.227 286.404 243.434 286.404 243.434L318.542 242.253C318.542 242.253 314.122 219.851 314.122 218.083C314.277 212.637 314.868 207.213 315.89 201.862C317.378 193.883 321.804 174.127 322.979 170.888Z" fill="white" stroke="#263238" stroke-linecap="round" stroke-linejoin="round"/>
<path d="M302.048 149.951C301.478 147.002 300.28 140.689 300.28 140.689L295.911 135.619V167.124L298.803 165.281C299.252 164.037 299.848 162.85 300.577 161.745C301.751 159.977 303.816 155.261 303.816 155.261C303.018 153.567 302.424 151.785 302.048 149.951Z" fill="#263238" stroke="#263238" stroke-linecap="round" stroke-linejoin="round"/>
<path d="M311.846 156.002C310.267 155.793 308.677 155.681 307.084 155.666" stroke="#263238" stroke-linecap="round" stroke-linejoin="round"/>
<path d="M303.679 138.311C303.679 138.311 300.257 139.332 300.257 140.689" stroke="#263238" stroke-linecap="round" stroke-linejoin="round"/>
<path d="M324.137 246.034C324.137 246.034 322.654 232.056 322.654 230.584V226.164C322.654 224.693 321.183 223.586 321.183 223.586C321.183 223.586 306.816 220.638 292.455 225.428C278.094 230.219 281.402 237.947 281.402 237.947L282.161 249" fill="white"/>
<path d="M324.137 246.034C324.137 246.034 322.654 232.056 322.654 230.584V226.164C322.654 224.693 321.183 223.586 321.183 223.586C321.183 223.586 306.816 220.638 292.455 225.428C278.094 230.219 281.402 237.947 281.402 237.947L282.161 249" stroke="#263238" stroke-linecap="round" stroke-linejoin="round"/>
<path d="M302.259 179.477C302.259 179.477 294.029 163.502 292.427 159.344C290.824 155.187 289.575 144.87 287.179 141.202C284.784 137.535 284.408 132.163 280.49 130.976C276.571 129.79 272.117 131.461 273.178 139.697C274.239 147.932 278.111 160.343 278.881 164.711C279.651 169.08 273.674 177.173 275.579 186.418C277.484 195.663 282.902 204.372 284.704 208.176" fill="white"/>
<path d="M302.259 179.477C302.259 179.477 294.029 163.502 292.427 159.344C290.824 155.187 289.575 144.87 287.179 141.202C284.784 137.535 284.408 132.163 280.49 130.976C276.571 129.79 272.117 131.461 273.178 139.697C274.239 147.932 278.111 160.343 278.881 164.711C279.651 169.08 273.674 177.173 275.579 186.418C277.484 195.663 282.902 204.372 284.704 208.176" stroke="#263238" stroke-linecap="round" stroke-linejoin="round"/>
<path d="M285.303 139.628C283.507 139.625 281.732 140.015 280.102 140.769C278.623 141.436 277.184 142.186 275.79 143.016C275.165 141.147 274.706 139.227 274.416 137.278C274.416 137.278 273.275 134.096 274.923 132.299C276.572 130.503 280.627 129.881 282.68 132.539C284.733 135.197 285.303 139.628 285.303 139.628Z" stroke="#263238" stroke-linecap="round" stroke-linejoin="round"/>
<path d="M279.4 146.615C279.4 146.615 285.543 143.044 287.83 145.297" stroke="#263238" stroke-linecap="round" stroke-linejoin="round"/>
<path d="M286.415 146.689C286.415 146.689 284.585 147.829 280.204 148.519" stroke="#263238" stroke-linecap="round" stroke-linejoin="round"/>
</svg>
